<?xml version="1.0" encoding="utf-8"?>
<!-- Generator: Adobe Illustrator 19.1.0, SVG Export Plug-In . SVG Version: 6.00 Build 0)  -->
<svg version="1.1" id="Capa_1" xmlns="http://www.w3.org/2000/svg" xmlns:xlink="http://www.w3.org/1999/xlink" x="0px" y="0px"
	 viewBox="206 -206 512 512" style="enable-background:new 206 -206 512 512;" xml:space="preserve">
<style type="text/css">
	.st0{fill:#FDFDFD;}
</style>
<g>
	<g>
		<path class="st0" d="M336.2,26.3c-49.7,0-91.9,35.5-100.3,84.5L206,283.3c21.4-4.8,55.8-19.5,70.9-64.1l14.9-57.6l29.1,7.5
			l-15.2,58.6l-0.2,0.5c-3.9,11.6-8.8,21.6-14.3,30.3c4,0,8.3-0.3,12.8-1c27.3-4.5,48.5-23.3,63.2-55.8l0.2,0.1l21-175.4L336.2,26.3
			L336.2,26.3z"/>
	</g>
</g>
<g>
	<g>
		<polygon class="st0" points="509.6,55.3 476.7,55.3 476.7,107.2 446.7,107.2 446.7,55.3 415.2,55.3 390.7,260.3 534,260.3 		"/>
	</g>
</g>
<g>
	<g>
		<path class="st0" d="M688.1,110.8c-8.5-48.9-50.7-84.5-100.3-84.5h-51.4l21.2,177.1v0c14.9,31.9,36.2,50.2,63.5,54.3
			c4.1,0.6,8,0.9,11.7,0.9c-5.6-8.7-10.5-18.7-14.3-30.3l-0.3-1l-15-58.1l29.1-7.5l14.9,57.6c15.1,44.6,49.5,59.3,70.9,64.1
			L688.1,110.8z"/>
	</g>
</g>
<g>
	<g>
		<path class="st0" d="M461.7-91.1c-36.5,0-66.2,29.7-66.2,66.2c0,7.4,1.2,14.5,3.5,21.1c1.6,4.9,3.8,9.5,6.5,13.7
			c3.6,5.7,8,10.9,13.1,15.3h86.4c5.4-4.6,10-10.1,13.7-16.3c2.4-4,4.4-8.3,5.9-12.8c2.2-6.6,3.5-13.7,3.5-21.1
			C527.9-61.4,498.2-91.1,461.7-91.1z"/>
	</g>
</g>
<g>
	<g>
		<path class="st0" d="M461.7-183.3c-44.1,0-88.7,12.5-88.7,40.6s44.5,40.6,88.7,40.6s88.7-12.5,88.7-40.6
			C550.4-170.8,505.8-183.3,461.7-183.3z M461.7-132.2c-28.9,0-48.4-6-56.1-10.5c7.7-4.6,27.2-10.5,56.1-10.5s48.4,6,56.1,10.5
			C510.1-138.2,490.6-132.2,461.7-132.2z"/>
	</g>
</g>
</svg>
