<?xml version="1.0" encoding="utf-8"?>
<!-- Generator: Adobe Illustrator 19.1.0, SVG Export Plug-In . SVG Version: 6.00 Build 0)  -->
<svg version="1.1" id="Capa_1" xmlns="http://www.w3.org/2000/svg" xmlns:xlink="http://www.w3.org/1999/xlink" x="0px" y="0px"
	 viewBox="4 -3.9 107.9 107.9" style="enable-background:new 4 -3.9 107.9 107.9;" xml:space="preserve">
<style type="text/css">
	.st0{fill:#FDFDFD;}
</style>
<path class="st0" d="M34.4,59.7H5.9c-1.1,0-1.9-0.9-1.9-1.9s0.9-1.9,1.9-1.9h24.8C32.1,57.3,33.3,58.6,34.4,59.7z M111.8,79.9
	c-0.1,0.5-0.2,1-0.5,1.4c-0.1,0.2-0.3,0.5-0.4,0.7l-0.1,0.2l-0.1,0.1c0,0-0.2,0.2-0.1,0.1l-0.2,0.2c-0.1,0.1-0.3,0.3-0.5,0.5
	c-0.2,0.2-0.4,0.3-0.5,0.4c-0.3,0.3-0.7,0.5-1,0.7c-0.7,0.4-1.4,0.8-2.1,1.2c-2.8,1.4-6,2.3-9.3,2.7c-1.7,0.2-3.4,0.3-5.1,0.4
	c-1.7,0-3.4,0-5.2-0.1c-3.5-0.2-7.1-0.6-10.8-1.4c-3.7-0.8-7.5-2-11-4.1c-0.9-0.6-1.8-1.2-2.6-1.9c-0.4-0.4-0.8-0.7-1.2-1.1
	l-0.6-0.6l-0.1-0.1l-0.1-0.1l-0.1-0.1l-0.2-0.3c-0.3-0.4-0.6-0.7-0.9-1.2c-0.3-0.4-0.6-0.8-0.9-1.2c-0.6-0.8-1.2-1.7-1.7-2.6
	c-0.1-0.2-0.2-0.3-0.3-0.5H27.8c-1.1,0-1.9-0.9-1.9-1.9s0.9-1.9,1.9-1.9h38.5c1.1,0,1.9,0.9,1.9,1.9s-0.9,1.9-1.9,1.9h-5.3
	c0.2,0.2,0.3,0.5,0.5,0.7l0.8,1.1c0.3,0.4,0.6,0.8,0.9,1.1l0.2,0.3l0.1,0.1l0.1,0.1c0,0,0,0,0,0l0.4,0.5c0.3,0.3,0.6,0.6,0.9,0.9
	c0.6,0.6,1.3,1,2.1,1.5c3,1.8,6.4,2.9,9.8,3.6c3.4,0.7,6.8,1.2,10.2,1.3c1.7,0.1,3.3,0.1,4.9,0.1c1.6,0,3.1-0.1,4.6-0.3
	c2.9-0.4,5.7-1.2,8.1-2.4c0.6-0.3,1.1-0.6,1.7-0.9c0.2-0.2,0.5-0.3,0.7-0.5c0.1-0.1,0.2-0.2,0.3-0.2c0.1-0.1,0.1-0.1,0.3-0.2
	l0.1-0.2l0,0l0,0c0,0,0.1-0.1,0.1-0.1c0.1-0.1,0.1-0.3,0.1-0.5c0.1-0.4,0.1-0.8,0-1.3c-0.1-1-0.5-2-1-2.8c-0.2-0.4-0.5-0.7-0.8-1
	c0.1,0-0.3-0.2-0.7-0.3c-0.9-0.3-1.9-0.5-2.8-0.7c-1-0.2-1.9-0.3-2.8-0.4c-3.6-0.5-6.5-0.7-8.5-0.9c-1-0.1-1.8-0.2-2.3-0.2
	c-0.1,0-0.2,0-0.2,0c-0.8,0.7-1.4,1.1-1.8,1.3c-0.4,0.3-0.7,0.4-0.7,0.4l0,0c-0.8,0.4-1.8,0.1-2.2-0.7c-0.3-0.7-0.2-1.4,0.3-1.9
	c0,0,0.2-0.2,0.6-0.5c0.4-0.3,0.9-0.8,1.4-1.4c0.1-0.1,0.2-0.3,0.3-0.4c0,0,0-0.1,0.1-0.1c0,0,0-0.1,0-0.1c-0.1-0.2-0.1-0.5-0.2-0.8
	c-0.4-1.3-1-2.8-1.6-4.5c-0.7-1.7-1.5-3.6-2.3-5.6c-0.4-1-0.9-2.1-1.4-3.2c-0.4-0.8-0.5-1.5-0.6-2.2c-0.1-0.7-0.2-1.4-0.3-2
	C80,47.1,80,44.3,80,41.3c0-1.5,0.1-3,0.2-4.5c0.1-0.8,0.1-1.6,0.2-2.4l0.1-0.6l0.1-0.4l0.1-0.3l0,0c-0.1,0-0.2-0.1-0.4-0.1
	c-0.4-0.1-1-0.1-1.6,0.1c-0.1,0-0.3,0.1-0.3,0.1c0,0-0.2,0.1-0.2,0.1l-0.2,0.1c-0.4,0.2-0.7,0.4-1.1,0.6c-0.7,0.4-1.5,0.8-2.3,1.2
	c-1.6,0.8-3.2,1.6-5.1,2.1c-0.9,0.3-1.9,0.5-3.1,0.6c-0.5,0-1.3,0-1.8-0.1c-0.5-0.1-0.9-0.2-1.4-0.2c-1.9-0.4-3.9-1-5.7-1.8
	c-0.5-0.2-0.9-0.4-1.3-0.7c-0.4-0.2-0.9-0.5-1.3-0.7c-1-0.6-1.9-1.3-2.7-2.1c-1.5-1.6-2.7-3.5-3.4-5.7c-0.2-0.5-0.3-1.1-0.4-1.7
	l-0.1-0.5l0-0.3l0-0.2l0-0.2l0-0.1l0-0.2l0-0.4c0.1-1.1,0.2-2.1,0.3-3c0.1-0.9,0.2-1.9,0.1-2.6c0-0.2,0-0.3-0.1-0.5
	c0-0.1,0-0.1,0-0.1c0,0,0,0,0,0c-0.1-0.2-0.3-0.3-0.5-0.5c-0.5-0.4-1.1-0.6-1.7-0.6c-0.3,0-0.7,0-1,0.1c-0.2,0-0.3,0.1-0.5,0.1
	c-0.2,0.1-0.3,0.1-0.5,0.2L44.1,16l-0.2,0.1l0,0c0,0-0.1,0,0,0l-0.6,0.3c-0.4,0.3-0.8,0.5-1.2,0.8c-0.8,0.5-1.6,1.1-2.4,1.8
	c-1.6,1.2-3.2,2.5-4.8,3.8c-1.6,1.3-3.3,2.6-4.9,3.9c-0.8,0.7-1.7,1.3-2.5,2l-1.3,1c-0.4,0.3-0.8,0.6-1.1,0.9
	c-0.7,0.6-1.3,1.2-1.7,1.9c-0.4,0.7-0.6,1.3-0.6,1.9c0,0.6,0.2,1.3,0.6,2c0.4,0.7,1,1.4,1.6,2.1c0.3,0.3,0.6,0.6,0.8,0.8h-5.3
	c-0.2-0.3-0.4-0.6-0.6-1c-0.6-1.1-1.1-2.5-1.1-4c0-1.5,0.5-2.9,1.2-4c0.7-1.1,1.6-2,2.5-2.8c0.5-0.4,0.9-0.7,1.3-1l1.2-1
	c0.8-0.6,1.6-1.3,2.4-1.9c1.6-1.3,3.3-2.6,4.9-3.9c1.6-1.3,3.3-2.6,4.9-3.9c0.8-0.6,1.7-1.3,2.6-1.9c0.4-0.3,0.9-0.6,1.4-0.9
	l0.8-0.4c0.1,0,0,0,0.2-0.1l0.1,0l0.2-0.1l0.3-0.2c0.3-0.1,0.6-0.2,1-0.4c0.3-0.1,0.6-0.2,1-0.2c0.7-0.1,1.3-0.2,2-0.1
	c1.4,0.1,2.7,0.6,3.9,1.4c0.6,0.4,1.1,0.9,1.5,1.6c0.1,0.1,0.1,0.3,0.2,0.4l0.1,0.3c0.1,0.2,0.1,0.4,0.2,0.6c0.1,0.4,0.1,0.7,0.1,1
	c0.1,1.2,0,2.3-0.1,3.3c-0.1,1-0.2,2-0.3,2.9l0,0.3l0,0.1l0,0.2l0,0.2c0,0,0,0.1,0,0.1c0,0.1,0,0.1,0,0.2c0.1,0.3,0.1,0.7,0.3,1.1
	c0.5,1.5,1.4,3,2.5,4.2c0.6,0.6,1.1,1,1.8,1.4c0.4,0.2,0.8,0.4,1.2,0.7c0.4,0.2,0.8,0.4,1.2,0.6c1.6,0.7,3.1,1.2,4.8,1.5
	c0.4,0.1,0.8,0.2,1.3,0.2c0.4,0.1,0.6,0.1,0.9,0c0.7,0,1.4-0.2,2.2-0.4c1.5-0.5,3-1.2,4.5-1.9c0.7-0.4,1.5-0.8,2.2-1.2
	c0.4-0.2,0.8-0.4,1.2-0.6l0.3-0.2c0.2-0.1,0.2-0.1,0.4-0.2c0.3-0.1,0.6-0.2,0.8-0.3c1.1-0.3,2.2-0.3,3.3-0.1
	c0.6,0.1,1.2,0.3,1.8,0.7c0.6,0.4,1.2,1,1.6,1.8c0.2,0.4,0.3,0.8,0.3,1.2c0,0.2,0,0.4,0,0.6l-0.1,0.4l-0.1,0.3l0,0.2l-0.1,0.5
	c-0.1,0.7-0.1,1.5-0.2,2.2c-0.1,1.5-0.2,2.9-0.2,4.3c-0.1,2.8,0,5.5,0.2,8c0.1,0.6,0.1,1.2,0.2,1.7c0.1,0.5,0.2,1,0.3,1.3
	c0.5,1.1,1,2.2,1.4,3.2c0.9,2.1,1.7,4,2.4,5.7c0.7,1.7,1.3,3.3,1.7,4.8c0.1,0.4,0.2,0.7,0.3,1.2c0,0.2,0.1,0.3,0.1,0.5
	c0.3,0,0.7,0.1,1.2,0.1c2,0.2,4.9,0.4,8.6,0.9c0.9,0.1,1.9,0.3,3,0.4c1.1,0.2,2.1,0.4,3.4,0.8c0.3,0.1,0.6,0.2,1,0.4
	c0.2,0.1,0.4,0.2,0.6,0.3c0.1,0.1,0.2,0.2,0.3,0.2l0.2,0.2l0.1,0.1c0.6,0.5,1,1.2,1.4,1.8c0.7,1.3,1.3,2.6,1.5,4.2
	C111.9,78.1,112,78.9,111.8,79.9z M48.7,16.7C48.7,16.7,48.7,16.7,48.7,16.7C48.7,16.7,48.7,16.7,48.7,16.7z M80.6,33
	C80.6,33,80.7,33,80.6,33C80.6,33,80.6,33,80.6,33L80.6,33z M14.6,46.2H27c1.3,1.3,2.5,2.7,3.8,4.1c1.4,1.6,2.8,3.1,4.3,4.6
	c0.7,0.8,1.4,1.5,2.2,2.3l0.6,0.6l0.6,0.6c0.5,0.5,1,0.9,1.6,1.2c1.2,0.7,2.5,1,3.7,1.2c1.1,0.2,2.2,0.2,3,0.4
	c0.9,0.1,1.6,0.4,2.2,0.7c0.3,0.2,0.6,0.4,0.9,0.6l0.3,0.3l0.2,0.2c0.1,0.2,0.3,0.3,0.4,0.5c0.7,0.8,1.3,1.8,1.9,2.9h4.5
	c-0.9-1.7-1.8-3.7-3.3-5.5c-0.2-0.2-0.4-0.4-0.6-0.7L53,60.1L53,60l-0.1-0.1l-0.3-0.3c-0.5-0.5-1-0.8-1.6-1.2
	c-1.1-0.7-2.4-1-3.6-1.2c-1.2-0.2-2.2-0.3-3.1-0.4c-0.9-0.1-1.6-0.3-2.2-0.7c-0.3-0.2-0.6-0.4-0.8-0.6L40.7,55l-0.5-0.6
	c-0.7-0.7-1.4-1.5-2.1-2.3c-1.4-1.5-2.8-3.1-4.3-4.6c-0.4-0.5-0.9-0.9-1.3-1.4h9.6c1.1,0,1.9-0.9,1.9-1.9s-0.9-1.9-1.9-1.9H14.6
	c-1.1,0-1.9,0.9-1.9,1.9S13.6,46.2,14.6,46.2z"/>
</svg>
