<?xml version="1.0" encoding="utf-8"?>
<!-- Generator: Adobe Illustrator 19.1.0, SVG Export Plug-In . SVG Version: 6.00 Build 0)  -->
<svg version="1.1" id="Capa_1" xmlns="http://www.w3.org/2000/svg" xmlns:xlink="http://www.w3.org/1999/xlink" x="0px" y="0px"
	 viewBox="-21 23 56 56" style="enable-background:new -21 23 56 56;" xml:space="preserve">
<style type="text/css">
	.st0{fill:#FDFDFD;}
</style>
<g>
	<path class="st0" d="M34.5,50.1l-4.8-2.8c-0.4-2.4-1.1-4.7-2.2-6.8l2.3-5.1c0.1-0.3,0.1-0.7-0.1-1c-0.2-0.3-0.6-0.4-0.9-0.4
		l-5.5,0.6c-1.7-1.7-3.6-3.1-5.8-4.2l-1.1-5.4c-0.1-0.4-0.3-0.6-0.7-0.7c-0.3-0.1-0.7,0-1,0.2l-4.1,3.7C9.4,28.1,8.2,28,7,28
		s-2.4,0.1-3.6,0.3l-4.1-3.7c-0.3-0.2-0.6-0.3-1-0.2c-0.3,0.1-0.6,0.4-0.7,0.7l-1.1,5.4c-2.1,1.1-4.1,2.5-5.8,4.2l-5.5-0.6
		c-0.4,0-0.7,0.1-0.9,0.4c-0.2,0.3-0.2,0.7-0.1,1l2.3,5.1c-1.1,2.1-1.8,4.4-2.2,6.8l-4.8,2.8c-0.3,0.2-0.5,0.5-0.5,0.9
		s0.2,0.7,0.5,0.9l4.8,2.8c0.4,2.4,1.1,4.7,2.2,6.8l-2.3,5.1c-0.1,0.3-0.1,0.7,0.1,1c0.2,0.3,0.6,0.4,0.9,0.4l5.5-0.6
		c1.7,1.7,3.6,3.1,5.8,4.2l1.1,5.4c0.1,0.3,0.3,0.6,0.7,0.7c0.3,0.1,0.7,0,1-0.2l4.1-3.7C4.6,73.9,5.8,74,7,74s2.4-0.1,3.6-0.3
		l4.1,3.7c0.2,0.2,0.4,0.3,0.7,0.3c0.1,0,0.2,0,0.3,0c0.3-0.1,0.6-0.4,0.7-0.7l1.1-5.4c2.1-1.1,4.1-2.5,5.8-4.2l5.5,0.6
		c0.4,0,0.7-0.1,0.9-0.4c0.2-0.3,0.2-0.7,0.1-1l-2.3-5.1c1.1-2.1,1.8-4.4,2.2-6.8l4.8-2.8c0.3-0.2,0.5-0.5,0.5-0.9
		S34.8,50.3,34.5,50.1z M27.4,46L25.5,45l0.9-1.9C26.8,44,27.1,45,27.4,46z M28,51c0,0.8-0.1,1.6-0.1,2.4l-4.1,2.4
		c-0.4,0.3-0.6,0.8-0.4,1.3l1.9,4.3c-0.8,1.4-1.8,2.7-2.8,3.9l-4.7-0.5c-0.5,0-1,0.3-1.1,0.8l-1,4.6c-1.4,0.7-3,1.2-4.5,1.5
		l-3.5-3.2c-0.2-0.2-0.4-0.3-0.7-0.3s-0.5,0.1-0.7,0.3l-3.5,3.2c-1.6-0.3-3.1-0.8-4.5-1.5l-1-4.6c-0.1-0.5-0.6-0.8-1.1-0.8l-4.7,0.5
		c-1.1-1.2-2-2.5-2.8-3.9l1.9-4.3c0.2-0.5,0-1-0.4-1.3l-4.1-2.4c-0.1-0.8-0.1-1.6-0.1-2.4s0.1-1.6,0.1-2.4l4.1-2.4
		c0.4-0.3,0.6-0.8,0.4-1.3l-1.9-4.3c0.8-1.4,1.8-2.7,2.8-3.9l4.7,0.5c0.5,0,1-0.3,1.1-0.8l1-4.6c1.4-0.7,3-1.2,4.5-1.5l3.5,3.2
		c0.4,0.3,1,0.3,1.3,0l3.5-3.2c1.6,0.3,3.1,0.8,4.5,1.5l1,4.6c0.1,0.5,0.6,0.8,1.1,0.8l4.7-0.5c1.1,1.2,2,2.5,2.8,3.9L23.4,45
		c-0.2,0.5,0,1,0.4,1.3l4.1,2.4C27.9,49.4,28,50.2,28,51z M26.3,38.5c-0.4-0.7-0.9-1.3-1.4-1.9l2.3-0.2L26.3,38.5z M20.6,35
		l-2.1,0.2L18,33.2C18.9,33.7,19.8,34.3,20.6,35z M14.7,27.2l0.5,2.3c-0.7-0.3-1.5-0.5-2.2-0.7L14.7,27.2z M7,30c0.5,0,1,0,1.6,0.1
		L7,31.5l-1.6-1.4C6,30,6.5,30,7,30z M-0.7,27.2L1,28.8c-0.8,0.2-1.5,0.4-2.2,0.7L-0.7,27.2z M-4,33.2l-0.4,2.1L-6.6,35
		C-5.8,34.3-4.9,33.7-4,33.2z M-13.2,36.3l2.3,0.2c-0.5,0.6-1,1.2-1.4,1.9L-13.2,36.3z M-12.4,43l0.9,1.9l-1.8,1.1
		C-13.1,45-12.8,44-12.4,43z M-18,51l2-1.2c0,0.4,0,0.8,0,1.2s0,0.8,0,1.2L-18,51z M-13.4,56l1.8,1.1l-0.9,1.9
		C-12.8,58-13.1,57-13.4,56z M-12.3,63.5c0.4,0.7,0.9,1.3,1.4,1.9l-2.3,0.2L-12.3,63.5z M-6.6,67l2.1-0.2l0.4,2.1
		C-4.9,68.3-5.8,67.7-6.6,67z M-0.7,74.8l-0.5-2.3c0.7,0.3,1.5,0.5,2.2,0.7L-0.7,74.8z M7,72c-0.5,0-1,0-1.6-0.1L7,70.5l1.6,1.4
		C8,72,7.5,72,7,72z M14.7,74.8L13,73.2c0.8-0.2,1.5-0.4,2.2-0.7L14.7,74.8z M18,68.8l0.4-2.1l2.1,0.2C19.8,67.7,18.9,68.3,18,68.8z
		 M27.2,65.7l-2.3-0.2c0.5-0.6,1-1.2,1.4-1.9L27.2,65.7z M26.4,59L25.5,57l1.8-1.1C27.1,57,26.8,58,26.4,59z M30,52.2
		c0-0.4,0-0.8,0-1.2s0-0.8,0-1.2l2,1.2L30,52.2z"/>
</g>
</svg>
