<?xml version="1.0" encoding="utf-8"?>
<!-- Generator: Adobe Illustrator 19.1.0, SVG Export Plug-In . SVG Version: 6.00 Build 0)  -->
<svg version="1.1" id="Layer_1" xmlns="http://www.w3.org/2000/svg" xmlns:xlink="http://www.w3.org/1999/xlink" x="0px" y="0px"
	 viewBox="202 -201.6 503.6 503.6" style="enable-background:new 202 -201.6 503.6 503.6;" xml:space="preserve">
<style type="text/css">
	.st0{fill:#FDFDFD;}
</style>
<g>
	<g>
		<g>
			<rect x="285.9" y="33.4" class="st0" width="100.7" height="184.7"/>
			<polygon class="st0" points="369.9,-10.5 369.9,-50.5 302.7,-50.5 302.7,-10.5 289.1,16.6 383.4,16.6 			"/>
			<path class="st0" d="M355-159.9l-10.7-35.7c-1.1-3.6-4.3-6-8-6c-3.7,0-7,2.4-8,6l-10.7,35.7c-9,30.1-13.8,61.2-14.5,92.6h66.5
				C368.8-98.7,364.1-129.8,355-159.9z"/>
			<path class="st0" d="M379.2,256.6c0.3-0.7,0.5-1.4,0.7-2.1l4.9-19.6h-97l4.9,19.6c0.2,0.7,0.5,1.4,0.7,2.1
				c-4.5,3.8-7.5,9.4-7.5,15.8v9c0,11.4,9.3,20.7,20.7,20.7H366c11.4,0,20.7-9.3,20.7-20.7v-9C386.7,266,383.7,260.4,379.2,256.6z"
				/>
			<polygon class="st0" points="604.9,56.6 604.9,16.6 537.7,16.6 537.7,56.6 524.2,83.8 618.5,83.8 			"/>
			<rect x="521" y="100.6" class="st0" width="100.7" height="117.5"/>
			<path class="st0" d="M590.1-92.8l-10.7-35.7c-1.1-3.6-4.3-6-8-6c-3.7,0-7,2.4-8,6l-10.7,35.7c-9,30.1-13.8,61.2-14.5,92.6h66.5
				C603.8-31.5,599.1-62.7,590.1-92.8z"/>
			<path class="st0" d="M614.2,256.6c0.3-0.7,0.5-1.4,0.7-2.1l4.9-19.6h-97l4.9,19.6c0.2,0.7,0.5,1.4,0.7,2.1
				c-4.5,3.8-7.5,9.4-7.5,15.8v9c0,11.4,9.3,20.7,20.7,20.7H601c11.4,0,20.7-9.3,20.7-20.7v-9C621.7,266,618.7,260.4,614.2,256.6z"
				/>
			<rect x="403.4" y="67" class="st0" width="100.7" height="151.1"/>
			<polygon class="st0" points="487.4,23 487.4,-17 420.2,-17 420.2,23 406.6,50.2 501,50.2 			"/>
			<path class="st0" d="M472.6-126.4L461.8-162c-1.1-3.5-4.3-6-8-6c-3.7,0-7,2.4-8,6L435-126.4c-9,30.1-13.8,61.2-14.5,92.6h66.5
				C486.3-65.1,481.6-96.2,472.6-126.4z"/>
			<path class="st0" d="M496.7,256.6c0.3-0.7,0.5-1.4,0.7-2.1l4.9-19.6h-97l4.9,19.6c0.2,0.7,0.5,1.4,0.7,2.1
				c-4.5,3.8-7.5,9.4-7.5,15.8v9c0,11.4,9.3,20.7,20.7,20.7h59.4c11.4,0,20.7-9.3,20.7-20.7v-9C504.2,266,501.2,260.4,496.7,256.6z"
				/>
		</g>
	</g>
</g>
</svg>
