<svg id="Layer_1" xmlns="http://www.w3.org/2000/svg" viewBox="0 0 100 100"><style>.st0{fill:#feffff}.st1{fill:#d43f5a}</style><path class="st0" d="M52 24h9.6v48H52zM88.4 24H98v48h-9.6z"/><path class="st1" d="M74.5 60c-2.7 0-4.8-2.2-4.8-4.8 0-2.7 2.2-4.8 4.8-4.8 2.7 0 4.8 2.2 4.8 4.8 0 2.7-2.1 4.8-4.8 4.8zM8.8 52.9C6.1 52.9 4 50.7 4 48s2.2-4.8 4.8-4.8c2.7 0 4.8 2.2 4.8 4.8 0 2.7-2.2 4.9-4.8 4.9z"/><path class="st0" d="M4 23.9h36v9.6H4zM4 62.3h36v9.6H4z"/><path class="st0" d="M4 55.2h9.6v16.7H4zM4 23.9h9.6v16.7H4zM52 62.4h15.9V72H52zM81.1 62.4h15.8V72H81.1z"/></svg>