<?xml version="1.0" encoding="utf-8"?>
<!-- Generator: Adobe Illustrator 19.1.0, SVG Export Plug-In . SVG Version: 6.00 Build 0)  -->
<svg version="1.1" id="Layer_1" xmlns="http://www.w3.org/2000/svg" xmlns:xlink="http://www.w3.org/1999/xlink" x="0px" y="0px"
	 viewBox="0 0 100 100" style="enable-background:new 0 0 100 100;" xml:space="preserve">
<style type="text/css">
	.st0{fill:#A4DAD5;}
	.st1{fill:#D43F5A;}
	.st2{fill:#A5DAD6;}
</style>
<rect x="52" y="24" class="st0" width="9.6" height="48"/>
<rect x="88.4" y="24" class="st0" width="9.6" height="48"/>
<path class="st1" d="M74.5,60L74.5,60c-2.7,0-4.8-2.2-4.8-4.8v0c0-2.7,2.2-4.8,4.8-4.8h0c2.7,0,4.8,2.2,4.8,4.8v0
	C79.3,57.9,77.2,60,74.5,60z"/>
<path class="st1" d="M8.8,52.9L8.8,52.9C6.1,52.9,4,50.7,4,48v0c0-2.7,2.2-4.8,4.8-4.8h0c2.7,0,4.8,2.2,4.8,4.8v0
	C13.6,50.7,11.4,52.9,8.8,52.9z"/>
<rect x="4" y="23.9" class="st2" width="36" height="9.6"/>
<rect x="4" y="62.3" class="st2" width="36" height="9.6"/>
<rect x="4" y="55.2" class="st2" width="9.6" height="16.7"/>
<rect x="4" y="23.9" class="st2" width="9.6" height="16.7"/>
<rect x="52" y="62.4" class="st2" width="15.9" height="9.6"/>
<rect x="81.1" y="62.4" class="st2" width="15.8" height="9.6"/>
</svg>
