<svg id="Layer_1" xmlns="http://www.w3.org/2000/svg" xmlns:xlink="http://www.w3.org/1999/xlink" viewBox="0 0 792 612"><style>.st1,.st2{clip-path:url(#SVGID_2_);fill:#95283d}.st2{fill:#92263b}.st3,.st4,.st5,.st6,.st7{clip-path:url(#SVGID_2_);fill:#8f253a}.st4,.st5,.st6,.st7{fill:#8b2338}.st5,.st6,.st7{fill:#882236}.st6,.st7{fill:#852034}.st7{fill:#811f33}.st25,.st27{clip-path:url(#SVGID_4_);fill:#99293f}.st27{fill:#92263b}.st49{clip-path:url(#SVGID_6_);fill:#95283d}.st50,.st51,.st52,.st53,.st54{clip-path:url(#SVGID_6_);fill:#92263b}.st51,.st52,.st53,.st54{fill:#8f253a}.st52,.st53,.st54{fill:#8b2338}.st53,.st54{fill:#882236}.st54{fill:#852034}.st57{clip-path:url(#SVGID_8_);fill:#95283d}.st61,.st62{clip-path:url(#SVGID_10_);fill:#ae9b55}.st62{fill:#a99753}.st63,.st64,.st65,.st66,.st67{clip-path:url(#SVGID_10_);fill:#a59451}.st64,.st65,.st66,.st67{fill:#a1904f}.st65,.st66,.st67{fill:#9d8d4d}.st66,.st67{fill:#99894b}.st67{fill:#958649}.st85,.st87{clip-path:url(#SVGID_12_);fill:#b29f58}.st87{fill:#a99753}.st109,.st110{clip-path:url(#SVGID_14_);fill:#ae9b55}.st110{fill:#a99753}.st111,.st112,.st113,.st114{clip-path:url(#SVGID_14_);fill:#a59451}.st112,.st113,.st114{fill:#a1904f}.st113,.st114{fill:#9d8d4d}.st114{fill:#99894b}.st117{clip-path:url(#SVGID_16_);fill:#ae9b55}.st121,.st122,.st123{clip-path:url(#SVGID_18_);fill:#ae9b55}.st122,.st123{fill:#a99753}.st123{fill:#a59451}.st124,.st125,.st126,.st127{clip-path:url(#SVGID_18_);fill:#a1904f}.st125,.st126,.st127{fill:#9d8d4d}.st126,.st127{fill:#99894b}.st127{fill:#958649}.st145,.st147{clip-path:url(#SVGID_20_);fill:#b29f58}.st147{fill:#a99753}.st169,.st170{clip-path:url(#SVGID_22_);fill:#ae9b55}.st170{fill:#a99753}.st171,.st172,.st173,.st174{clip-path:url(#SVGID_22_);fill:#a59451}.st172,.st173,.st174{fill:#a1904f}.st173,.st174{fill:#9d8d4d}.st174{fill:#99894b}.st177{clip-path:url(#SVGID_24_);fill:#ae9b55}.st183{fill:#484884}.st184{fill:#373568}.st185{fill:#56579c}.st186{fill:none}</style><path fill="#514995" d="M768.2 308.3L399 573.6 23.9 311 393.1 45.6z"/><g id="ball-red-1"><defs><path id="SVGID_1_" d="M-18.5-.1c0-.7 0-2.4.6-4.6.6-2.2 1.5-3.8 1.8-4.3.4-.7 1.1-1.6 1.6-2.3.3-.4.8-.9 1.1-1.3 1.3-1.3 1.3-1.3 2.4-2.1.7-.6 1.5-1 2.1-1.3 1-.5 4.4-2.3 9-2.3 2.4 0 4.1.5 5 .7.3.1 1.1.3 2.2.8.6.2 1.3.6 1.9.9 4.5 2.5 7.4 7.5 7.4 13.6 0 9.5-7.4 18.5-16.4 19.7-.1 0-.2-.1-.4 0-.1 0-.2.1-.1.1s.2.1.4 0c.1 0 .2-.1.1-.1 9-1.2 16.4-10.1 16.4-19.7 0-6-2.9-11-7.4-13.6.4.3 1.3.8 2.4 1.6.9.7.9.7 2.2 2 .8.8 2 2.5 2.6 3.7 1.1 2.2 1.5 3.4 1.9 5.5.1.5.4 2.8.2 4.9-.1.9-.2 1.7-.6 3-.3 1-.3 1-1.1 2.8-.4 1-1.4 2.7-2.6 4-2.4 2.9-5.6 4.9-9.1 5.9-2.7.8-5.5.9-8.3.4-2-.3-3.5-1-4-1.2-1.4-.6-2.7-1.4-3.5-2-1.2-.9-3.7-2.8-5.7-6.6-2-3.6-2.1-6.9-2.1-8.2z"/></defs><clipPath id="SVGID_2_"><use xlink:href="#SVGID_1_" overflow="visible"/></clipPath><path class="st1" d="M-18.5-.1c.1 9.2 6.1 14.8 11.7 17 6.9 2.7 14.9 1 20.1-4.3C21.6 4 19.6-9.8 9.2-15.9c4.5 2.5 7.4 7.5 7.4 13.6 0 9.5-7.4 18.5-16.4 19.7.1 0 0 .1-.1.1h-.4c-.1 0 0-.1.1-.1h.4c9-1.2 16.4-10.1 16.4-19.7 0-6-2.9-11-7.4-13.6C-4.4-23-18.7-12.7-18.5-.1"/><path class="st1" d="M16.6-2.3c0 8-5.2 15.5-12.1 18.5-.1.1-.3.2-.5.3-11.3 5.6-25.8-7.9-21.5-20 3.7-10.6 20-11 26.7 2.3 2.4 4.7 2.5 13.3-4.7 17.5 6.9-3 12.1-10.6 12.1-18.6 0-6-2.9-11-7.4-13.6-.3-.2-.7-.4-.9-.5-.4-.2-1-.5-1.4-.6l-.9-.2-.9-.3-.6-.2c-.2 0-.5-.1-.7-.2l-.5-.1h-.6l-.5-.1c-.1 0-.3 0-.5-.1H-2c-.1 0-.3 0-.5.1l-.6.1c-1.6.3-2.5.5-3.9 1.1l-1 .4c-1.2.6-1.3.7-2 1.1l-1 .7c-.4.4-1 .8-1.5 1.2l-1 .9c-.3.4-.8.9-1.1 1.3l-.8 1.1c-.3.4-.6 1-.8 1.4l-.6 1.3c-.2.4-.4 1-.6 1.5l-.4 1.4c-.1.5-.3 1.1-.3 1.5l-.2 1.4c0 .5-.1 1.1-.1 1.6l.1 1.5c.1.8.3 1.9.4 2.6l.4 1.4c.2.4.4 1 .5 1.5l.6 1.3c.2.4.5 1 .8 1.4l.8 1.1c.3.4.7.9 1 1.3l.9 1c.4.3.9.8 1.3 1.1l1 .8c.5.3 1.1.7 1.6 1l.9.5c.4.2 1 .5 1.4.6l.8.3.9.3.6.2c.2 0 .5.1.7.2l.5.1c.2 0 .4.1.5.1l.5.1c.1 0 .3 0 .5.1H2c.1 0 .3 0 .5-.1l.6-.3c1.2-.2 2.1-.4 3.7-1l.9-.4C8.9 16 9 16 9.8 15.5l1-.7c.4-.3 1-.8 1.5-1.2l1-.9c.3-.4.8-.9 1.1-1.3l.8-1.1c.3-.4.6-.9.9-1.4l.6-1.2c.2-.4.4-1 .6-1.5l.4-1.4c.1-.5.3-1.1.4-1.5l.2-1.4c0-.6.1-1.3.1-1.9l-.1-1.5c-.1-.5-.1-1.1-.2-1.6l-.3-1.4c-.1-.5-.3-1.1-.5-1.5L17-7.3l-.7-1.4-.7-1.2c-.3-.4-.6-.9-.9-1.3l-.9-1-1.2-1.2-1-.8c-1.3-1-1.4-1-2.4-1.6 4.5 2.5 7.4 7.5 7.4 13.5"/><path class="st2" d="M-18 4.1C-20.9-9-7.4-16 2.4-9.8 13-3.1 13.7 9.1 7.2 14.8c5.5-3.6 9.4-10.1 9.4-17 0-6-2.9-11-7.4-13.6-.3-.2-.7-.4-.9-.5-.4-.2-1-.5-1.4-.6l-.9-.3-.9-.3-.6-.2c-.2 0-.5-.1-.7-.2l-.5-.1h-.6l-.5-.1c-.1 0-.3 0-.5-.1H-2c-.1 0-.3 0-.5.1l-.6.1c-1.6.3-2.5.5-3.9 1.1l-1 .4c-1.2.6-1.3.7-2 1.1l-1 .7c-.4.4-1 .8-1.5 1.2l-1 .9c-.3.4-.8.9-1.1 1.3l-.8 1.1c-.3.4-.6 1-.8 1.4l-.6 1.3c-.2.4-.4 1-.6 1.5l-.4 1.4c-.1.5-.3 1.1-.3 1.5l-.2 1.4c0 .5-.1 1.1-.1 1.6l.1 1.5c0 .8.1 1.9.3 2.7l.4 1.3.4 1-.4-1.3c-.2-.3-.3-.7-.4-1"/><path class="st2" d="M16.6-2.3c0 6.9-3.9 13.5-9.4 17-.2.3-.4.5-.6.7-6.3 4.7-13 2-16.4 0 .5.3 1.1.6 1.6.9.4.2 1 .5 1.4.6l.8.3.9.3.6.2c.2 0 .5.1.7.2l.5.1c.2 0 .4.1.5.1l.5.1c.1 0 .3 0 .5.1H1.9c.1 0 .3 0 .5-.1l.7-.2c1.2-.2 2.1-.4 3.7-1l.9-.4C8.9 16 9 16 9.8 15.5l1-.7c.4-.3 1-.8 1.5-1.2l1-.9c.3-.4.8-.9 1.1-1.3l.8-1.1c.3-.4.6-.9.9-1.4l.6-1.2c.2-.4.4-1 .6-1.5l.4-1.4c.1-.5.3-1.1.4-1.5l.2-1.4c0-.6.1-1.3.1-1.9l-.1-1.5c-.1-.5-.1-1.1-.2-1.6l-.3-1.4c-.1-.5-.3-1.1-.5-1.5L17-7.3l-.7-1.4-.7-1.2c-.3-.4-.6-.9-.9-1.3l-.9-1-1.2-1.2-1-.8c-1.3-1-1.4-1-2.4-1.6 4.5 2.5 7.4 7.5 7.4 13.5"/><path class="st3" d="M-18.3 2.3C-19.7-13-3.3-16.4 5.3-8.8c8.3 7.4 8.2 16.7 3.9 22.1 4.4-3.7 7.4-9.5 7.4-15.6 0-6-2.9-11-7.4-13.6-.3-.2-.7-.4-.9-.5-.4-.2-1-.5-1.4-.6l-.9-.2-.9-.3-.6-.2c-.2 0-.5-.1-.7-.2l-.5-.1h-.6l-.5-.1c-.1 0-.3 0-.5-.1H-2c-.1 0-.3 0-.5.1l-.6.1c-1.6.3-2.5.5-3.9 1.1l-1 .4c-1.2.6-1.3.7-2 1.1l-1 .7c-.4.4-1 .8-1.5 1.2l-1 .9c-.3.4-.8.9-1.1 1.3l-.8 1.1c-.3.4-.6 1-.8 1.4l-.6 1.3c-.2.4-.4 1-.6 1.5l-.4 1.4c-.1.5-.3 1.1-.3 1.5l-.2 1.4c0 .5-.1 1.1-.1 1.6l.1 1.5.2 1.3-.2-.4"/><path class="st3" d="M16.6-2.3c0 6-3 11.8-7.4 15.6-.2.2-.4.5-.6.8-5 5.2-10.9 4.5-15 3.1l.8.3.5.1.6.2c.2 0 .5.1.7.2l.5.1c.2 0 .4.1.5.1l.5.1c.1 0 .3 0 .5.1H1.9c.1 0 .3 0 .5-.1l.7-.3c1.2-.2 2.1-.4 3.7-1l.9-.4C8.9 16 9 16 9.8 15.5l1-.7c.4-.3 1-.8 1.5-1.2l1-.9c.3-.4.8-.9 1.1-1.3l.8-1.1c.3-.4.6-.9.9-1.4l.6-1.2c.2-.4.4-1 .6-1.5l.4-1.4c.1-.5.3-1.1.4-1.5l.2-1.4c0-.6.1-1.3.1-1.9l-.1-1.5c-.1-.5-.1-1.1-.2-1.6l-.3-1.4c-.1-.5-.3-1.1-.5-1.5L17-7.3l-.7-1.4-.7-1.2c-.3-.4-.6-.9-.9-1.3l-.9-1-1.2-1.2-1-.8c-1.3-1-1.4-1-2.4-1.6 4.5 2.5 7.4 7.5 7.4 13.5"/><path class="st4" d="M-17.8-4.5c3.7-11.3 20.6-13.1 28.2.2 4.3 7.6 1.8 13.6.6 15.9 3.4-3.7 5.6-8.7 5.6-13.9 0-6-2.9-11-7.4-13.6-.3-.2-.7-.4-.9-.5-.4-.2-1-.5-1.4-.6l-.9-.2-.9-.3-.6-.2c-.2 0-.5-.1-.7-.2l-.5-.1h-.6l-.5-.1c-.1 0-.3 0-.5-.1H-2c-.1 0-.3 0-.5.1l-.6.1c-1.6.3-2.5.5-3.9 1.1l-1 .4c-1.2.6-1.3.7-2 1.1l-1 .7c-.4.4-1 .8-1.5 1.2l-1 .9c-.3.4-.8.9-1.1 1.3l-.8 1.1c-.3.4-.6 1-.8 1.4l-.6 1.3c-.2.4-.4 1-.6 1.5l-.4 1.4c-.1.5-.3 1.1-.3 1.5l-.2 1.4-.1 1.4.1-1.3c.1-1.5.2-1.9.5-2.9"/><path class="st4" d="M16.6-2.3c0 5.2-2.2 10.2-5.6 13.9-.1.2-.2.5-.3.7-1.3 2.1-5.3 7-13.4 5.7l.5.1c.1 0 .3 0 .5.1H2c.1 0 .3 0 .5-.1l.6-.1c1.2-.2 2.1-.4 3.7-1l.9-.4C8.9 16 9 16 9.8 15.5l1-.7c.4-.3 1-.8 1.5-1.2l1-.9c.3-.4.8-.9 1.1-1.3l.8-1.1c.3-.4.6-.9.9-1.4l.6-1.2c.2-.4.4-1 .6-1.5l.4-1.4c.1-.5.3-1.1.4-1.5l.2-1.4c0-.6.1-1.3.1-1.9l-.1-1.5c-.1-.5-.1-1.1-.2-1.6l-.3-1.4c-.1-.5-.3-1.1-.5-1.5L17-7.3l-.7-1.4-.7-1.2c-.3-.4-.6-.9-.9-1.3l-.9-1-1.2-1.2-1-.8c-1.3-1-1.4-1-2.4-1.6 4.5 2.5 7.4 7.5 7.4 13.5"/><path class="st5" d="M-17.9-4.6c4-13.3 21.9-13 29.4.5 2.5 4.4 2.8 9.2 1 13.8 2.5-3.4 4.1-7.7 4.1-12 0-6-2.9-11-7.4-13.6-.3-.2-.7-.4-.9-.5-.4-.2-1-.5-1.4-.6l-.9-.2-.9-.3-.6-.2c-.2 0-.5-.1-.7-.2l-.5-.1h-.6l-.5-.1c-.1 0-.3 0-.5-.1H-2c-.1 0-.3 0-.5.1l-.6.1c-1.6.3-2.5.5-3.9 1.1l-1 .4c-1.2.6-1.3.7-2 1.1l-1 .7c-.4.4-1 .8-1.5 1.2l-1 .9c-.3.4-.8.9-1.1 1.3l-.8 1.1c-.3.4-.6 1-.8 1.4l-.6 1.3c-.2.4-.4 1-.6 1.5l-.5 1.4c-.1.4-.2.9-.3 1.4l.3-1.3v-.1"/><path class="st5" d="M16.6-2.3c0 4.4-1.6 8.6-4.1 12-.1.3-.2.7-.4 1C10 15.3 5.9 18 1 18.2h1.1c.1 0 .3 0 .5-.1l.5-.1c1.2-.2 2.1-.4 3.7-1l.9-.4C8.9 16 9 16 9.8 15.5l1-.7c.4-.3 1-.8 1.5-1.2l1-.9c.3-.4.8-.9 1.1-1.3l.8-1.1c.3-.4.6-.9.9-1.4l.6-1.2c.2-.4.4-1 .6-1.5l.4-1.4c.1-.5.3-1.1.4-1.5l.2-1.4c0-.6.1-1.3.1-1.9l-.1-1.5c-.1-.5-.1-1.1-.2-1.6l-.3-1.4c-.1-.5-.3-1.1-.5-1.5L17-7.3l-.7-1.4-.7-1.2c-.3-.4-.6-.9-.9-1.3l-.9-1-1.2-1.2-1-.8c-1.3-1-1.4-1-2.4-1.6 4.5 2.5 7.4 7.5 7.4 13.5"/><path class="st6" d="M-16.8-7.6c6.7-12.9 25.8-7.5 30.2 5.3 1.2 3.5 1.3 6.5.5 9.9 1.7-3 2.7-6.4 2.7-9.8 0-6-2.9-11-7.4-13.6-.3-.2-.7-.4-.9-.5-.4-.2-1-.5-1.4-.6l-.9-.3-.9-.3-.6-.2c-.2 0-.5-.1-.7-.2l-.5-.1h-.6l-.5-.1c-.1 0-.3 0-.5-.1H-2c-.1 0-.3 0-.5.1l-.6.1c-1.6.3-2.5.5-3.9 1.1l-1 .4c-1.2.6-1.3.7-2 1.1l-1 .7c-.4.4-1 .8-1.5 1.2l-1 .9c-.3.4-.8.9-1.1 1.3l-.8 1.1c-.3.4-.6 1-.8 1.4l-.6 1.3c-.2.4-.4 1-.6 1.4l.5-1.1c0-.1.1-.3.1-.4"/><path class="st6" d="M16.6-2.3c0 3.5-1 6.9-2.7 9.8-.1.3-.1.8-.2 1.1-1.2 4.5-5.1 8.1-9.8 9.2l.7-.2c.8-.2 1.3-.4 2.3-.7l.9-.4c1.2-.6 1.3-.6 2.1-1.1l1-.7c.4-.3 1-.8 1.5-1.2l1-.9c.3-.4.8-.9 1.1-1.3l.8-1.1c.3-.4.6-.9.9-1.4l.6-1.2c.2-.4.4-1 .6-1.5l.4-1.4c.1-.5.3-1.1.4-1.5l.2-1.4c0-.6.1-1.3.1-1.9l-.1-1.5c-.1-.5-.1-1.1-.2-1.6l-.3-1.4c-.1-.5-.3-1.1-.5-1.5L17-7.3l-.7-1.4-.7-1.2c-.3-.4-.6-.9-.9-1.3l-.9-1-1.2-1.2-1-.8c-1.3-1-1.4-1-2.4-1.6 4.5 2.5 7.4 7.5 7.4 13.5"/><path class="st7" d="M-13.6-12.2c12-10.9 29.4 2.7 29 15 0 .6-.1 1.4-.2 2 .9-2.2 1.3-4.6 1.4-7.1 0-6-2.9-11-7.4-13.6-.3-.2-.7-.4-.9-.5-.4-.2-1-.5-1.4-.6l-.9-.2-.9-.3-.6-.2c-.2 0-.5-.1-.7-.2l-.5-.1h-.6l-.5-.1c-.1 0-.3 0-.5-.1H-2c-.1 0-.3 0-.5.1l-.6.1c-1.6.3-2.5.5-3.9 1.1l-1 .4c-1.2.6-1.3.7-2 1.1l-1 .7c-.4.4-1 .8-1.5 1.2l-1 .9c-.3.4-.8.9-1.1 1.3l-.8 1.1-.2.3.6-.8c.8-.9 1-1.1 1.4-1.5"/><path class="st7" d="M16.6-2.3c0 2.4-.5 4.8-1.4 7.1v1c-.8 6.7-5.2 9.7-7.8 10.9l.9-.4c.4-.2 1-.6 1.5-.8l1-.7c.4-.3 1-.8 1.5-1.2l1-.9c.3-.4.8-.9 1.1-1.3l.8-1.1c.3-.4.6-.9.9-1.4l.6-1.2c.2-.4.4-1 .6-1.5l.4-1.4c.1-.5.3-1.1.4-1.5l.2-1.4c0-.6.1-1.3.1-1.9l-.1-1.5c-.1-.5-.1-1.1-.2-1.6l-.3-1.4c-.1-.5-.3-1.1-.5-1.5L17-7.3l-.7-1.4-.7-1.2c-.3-.4-.6-.9-.9-1.3l-.9-1-1.2-1.2-1-.8c-1.3-1-1.4-1-2.4-1.6 4.5 2.5 7.4 7.5 7.4 13.5"/><path d="M-1.3 17.5C11 16.7 13.4 1.9 5.1-5.9-5.4-15.8-18.7-9.3-18.1 2c.4 8.7 8.4 16.1 16.8 15.5" clip-path="url(#SVGID_2_)" fill="#99293f"/><path d="M-4.4 17.2c10.2 1.5 19.2-10 9.5-21.9C-1-12.2-16-12.5-17.8-.3-18.9 7.6-12.6 16-4.4 17.2" clip-path="url(#SVGID_2_)" fill="#9c2a40"/><path d="M-5.5 16.8c10.7 2.4 18-9.1 11.7-18.6-8.1-12.3-22-8.2-23.7 1.2-1.4 7.7 4.1 15.6 12 17.4" clip-path="url(#SVGID_2_)" fill="#a02c42"/><path d="M-8.3 15.7c9.2 3.8 20-2.9 14.6-16C6.3-.4 2.9-8-6-8.7c-5.4-.5-9.3 3-10.6 6.5-3 7.3 2 15.3 8.3 17.9" clip-path="url(#SVGID_2_)" fill="#a32d44"/><path d="M-8.3 15.5C1 19.4 10.4 11.8 6 .9c-4.1-10-18.1-12.2-22.1-3.5-3.4 7.4 1.3 15.3 7.8 18.1" clip-path="url(#SVGID_2_)" fill="#a72f46"/><path d="M-8.2 15.2C.7 18.7 9.6 11.2 5.1.8 1.3-8.1-12.2-11.1-16-1.7c-2.9 7.2 1.7 14.3 7.8 16.9" clip-path="url(#SVGID_2_)" fill="#aa3047"/><path d="M-11.3 13.2c10.4 7 18.7-1.5 16.6-9.9C2.8-6.7-11.1-10.3-15.4-2c-3.9 7.6 2.4 14 4.1 15.2" clip-path="url(#SVGID_2_)" fill="#ad3149"/><path d="M-7.7 14.8C.5 17.6 7.7 9.7 3.9 2 .7-4.6-4.3-5.7-6.3-5.9c-4.5-.4-8.1 1.9-9.5 6.1-1.6 5 1 11.8 8.1 14.6" clip-path="url(#SVGID_2_)" fill="#b1334a"/><path d="M-11.1 12.6c3.9 3 8.2 2.6 10.1 1.7 1.3-.7 5.6-3.3 4.9-9.1C2.8-3.9-8.8-8.7-13.8-2.2c-5.9 7.8 2.6 14.7 2.7 14.8" clip-path="url(#SVGID_2_)" fill="#b4344c"/><path d="M-10.9 12.3c5.1 3.6 9.2 1.7 10.3 1 2.1-1.2 4.3-3.7 3.5-9-1.1-7.2-12-12-16.6-5.5-1.5 2-4.1 7.4 2.8 13.5" clip-path="url(#SVGID_2_)" fill="#b8354e"/><path d="M-10.5 12.1s5 3.5 9.2.8l2.6-2.6c1.1-3 1.1-3 .6-6.1C1.6 1.7-.3-.3-1.2-1c-.5-.5-1.3-1.2-5.1-2.3 0 0-4.6-.9-7.3 3.1-2.2 3.2-1.7 8.9 3.1 12.3" clip-path="url(#SVGID_2_)" fill="#bb364f"/><path d="M-10 11.9c1 .7 5.1 2.1 6.9 1.1 1.9-1.1 5.2-2.9 4.4-7.4C1 3.8.8 3 .8 3c-.2-.4-3.1-4-3.2-4-3.5-1.5-3.5-1.5-5.2-1.4-2 .1-3.3.2-5.1 2C-14 .9-16.6 7.2-10 11.9" clip-path="url(#SVGID_2_)" fill="#be3751"/><path d="M-10.9 10.4c2.8 2.6 5.6 2.4 7.5 1.8 0 0 1.9-.8 2.7-1.9L.6 6.8C.6 6.7-.2 3-.3 3-1.4 1.3-2.4.1-4.4-.9c-1-.5-1.8-.9-5.3-.4-.2 0-2.2 1.3-2.5 1.6-.1 0-4.1 5.1 1.3 10.1" clip-path="url(#SVGID_2_)" fill="#c23952"/><path d="M-8.5 11.3c.6.3 2.7.5 2.8.5l2-.4 1.6-1c.9-1 1.5-3.5 1.5-3.5L-1.5 3C-2.2 1.7-6.1-.5-6.1-.5c-.9-.1-3.3 0-3.6.1-.7.3-2.6 2.6-2.6 2.6-.1.3-.7 2.3-.7 2.5 0 0 .2 1.6 1.2 3.8 0 .1 3.1 2.7 3.3 2.8" clip-path="url(#SVGID_2_)" fill="#c53a54"/><path d="M-9.1 9.9s1.8 1 2.9 1.1l2.2-.5c.2-.2.3-.6.5-.8.3-.6.8-1.3 1.2-1.7.2-.3.7-.7.6-1.1-.4-1.9-1.2-3.8-1.2-3.8 0-.1-2.9-2-3-2h-3.5c-.1 0-1.7 1.5-2.4 2.6-.7 1 .9 4.5.9 4.6.3.5 1.1 1.2 1.8 1.6" clip-path="url(#SVGID_2_)" fill="#c83b55"/><path d="M-7 9.4l2.4-.7c.5-.4 1-1.1 1.1-1.7l-1.4-3.8c-.2-.2-.5-.6-.9-.6h-3.4c-.5.2-1.2.8-1.4 1.4-.1.3.3 3.7.5 3.9L-7 9.4" clip-path="url(#SVGID_2_)" fill="#cc3c57"/><path d="M-7.7 7.5c.2 0 .4-.1.5-.2-.2-.1-.5-.3-.8-.4 0 .2 0 .4.1.6h.2" clip-path="url(#SVGID_2_)" fill="#cf3d58"/><g><defs><path id="SVGID_3_" d="M-9.2 15.8c-.7-.4-1.3-.8-2.6-1.8-.6-.5-1.4-1.3-1.9-1.8-.7-.7-2.1-2.5-2.7-3.9-.7-1.5-.8-1.7-1.2-2.8-.4-1.4-.6-2.2-.7-2.9-.1-.8-.2-1.9-.2-2.7 0-.9.1-2.1.2-2.9.1-.9.7-3.1 1.3-4.4.8-1.7.8-1.7 1.4-2.6.8-1.2 1.4-1.9 1.8-2.3 1.3-1.5 4.2-4.1 8.7-5.3 1.6-.4 4.2-.9 7.2-.5 3.6.4 5.9 1.7 6.9 2.3-2.4-1.5-5.6-2.2-9-1.7 3.4-.5 6.5.2 9.2 1.7.6.4 1.5.9 2.1 1.4.4.3 1.4 1.1 2.2 2 1.8 2 2.5 3.2 3.4 5 .8 1.7 1.3 3.8 1.3 4.4.2 1.8.3 1.9.3 3.1 0 .9-.1 2-.2 2.9-.2 1.2-.7 3.2-1.4 4.6-.6 1.3-.8 1.6-1.4 2.6-.6.8-1.2 1.6-1.8 2.3-2.6 2.7-5.8 4.6-9.4 5.4-2.3.5-4.6.6-6.9.3-3.2-.6-5.5-1.7-6.6-2.4z"/></defs><clipPath id="SVGID_4_"><use xlink:href="#SVGID_3_" overflow="visible"/></clipPath><path class="st25" d="M-9.2 15.8C-12.4 14-19.7 8.4-18.3-3c.6-4.6 4.6-12.2 13.3-14.6 3.3-.9 8.5-1.3 14.1 1.8C6.6-17.3 3.4-18 0-17.5c3.4-.5 6.5.2 9.2 1.7 9.8 6 9.6 15.1 9.1 18.7-.9 5.8-5.6 12.9-14.1 14.8-4.6 1.1-9.4.4-13.4-1.9"/><path class="st25" d="M9.2-15.8c.9.5 2 1.2 3.3 2.4l1 .9c.3.4.8.9 1.1 1.3l.8 1.1c.3.4.6 1 .8 1.4l.6 1.3c.2.4.4 1 .6 1.5l.4 1.4c.1.5.3 1.1.3 1.5l.2 1.4c0 .5.1 1.1.1 1.6l-.1 1.5c-.1.6-.2 1.3-.3 1.8l-.3 1.4c-.1.4-.3 1-.5 1.5l-.5 1.3-.7 1.4-.7 1.2c-.3.4-.7.9-1 1.3l-.9 1-1.2 1.2-1 .8c-.5.3-1.1.8-1.5 1.1l-.8.5c-1.2.6-1.3.7-2.1 1l-.7.2c-.9.3-1.9.6-3.7.9h-4.6c-.1 0-.3 0-.5-.1h-.6c-.2 0-.4-.1-.5-.1l-.6-.1c-.2-.1-.5-.1-.7-.2l-.8-.2c-.3-.1-.7-.2-.9-.3l-.9-.4-1.4-.7-1-.6c-.5-.3-1.1-.8-1.6-1.2l-1-.9c-.4-.4-.8-.9-1.2-1.2l-.9-1.1c-.3-.4-.7-.9-.9-1.3l-.7-1.2-.7-1.4-.5-1.3c-.1-.5-.3-1.1-.4-1.5l-.3-1.4c-.1-.8-.2-1.9-.2-2.7l.1-1.5c.1-.5.1-1.1.2-1.6l.3-1.4c.1-.5.3-1.1.5-1.5l.5-1.3.7-1.4.7-1.2c.3-.4.6-.9.9-1.3l.9-1 1.2-1.2 1-.8c.5-.3 1.1-.8 1.5-1.1l.9-.6c1.2-.6 1.3-.7 2.1-1l.7-.3c1-.3 2-.7 3.8-.9l.5-.1H2.2c.1 0 .3 0 .5.1l.5-.1c.2 0 .4.1.6.1l.6.1c.2.1.5.1.7.2l.8.2c.3.1.7.2.9.3l.9.4c.5.4 1.1.6 1.5.9C6.6-17.3 3.4-18 0-17.5-15.7-12.7-10.4 3.4-1.3 8.7c10.6 6.2 22-2 19-13.6C16.2-10.6 12-17.3 0-17.5c3.4-.5 6.6.2 9.2 1.7"/><path d="M9.2-15.8c.9.5 2 1.2 3.3 2.4l1 .9c.3.4.8.9 1.1 1.3l.8 1.1c.3.4.6 1 .8 1.4l.6 1.3c.2.4.4 1 .6 1.5l.4 1.4c.1.5.3 1.1.3 1.5l.2 1.4c0 .5.1 1.1.1 1.6l-.1 1.5c-.1.6-.2 1.3-.3 1.8l-.3 1.4c-.1.4-.3 1-.5 1.5l-.5 1.3-.7 1.4-.7 1.2c-.3.4-.7.9-1 1.3l-.9 1-1.2 1.2-1 .8c-.5.3-1.1.8-1.5 1.1l-.8.5c-1.2.6-1.3.7-2.1 1l-.7.2c-.9.3-1.9.6-3.7.9h-4.6c-.1 0-.3 0-.5-.1h-.6c-.2 0-.4-.1-.5-.1l-.6-.1c-.2-.1-.5-.1-.7-.2l-.8-.2c-.3-.1-.7-.2-.9-.3l-.9-.4-1.4-.7-1-.6c-.5-.3-1.1-.8-1.6-1.2l-1-.9c-.4-.4-.8-.9-1.2-1.2l-.9-1.1c-.3-.4-.7-.9-.9-1.3l-.7-1.2-.7-1.4-.5-1.3c-.1-.5-.3-1.1-.4-1.5l-.3-1.4c-.1-.8-.2-1.9-.2-2.7l.1-1.5c.1-.5.1-1.1.2-1.6l.3-1.4c.1-.5.3-1.1.5-1.5l.5-1.3.7-1.4.7-1.2c.3-.4.6-.9.9-1.3l.9-1 1.2-1.2 1-.8c.5-.3 1.1-.8 1.5-1.1l.9-.6c1.2-.6 1.3-.7 2.1-1l.7-.3c1-.3 2-.7 3.8-.9l.5-.1H2.2c.1 0 .3 0 .5.1l.5-.1c.2 0 .4.1.6.1l.6.1c.2.1.5.1.7.2l.8.2c.3.1.7.2.9.3l.9.4c.5.4 1.1.6 1.5.9-1-.6-2-1-3.1-1.3-.3-.1-.8-.2-1.1-.3-14.1-2.7-19.9 12-12.1 22.1C1 15.2 16.4 13 18.2 1c1.1-7.6-4.3-15.7-12.1-18.1 1.1.3 2.1.7 3.1 1.3" clip-path="url(#SVGID_4_)" fill="#95283d"/><path class="st27" d="M17.5-6c.2.6.5 1.5.8 2.9l.2 1.4c0 .5.1 1.1.1 1.6l-.1 1.5c-.1.6-.2 1.3-.3 1.8l-.3 1.4c-.1.4-.3 1-.5 1.5l-.5 1.3-.7 1.4-.7 1.2c-.3.4-.7.9-1 1.3l-.9 1-1.2 1.2-1 .8c-.5.3-1.1.8-1.5 1.1l-1 .6c-1.2.6-1.3.7-2.1 1l-.7.2c-.9.3-1.9.6-3.7.9h-4.6c-.1 0-.3 0-.5-.1h-.6c-.2 0-.4-.1-.5-.1l-.6-.1c-.2-.1-.5-.1-.7-.2l-.8-.2c-.3-.1-.7-.2-.9-.3l-.9-.4-1.4-.7-1-.6c-.5-.3-1.1-.8-1.6-1.2l-1-.9c-.4-.4-.8-.9-1.2-1.2l-.9-1.1c-.3-.4-.7-.9-.9-1.3l-.7-1.2-.7-1.4-.5-1.3c-.1-.5-.3-1.1-.4-1.5l-.3-1.4c-.1-.8-.2-1.9-.2-2.7l.1-1.5c.1-.5.1-1.1.2-1.6l.3-1.4c.1-.5.3-1.1.5-1.5l.5-1.3.7-1.4.7-1.2c.3-.4.6-.9.9-1.3l.9-1 1.2-1.2 1-.8c.5-.3 1.1-.8 1.5-1.1l.9-.6c1.2-.6 1.3-.7 2.1-1l.7-.3c1-.3 2-.7 3.8-.9l.5-.1H2.2c.1 0 .3 0 .5.1l.5-.1c.2 0 .4.1.6.1l.6.1c.2.1.5.1.7.2l.8.2c.3.1.7.2.9.3l.9.4 1.4.7c0 .1-.2 0-.3 0-.3-.2-.8-.4-1.1-.5C-5.2-22-14.5-11-10.5 0-6 13 11.2 16.6 16.8 5.8c2-3.8 2.1-7.7.5-12.3.1.2.1.4.2.5"/><path class="st27" d="M9.2-15.8c.3.2.7.4 1 .6-.3-.2-.8-.5-1.1-.7l-.3-.1c.1 0 .3.1.4.2"/><path d="M18.5 0c-.1 1.9-.1 2-.3 3.3l-.3 1.4c-.1.4-.3 1-.5 1.5l-.5 1.3-.7 1.4-.7 1.2c-.3.4-.7.9-1 1.3l-.9 1-1.2 1.2-1 .8c-.5.3-1.1.8-1.5 1.1l-1 .5c-1.2.6-1.3.7-2.1 1l-.7.2c-.9.3-1.9.6-3.7.9h-4.6c-.1 0-.3 0-.5-.1h-.6c-.2 0-.4-.1-.5-.1l-.6-.1c-.2-.1-.5-.1-.7-.2l-.8-.2c-.3-.1-.7-.2-.9-.3l-.9-.4-1.4-.7-1-.6c-.5-.3-1.1-.8-1.6-1.2l-1-.9c-.4-.4-.8-.9-1.2-1.2l-.9-1.1c-.3-.4-.7-.9-.9-1.3l-.7-1.2-.7-1.4-.5-1.3c-.1-.5-.3-1.1-.4-1.5l-.3-1.4c-.1-.8-.2-1.9-.2-2.7l.1-1.5c.1-.5.1-1.1.2-1.6l.3-1.4c.1-.5.3-1.1.5-1.5l.5-1.3.7-1.4.7-1.2c.3-.4.6-.9.9-1.3l.9-1 1.2-1.2 1-.8c.5-.3 1.1-.8 1.5-1.1l.9-.6c1.2-.6 1.3-.7 2.1-1l.7-.3c1-.3 2-.7 3.8-.9l.5-.1H2.2c.1 0 .3 0 .5.1l.5-.1c.2 0 .4.1.6.1l.6.1c.2.1.5.1.7.2l.8.2.5.2-.2-.1c-12.4-4-23.3 6.8-15.8 20.9 5.2 9.9 22.7 13.8 27.4.5.7-2.1.9-4.4.6-7l.2 1.5-.1 1.4" clip-path="url(#SVGID_4_)" fill="#8f253a"/><path d="M18.2 3.3c-.4 1.9-.4 1.9-.8 2.9l-.5 1.3-.7 1.4-.7 1.2c-.3.4-.7.9-1 1.3l-.9 1-1.2 1.2-1 .8c-.5.3-1.1.8-1.5 1.1l-1 .5c-1.2.6-1.3.7-2.1 1l-.7.2c-.9.3-1.9.6-3.7.9h-4.6c-.1 0-.3 0-.5-.1h-.6c-.2 0-.4-.1-.5-.1l-.6-.1c-.2-.1-.5-.1-.7-.2l-.8-.2c-.3-.1-.7-.2-.9-.3l-.9-.4-1.4-.7-1-.6c-.5-.3-1.1-.8-1.6-1.2l-1-.9c-.4-.4-.8-.9-1.2-1.2l-.9-1.1c-.3-.4-.7-.9-.9-1.3l-.7-1.2-.7-1.4-.5-1.3c-.1-.5-.3-1.1-.4-1.5l-.3-1.4c-.1-.8-.2-1.9-.2-2.7l.1-1.5c.1-.5.1-1.1.2-1.6l.3-1.4c.1-.5.3-1.1.5-1.5l.5-1.3.7-1.4.7-1.2c.3-.4.6-.9.9-1.3l.9-1 1.2-1.2 1-.8c.5-.3 1.1-.8 1.5-1.1l.9-.6c1.2-.6 1.3-.7 2.1-1l.7-.3c1-.3 2-.7 3.8-.9l.5-.1H2.2c.1 0 .3 0 .5.1-12.6-1.8-21.1 12-11.4 24.5C-.7 17 16.6 16 18.4 2c.1-.5.1-1.2.1-1.7l-.1 1.5c-.1.4-.1 1.1-.2 1.5" clip-path="url(#SVGID_4_)" fill="#8b2338"/><path d="M18.2 3.3c-.2.8-.3 1.6-.8 2.9l-.5 1.3-.7 1.4-.7 1.2c-.3.4-.7.9-1 1.3l-.9 1-1.2 1.2-1 .8c-.5.3-1.1.8-1.5 1.1l-1 .5c-1.2.6-1.3.7-2.1 1l-.7.2c-.9.3-1.9.6-3.7.9h-4.6c-.1 0-.3 0-.5-.1h-.6c-.2 0-.4-.1-.5-.1l-.6-.1c-.2-.1-.5-.1-.7-.2l-.8-.2c-.3-.1-.7-.2-.9-.3l-.9-.4-1.4-.7-1-.6c-.5-.3-1.1-.8-1.6-1.2l-1-.9c-.4-.4-.8-.9-1.2-1.2l-.9-1.1c-.3-.4-.7-.9-.9-1.3l-.7-1.2-.7-1.4-.5-1.3c-.1-.5-.3-1.1-.4-1.5l-.3-1.4c-.1-.8-.2-1.9-.2-2.7l.1-1.5c.1-.5.1-1.1.2-1.6l.3-1.4c.1-.5.3-1.1.5-1.5l.5-1.3.7-1.4.7-1.2c.3-.4.6-.9.9-1.3l.9-1 1.2-1.2 1-.8c.5-.3 1.1-.8 1.5-1.1l.9-.6c1.2-.6 1.3-.7 2.1-1l.7-.3c1-.3 2-.7 3.8-.9l.5-.1h1.2-.4c-13.3 1-17 18-6.1 27.5C3.5 18.9 16.2 14 18.1 3.3h.1" clip-path="url(#SVGID_4_)" fill="#882236"/><path d="M17.4 6.2c-.3.7-.6 1.5-1.3 2.7l-.7 1.2c-.3.4-.7.9-1 1.3l-.9 1-1.2 1.2-1 .8c-.5.3-1.1.8-1.5 1.1l-.9.5c-1.2.6-1.3.7-2.1 1l-.7.2c-.9.3-1.9.6-3.7.9h-4.6c-.1 0-.3 0-.5-.1h-.6c-.2 0-.4-.1-.5-.1l-.6-.1c-.2-.1-.5-.1-.7-.2l-.8-.2c-.3-.1-.7-.2-.9-.3l-.9-.4-1.4-.7-1-.6c-.5-.3-1.1-.8-1.6-1.2l-1-.9c-.4-.4-.8-.9-1.2-1.2l-.9-1.1c-.3-.4-.7-.9-.9-1.3l-.7-1.2-.7-1.4-.5-1.3c-.1-.5-.3-1.1-.4-1.5l-.3-1.4c-.1-.8-.2-1.9-.2-2.7l.1-1.5c.1-.5.1-1.1.2-1.6l.3-1.4c.1-.5.3-1.1.5-1.5l.5-1.3.7-1.4.7-1.2c.3-.4.6-.9.9-1.3l.9-1 1.2-1.2 1-.8c.5-.3 1.1-.8 1.5-1.1l.9-.6c1.2-.6 1.3-.7 2.1-1l.7-.3c1-.3 1.4-.5 2.5-.7l-.5.1c-12.5 3-14.8 21.6-.2 30.2 6.7 3.9 18 3.8 21.9-6.6v.2" clip-path="url(#SVGID_4_)" fill="#852034"/><path d="M14.4 11.4c-1.1 1.3-1.2 1.4-2.1 2.2l-1 .8c-.5.3-1.1.8-1.5 1.1l-.9.5c-1.2.6-1.3.7-2.1 1l-.7.2c-.9.3-1.9.6-3.7.9h-4.6c-.1 0-.3 0-.5-.1h-.6c-.2 0-.4-.1-.5-.1l-.6-.1c-.2-.1-.5-.1-.7-.2l-.8-.2c-.3-.1-.7-.2-.9-.3l-.9-.4-1.4-.7-1-.6c-.5-.3-1.1-.8-1.6-1.2l-1-.9c-.4-.4-.8-.9-1.2-1.2l-.9-1.1c-.3-.4-.7-.9-.9-1.3l-.7-1.2-.7-1.4-.5-1.3c-.1-.5-.3-1.1-.4-1.5l-.3-1.4c-.1-.8-.2-1.9-.2-2.7l.1-1.5c.1-.5.1-1.1.2-1.6l.3-1.4c.1-.5.3-1.1.5-1.5l.5-1.3.7-1.4.7-1.2c.3-.4.6-.9.9-1.3l.9-1 1.2-1.2 1-.8c.5-.3 1.1-.8 1.5-1.1l.9-.6c.4-.2 1-.5 1.5-.7l-.6.3C-20.1-10-18 9.5-1 15.4c4.2 1.5 12.1 1.2 16.6-5.6l-.8 1.1-.4.5" clip-path="url(#SVGID_4_)" fill="#811f33"/><path d="M11.4-14.2C21-6.8 19.8 7.2 9.3 9.7c-11.6 2.8-22.7-10.8-17.2-21 3.7-6.9 12.4-8.2 19.3-2.9" clip-path="url(#SVGID_4_)" fill="#9c2a40"/><path d="M11.6-13.9c9.1 7 7.9 20.6-2.1 23-11.2 2.7-22-10.3-16.8-20.2 3.6-6.8 12.1-8.1 18.9-2.8" clip-path="url(#SVGID_4_)" fill="#a02c42"/><path d="M14.5-10.8c6.6 8.7 1.8 20-8.3 19.5C-5.3 8.2-12.3-6.6-4.6-13.9c6.4-5.9 15.2-2 19.1 3.1" clip-path="url(#SVGID_4_)" fill="#a32d44"/><path d="M14.4-10.6C20.7-2.2 15.9 8.6 6.2 8-4.1 7.4-11.9-5.7-3.9-13.7c5.1-5.2 14.1-2.6 18.3 3.1" clip-path="url(#SVGID_4_)" fill="#a72f46"/><path d="M14.3-10.4C20.2-2.3 15.5 8 6.2 7.3-3.6 6.7-11-6.2-3.2-13.6c5.5-5.2 14-1.6 17.5 3.2" clip-path="url(#SVGID_4_)" fill="#aa3047"/><path d="M12.2-12.4c8.5 8.1 3.2 19.7-6 19-8.5-.7-16.5-12.2-8.6-20.2 3.1-3.1 10-3.2 14.6 1.2" clip-path="url(#SVGID_4_)" fill="#ad3149"/><path d="M15.8-6.2C18.4 3.5 8.9 8.2 2.5 4.9-7-.1-6.7-11.6.9-14.8c5.4-2.3 13.2 2.2 14.9 8.6" clip-path="url(#SVGID_4_)" fill="#b1334a"/><path d="M15.5-6c2.3 8-5.6 13.9-13 9.9-5.4-2.9-6.6-7.6-6.6-11 0-1.3 1.5-6.4 6.3-7.6C7.6-16.1 13.9-12 15.5-6" clip-path="url(#SVGID_4_)" fill="#b4344c"/><path d="M14.3-8C18.1.5 10.7 7.4 2.5 2.9c-7.5-4-7.5-15.1 0-17.1 5-1.4 10.3 2.7 11.8 6.2" clip-path="url(#SVGID_4_)" fill="#b8354e"/><path d="M14.8-5.5C15.9.9 9.7 5.9 2.4 2c-.2-.1-4.9-2.8-4.8-9l1-3.5c.1-.1 2.1-2.7 4.1-3.2 4.7-1.2 10.9 2 12.1 8.2" clip-path="url(#SVGID_4_)" fill="#bb364f"/><path d="M14.3-5.3c.3 1.7-.8 4.6-.8 4.6-.6 1-.8 1.4-3.6 2.9-1.2.6-5.6.2-7.5-1.2C2.2.8-.7-2.7-.8-3.1c-.1-.2-.7-3.7-.7-3.9.9-5.4 4.7-6.3 6.3-6.4 3.8-.2 8.7 3.1 9.5 8.1" clip-path="url(#SVGID_4_)" fill="#be3751"/><path d="M13.5-5.9c.6 2.2-1 5.4-1.2 5.5C11.1.4 8.1 2.7 4.4.8-.1-1.5-.4-5.3-.5-7l1.3-3.5c.7-.9 2.6-1.8 2.6-1.8 2.3-.8 8.2-.5 10.1 6.4" clip-path="url(#SVGID_4_)" fill="#c23952"/><path d="M13-4.8c0 2.7-2.8 5-3.3 5.1-.5.2-3.3.3-3.6.2-.1 0-3.6-2.4-3.8-2.6-.3-.2-.7-.6-.8-1-.1-.1-.9-3.8-.9-3.8 1.1-3 1.4-3.3 1.6-3.6 1.3-1.2 3.4-1.3 3.5-1.3 0 0 2.2.2 2.6.4.2.1 3 2.4 3.4 2.8.3.2 1.3 3.3 1.3 3.8" clip-path="url(#SVGID_4_)" fill="#c53a54"/><path d="M12.1-4.5c0 1.4-2.6 3.4-2.6 3.4-.4 0-3.4.1-3.5 0-.1 0-3-2-3.1-2.1-.2-.2-1.2-3.5-1.2-3.7 0-.2.1-.4.2-.5l2.1-3 2.2-.6c.5.1 2.9 1.1 3 1.1.6.4 1.5.9 1.8 1.6.2.6 1.1 3.4 1.1 3.8" clip-path="url(#SVGID_4_)" fill="#c83b55"/><path d="M10.6-4.1c-.2.6-.8 1.4-1.4 1.4-.2 0-3.2.1-3.4 0-.4 0-.8-.3-1-.5L3.5-7c.1-.6.6-1.3 1.1-1.6L7-9.4 10-8c.1.2.6 3.6.6 3.9" clip-path="url(#SVGID_4_)" fill="#cc3c57"/><path d="M7.9-7.2c-.1-.1-.3-.2-.4-.3l.2-.1h.1l.1.4" clip-path="url(#SVGID_4_)" fill="#cf3d58"/></g><g><defs><path id="SVGID_5_" d="M0-17.5h.1H0h.1-.2z"/></defs><clipPath id="SVGID_6_"><use xlink:href="#SVGID_5_" overflow="visible"/></clipPath><path class="st49" d="M0-17.5h.1H0h.1-.2.1M.1-17.5H0h.1-.2.2"/><path class="st50" d="M.1-17.5h-.2.2-.2.2"/><path class="st51" d="M.1-17.5h-.2.2-.2.2"/><path class="st52" d="M.1-17.5h-.2.2-.2.2"/><path class="st53" d="M.1-17.5h-.2.2-.2.2"/><path class="st54" d="M.1-17.5"/><path class="st49" d="M.1-17.5H0h.1H0h.1"/><path class="st50" d="M0-17.5h.1H0h.1H0"/><path class="st51" d="M0-17.5h.1H0"/><path class="st52" d="M0-17.5"/><path clip-path="url(#SVGID_6_)" fill="#99293f" d="M0-17.5h.1H0"/><path class="st53" d="M0-17.5"/><path class="st54" d="M0-17.5"/><path clip-path="url(#SVGID_6_)" fill="#811f33" d="M0-17.5"/></g><g><defs><path id="SVGID_7_" d="M.1-17.5H0h.1-.2.2z"/></defs><clipPath id="SVGID_8_"><use xlink:href="#SVGID_7_" overflow="visible"/></clipPath><path class="st57" d="M.1-17.5h-.2.2H0h.1M.1-17.5h-.2.2-.2.2"/><path clip-path="url(#SVGID_8_)" fill="#92263b" d="M.1-17.5h-.2.2-.2.2"/><path clip-path="url(#SVGID_8_)" fill="#8f253a" d="M-.1-17.5h.2-.2"/><path clip-path="url(#SVGID_8_)" fill="#99293f" d="M.1-17.5H0h.1"/></g></g><g id="ball-yellow-1"><defs><path id="SVGID_9_" d="M-18.2-.1c0-.6 0-2.4.6-4.5.6-2.2 1.5-3.8 1.7-4.2.4-.7 1-1.6 1.5-2.2.3-.4.7-.9 1.1-1.3 1.3-1.2 1.3-1.2 2.4-2.1.7-.5 1.5-1 2.1-1.3.9-.5 4.3-2.3 8.9-2.2 2.3 0 4 .5 4.9.7.3.1 1.1.3 2.2.8.6.2 1.3.6 1.9.9 4.4 2.5 7.3 7.4 7.3 13.3 0 9.4-7.3 18.1-16.1 19.3-.1 0-.2-.1-.4 0-.1 0-.2.1-.1.1s.2.1.4 0c.1 0 .2-.1.1-.1 8.7-1.2 16-9.9 16-19.3 0-5.9-2.9-10.8-7.3-13.3.4.2 1.3.8 2.3 1.6.8.7.8.7 2.1 2 .8.8 2 2.5 2.6 3.6 1.1 2 1.5 3.3 1.9 5.3.1.5.4 2.8.2 4.9-.1.9-.2 1.6-.6 2.9-.3 1-.3 1-1 2.8-.4.9-1.4 2.6-2.5 3.9-2.4 2.8-5.5 4.8-9 5.8-2.7.7-5.4.9-8.2.4-3.9-.7-6.6-2.5-7.4-3.1-1.2-.9-3.7-2.7-5.6-6.5-1.9-3.7-1.9-6.9-2-8.2z"/></defs><clipPath id="SVGID_10_"><use xlink:href="#SVGID_9_" overflow="visible"/></clipPath><path class="st61" d="M-18.2-.1c.1 9 6 14.5 11.5 16.7 6.7 2.7 14.7 1 19.8-4.3 8.2-8.4 6.2-22-4-27.9 4.4 2.5 7.3 7.4 7.3 13.3C16.4 7.1 9.1 15.8.3 17c.1 0 0 .1-.1.1h-.4c-.1 0 0-.1.1-.1h.4c8.7-1.1 16-9.8 16-19.2 0-5.9-2.9-10.8-7.3-13.3-13.3-7.1-27.4 3-27.2 15.4"/><path class="st61" d="M16.3-2.2C16.3 5.6 11.2 13 4.4 16c-.1 0-.3.1-.4.2-11.5 5.7-25.5-7.4-21.2-19.6C-13.5-13.8 2.5-14.3 9-1.2c2.3 4.6 2.4 13-4.6 17.2 6.8-3 11.9-10.4 11.9-18.2 0-5.9-2.9-10.8-7.3-13.3-.3-.1-.7-.3-.9-.5-.4-.2-1-.5-1.4-.6l-.8-.3-.9-.3-.6-.2c-.2 0-.5-.1-.7-.1l-.5-.1c-.2 0-.4-.1-.5-.1l-.5-.1H-2c-.1 0-.3 0-.5.1H-3c-1.5.3-2.4.5-3.8 1.1l-.9.4c-1.2.6-1.3.7-2 1.1l-1 .7c-.4.3-1 .8-1.4 1.2l-.9.9c-.3.4-.8.9-1.1 1.3l-.8 1.1c-.3.4-.6.9-.8 1.4l-.6 1.2c-.2.4-.4 1-.6 1.4l-.4 1.3c-.1.5-.3 1.1-.3 1.5l-.2 1.4c0 .5-.1 1.1-.1 1.6l.1 1.4c.1.8.3 1.8.4 2.6l.4 1.4c.2.4.4 1 .5 1.4l.6 1.3c.2.4.5.9.8 1.3l.8 1.1c.3.4.7.9 1 1.2l.9 1c.4.3.9.8 1.2 1.1l1 .7c.5.3 1.1.7 1.6 1l.9.5c.4.2 1 .4 1.4.6l.8.3.9.3.6.2c.2 0 .5.1.7.1l.5.1c.2 0 .4.1.5.1l.5.1H2.4c.1 0 .3 0 .5-.1l.6-.1c1.1-.2 2.1-.4 3.7-1l.9-.4c1.2-.6 1.3-.6 2-1.1l1-.7c.4-.3 1-.8 1.4-1.2l.9-.9c.3-.4.8-.9 1.1-1.2l.8-1.1c.3-.4.6-.9.8-1.3l.6-1.2c.2-.4.4-1 .6-1.4l.4-1.3c.1-.5.3-1.1.4-1.5l.2-1.4c0-.6.1-1.3.1-1.8l-.1-1.5c-.3-.4-.3-1-.4-1.5l-.3-1.4c-.1-.4-.3-1-.4-1.5l-.5-1.3-.7-1.4-.7-1.2c-.3-.4-.6-.9-.9-1.3l-.9-1c-.3-.4-.8-.8-1.2-1.2l-1-.8c-1.3-.9-1.4-1-2.3-1.6 4.4 2.7 7.3 7.6 7.3 13.5"/><path class="st62" d="M-17.7 4C-20.5-8.8-7.3-15.7 2.4-9.6c10.3 6.5 11 18.5 4.7 24.1 5.4-3.5 9.2-10 9.2-16.7 0-5.9-2.9-10.8-7.3-13.3-.3-.1-.7-.3-.9-.5-.4-.2-1-.5-1.4-.6l-.8-.3-.9-.3-.6-.2c-.2 0-.5-.1-.7-.1l-.5-.1c-.2 0-.4-.1-.5-.1l-.5-.1H-2c-.1 0-.3 0-.5.1H-3c-1.5.3-2.4.5-3.8 1.1l-.9.4c-1.2.6-1.3.7-2 1.1l-1 .7c-.4.3-1 .8-1.4 1.2l-.9.9c-.3.4-.8.9-1.1 1.3l-.8 1.1c-.3.4-.6.9-.8 1.4l-.6 1.2c-.2.4-.4 1-.6 1.4l-.4 1.3c-.1.5-.3 1.1-.3 1.5l-.2 1.4c0 .5-.1 1.1-.1 1.6l.1 1.4c-.2.9 0 1.9.1 2.7l.4 1.3.4 1-.4-1.3c-.2-.3-.3-.7-.4-1"/><path class="st62" d="M16.3-2.2c0 6.8-3.8 13.2-9.2 16.7l-.6.6c-6.2 4.6-12.8 2-16.1 0 .5.3 1.1.6 1.6.9.4.2 1 .4 1.4.6l.8.3.9.3.6.2c.2 0 .5.1.7.1l.5.1c.2 0 .4.1.5.1l.5.1H2.1c.1 0 .3 0 .5-.1l.6-.1c1.1-.2 2.1-.4 3.7-1l.9-.4c1.2-.6 1.3-.6 2-1.1l1-.7c.4-.3 1-.8 1.4-1.2l.9-.9c.3-.4.8-.9 1.1-1.2L15 10c.3-.4.6-.9.8-1.3l.6-1.2c.2-.4.4-1 .6-1.4l.4-1.3c.1-.5.3-1.1.4-1.5l.2-1.4c0-.6.1-1.3.1-1.8L18-1.4c0-.5 0-1.1-.1-1.6l-.3-1.4c-.1-.4-.3-1-.4-1.5l-.5-1.3-.7-1.4-.7-1.2c-.3-.4-.6-.9-.9-1.3l-.9-1c-.3-.4-.8-.8-1.2-1.2l-1-.8c-1.3-.9-1.4-1-2.3-1.6 4.4 2.7 7.3 7.6 7.3 13.5"/><path class="st63" d="M-18 2.3c-1.3-15 14.8-18.4 23.2-10.9C13.3-1.4 13.3 7.8 9 13.1c4.4-3.7 7.3-9.3 7.3-15.3 0-5.9-2.9-10.8-7.3-13.3-.3-.1-.7-.3-.9-.5-.4-.2-1-.5-1.4-.6l-.8-.3-.9-.3-.6-.2c-.2 0-.5-.1-.7-.1l-.5-.1c-.2 0-.4-.1-.5-.1l-.5-.1H-2c-.1 0-.3 0-.5.1H-3c-1.5.3-2.4.5-3.8 1.1l-.9.4c-1.2.6-1.3.7-2 1.1l-1 .7c-.4.3-1 .8-1.4 1.2l-.9.9c-.3.4-.8.9-1.1 1.3l-.8 1.1c-.3.4-.6.9-.8 1.4l-.6 1.2c-.2.4-.4 1-.6 1.4l-.4 1.3c-.1.5-.3 1.1-.3 1.5l-.2 1.4c0 .5-.1 1.1-.1 1.6l.1 1.4.1 1.3-.3-.3"/><path class="st63" d="M16.3-2.2c0 5.9-2.9 11.6-7.3 15.3-.2.2-.4.5-.6.8-4.9 5.1-10.7 4.4-14.7 3l.8.3.4.1.6.2c.2 0 .5.1.7.1l.5.1c.2 0 .4.1.5.1l.5.1H1.9c.1 0 .3 0 .5-.1l.6-.1c1.1-.2 2.1-.4 3.7-1l.9-.4c1.2-.6 1.3-.6 2-1.1l1-.7c.4-.3 1-.8 1.4-1.2l.9-.9c.3-.4.8-.9 1.1-1.2l.8-1.1c.3-.4.6-.9.8-1.3l.6-1.2c.2-.4.4-1 .6-1.4l.4-1.3c.1-.5.3-1.1.4-1.5l.2-1.4c0-.6.1-1.3.1-1.8l-.1-1.5c.2-.6.2-1.2.1-1.7l-.3-1.4c-.1-.4-.3-1-.4-1.5l-.5-1.3-.7-1.4-.7-1.2c-.3-.4-.6-.9-.9-1.3l-.9-1c-.3-.4-.8-.8-1.2-1.2l-1-.8c-1.3-.9-1.4-1-2.3-1.6 4.4 2.7 7.3 7.6 7.3 13.5"/><path class="st64" d="M-17.5-4.4c3.6-11.1 20.2-12.8 27.7.2 4.3 7.4 1.8 13.4.6 15.6 3.4-3.6 5.5-8.5 5.5-13.6 0-5.9-2.9-10.8-7.3-13.3-.3-.1-.7-.3-.9-.5-.4-.2-1-.5-1.4-.6l-.8-.3-.9-.3-.6-.2c-.2 0-.5-.1-.7-.1l-.5-.1c-.2 0-.4-.1-.5-.1l-.5-.1H-2c-.1 0-.3 0-.5.1H-3c-1.5.3-2.4.5-3.8 1.1l-.9.4c-1.2.6-1.3.7-2 1.1l-1 .7c-.4.3-1 .8-1.4 1.2l-.9.9c-.3.4-.8.9-1.1 1.3l-.8 1.1c-.3.4-.6.9-.8 1.4l-.6 1.2c-.2.4-.4 1-.6 1.4l-.4 1.3c-.1.5-.3 1.1-.3 1.5l-.2 1.4-.1 1.4.1-1.3c-.1-1.4 0-1.9.3-2.8"/><path class="st64" d="M16.3-2.2c0 5.1-2.2 10-5.5 13.6-.1.2-.2.5-.3.7-1.3 2.1-5.2 6.8-13.2 5.6l.5.1H2c.1 0 .3 0 .5-.1l.6-.1c1.1-.2 2.1-.4 3.7-1l.9-.4c1.2-.6 1.3-.6 2-1.1l1-.7c.4-.3 1-.8 1.4-1.2l.9-.9c.3-.4.8-.9 1.1-1.2l.8-1.1c.3-.4.6-.9.8-1.3l.6-1.2c.2-.4.4-1 .6-1.4l.4-1.3c.1-.5.3-1.1.4-1.5l.2-1.4c0-.6.1-1.3.1-1.8l-.1-1.5c.1-.5.1-1.1 0-1.6l-.3-1.4c-.1-.4-.3-1-.4-1.5l-.5-1.3-.7-1.4-.7-1.2c-.3-.4-.6-.9-.9-1.3l-.9-1c-.3-.4-.8-.8-1.2-1.2l-1-.8c-1.3-.9-1.4-1-2.3-1.6 4.4 2.7 7.3 7.6 7.3 13.5"/><path class="st65" d="M-17.6-4.5c4-13 21.5-12.7 28.9.5 2.4 4.4 2.8 9 1 13.6 2.5-3.4 4-7.5 4-11.8 0-5.9-2.9-10.8-7.3-13.3-.3-.1-.7-.3-.9-.5-.4-.2-1-.5-1.4-.6l-.8-.3-.9-.3-.6-.2c-.2 0-.5-.1-.7-.1l-.5-.1c-.2 0-.4-.1-.5-.1l-.5-.1H-2c-.1 0-.3 0-.5.1H-3c-1.5.3-2.4.5-3.8 1.1l-.9.4c-1.2.6-1.3.7-2 1.1l-1 .7c-.4.3-1 .8-1.4 1.2l-.9.9c-.3.4-.8.9-1.1 1.3l-.8 1.1c-.3.4-.6.9-.8 1.4l-.6 1.2c-.2.4-.4 1-.6 1.4l-.7 1.4c-.1.4-.2.9-.3 1.4l.3-1.2v-.2"/><path class="st65" d="M16.3-2.2c0 4.3-1.5 8.5-4 11.8-.1.3-.2.7-.3 1-2.1 4.4-6.1 7-11 7.3h1.1c.1 0 .3 0 .5-.1l.6-.1c1.1-.2 2.1-.4 3.7-1l.9-.4c1.2-.6 1.3-.6 2-1.1l1-.7c.4-.3 1-.8 1.4-1.2l.9-.9c.3-.4.8-.9 1.1-1.2l.8-1.1c.3-.4.6-.9.8-1.3l.6-1.2c.2-.4.4-1 .6-1.4l.4-1.3c.1-.5.3-1.1.4-1.5L18 2c0-.6.1-1.3.1-1.8L18-1.3c0-.6 0-1.2-.1-1.7l-.3-1.4c-.1-.4-.3-1-.4-1.5l-.5-1.3-.7-1.4-.7-1.2c-.3-.4-.6-.9-.9-1.3l-.9-1c-.3-.4-.8-.8-1.2-1.2l-1-.8c-1.3-.9-1.4-1-2.3-1.6 4.4 2.7 7.3 7.6 7.3 13.5"/><path class="st66" d="M-16.5-7.5c6.6-12.7 25.4-7.4 29.7 5.2 1.2 3.4 1.3 6.3.5 9.7 1.6-2.9 2.6-6.2 2.6-9.6 0-5.9-2.9-10.8-7.3-13.3-.3-.1-.7-.3-.9-.5-.4-.2-1-.5-1.4-.6l-.8-.3-.9-.3-.6-.2c-.2 0-.5-.1-.7-.1l-.5-.1c-.2 0-.4-.1-.5-.1l-.5-.1H-2c-.1 0-.3 0-.5.1H-3c-1.5.3-2.4.5-3.8 1.1l-.9.4c-1.2.6-1.3.7-2 1.1l-1 .7c-.4.3-1 .8-1.4 1.2l-.9.9c-.3.4-.8.9-1.1 1.3l-.8 1.1c-.3.4-.6.9-.8 1.4l-.6 1.2c-.2.4-.4 1-.6 1.4l.5-1.1c-.2-.2-.1-.4-.1-.5"/><path class="st66" d="M16.3-2.2c0 3.4-1 6.7-2.6 9.6-.1.3-.1.8-.2 1.1-1.2 4.4-5 8-9.6 9l.6-.2c.8-.2 1.3-.3 2.2-.7l.9-.4c1.2-.6 1.3-.6 2-1.1l1-.7c.4-.3 1-.8 1.4-1.2l.9-.9c.3-.4.8-.9 1.1-1.2l.8-1.1c.3-.4.6-.9.8-1.3l.6-1.2c.2-.4.4-1 .6-1.4l.4-1.3c.1-.5.3-1.1.4-1.5l.2-1.4c0-.6.1-1.3.1-1.8l-.1-1.5c.2-.5.2-1.1.1-1.6l-.3-1.4c-.1-.4-.3-1-.4-1.5l-.5-1.3-.7-1.4-.7-1.2c-.3-.4-.6-.9-.9-1.3l-.9-1c-.3-.4-.8-.8-1.2-1.2l-1-.8c-1.3-.9-1.4-1-2.3-1.6 4.4 2.7 7.3 7.6 7.3 13.5"/><path class="st67" d="M-13.3-12C-1.6-22.7 15.5-9.3 15.1 2.7c0 .6-.1 1.4-.2 2 .8-2.2 1.3-4.5 1.3-6.9 0-5.9-2.9-10.8-7.3-13.3-.3-.1-.7-.3-.9-.5-.4-.2-1-.5-1.4-.6l-.8-.3c-.2-.1-.5-.2-.8-.3l-.6-.2c-.2 0-.5-.1-.7-.1l-.5-.1c-.2 0-.4-.1-.5-.1l-.5-.1H-2c-.1 0-.3 0-.5.1H-3c-1.5.3-2.4.5-3.8 1.1l-.9.4c-1.2.6-1.3.7-2 1.1l-1 .7c-.4.3-1 .8-1.4 1.2l-.9.9c-.3.4-.8.9-1.1 1.3l-.8 1.1-.2.3.6-.8c.5-.9.7-1.2 1.2-1.6"/><path class="st67" d="M16.3-2.2c0 2.4-.5 4.7-1.3 6.9v1c-.7 6.6-5.1 9.5-7.7 10.7l1-.4c.4-.2 1-.6 1.4-.8l1-.7c.4-.3 1-.8 1.4-1.2l.9-.9c.3-.4.8-.9 1.1-1.2l.8-1.1c.3-.4.6-.9.8-1.3l.6-1.2c.2-.4.4-1 .6-1.4l.4-1.3c.1-.5.3-1.1.4-1.5l.2-1.4c0-.6.1-1.3.1-1.8l-.1-1.5c.1-.6.1-1.2 0-1.7l-.3-1.4c-.1-.4-.3-1-.4-1.5l-.5-1.3-.7-1.4-.7-1.2c-.3-.4-.6-.9-.9-1.3l-.9-1c-.3-.4-.8-.8-1.2-1.2l-1-.8c-1.3-.9-1.4-1-2.3-1.6 4.4 2.7 7.3 7.6 7.3 13.5"/><path d="M-1.3 17.2C10.8 16.4 13.1 1.9 5-5.7-5.3-15.4-18.3-9-17.8 2.1c.5 8.4 8.3 15.6 16.5 15.1" clip-path="url(#SVGID_10_)" fill="#b29f58"/><path d="M-4.3 16.9C5.7 18.3 14.5 7 5-4.6-1-12-15.7-12.2-17.5-.3c-1.1 7.8 5.2 16 13.2 17.2" clip-path="url(#SVGID_10_)" fill="#b6a25a"/><path d="M-5.4 16.5c10.5 2.3 17.6-9 11.5-18.3-7.9-12-21.6-8-23.3 1.2-1.3 7.5 4.1 15.4 11.8 17.1" clip-path="url(#SVGID_10_)" fill="#baa65c"/><path d="M-8.1 15.4c9 3.7 19.7-2.8 14.3-15.7 0-.1-3.3-7.5-12.1-8.3-5.3-.4-9.1 3-10.4 6.3-2.9 7.3 2 15.2 8.2 17.7" clip-path="url(#SVGID_10_)" fill="#beaa5e"/><path d="M-8.1 15.2C1 19 10.2 11.6 5.9.9c-4-9.8-17.8-12-21.7-3.4-3.3 7.2 1.3 15 7.7 17.7" clip-path="url(#SVGID_10_)" fill="#c3ad60"/><path d="M-8 15C.7 18.4 9.4 11 5 .8 1.3-7.9-12-10.9-15.7-1.6-18.5 5.4-14 12.3-8 15" clip-path="url(#SVGID_10_)" fill="#c7b162"/><path d="M-11.1 12.9C-.9 19.7 7.3 11.4 5.2 3.2 2.7-6.6-10.9-10.1-15.1-1.9c-3.8 7.4 2.3 13.7 4 14.8" clip-path="url(#SVGID_10_)" fill="#cbb564"/><path d="M-7.6 14.5C.5 17.3 7.5 9.5 3.8 1.9c-3.2-6.4-8-7.5-10-7.7-4.4-.4-8 1.9-9.3 6-1.5 4.9 1 11.6 7.9 14.3" clip-path="url(#SVGID_10_)" fill="#cfb866"/><path d="M-10.9 12.3c3.8 2.9 8 2.6 10 1.6 1.3-.6 5.5-3.2 4.8-8.9C2.7-3.8-8.7-8.5-13.5-2.1c-5.9 7.6 2.5 14.4 2.6 14.4" clip-path="url(#SVGID_10_)" fill="#d3bc68"/><path d="M-10.7 12.1c5 3.5 9 1.7 10.1 1 2-1.2 4.2-3.6 3.4-8.8C1.7-2.9-8.9-7.6-13.5-1.2c-1.4 2-3.9 7.2 2.8 13.3" clip-path="url(#SVGID_10_)" fill="#d8bf6a"/><path d="M-10.3 11.9s4.9 3.4 9.1.8l2.6-2.5c1.1-3 1.1-3 .6-5.9C1.6 1.7-.3-.3-1.1-1c-.5-.5-1.3-1.2-5-2.3 0 0-4.6-.9-7.2 3-2.3 3.3-1.7 8.8 3 12.2" clip-path="url(#SVGID_10_)" fill="#dcc36c"/><path d="M-9.8 11.7c1 .7 5 2.1 6.8 1.1 1.9-1.1 5.1-2.8 4.3-7.3C1 3.8.8 3 .8 2.9.6 2.6-2.2-.9-2.4-1c-3.4-1.5-3.4-1.5-5.1-1.4-2 .1-3.3.2-5 2-1.3 1.3-3.7 7.5 2.7 12.1" clip-path="url(#SVGID_10_)" fill="#e0c66d"/><path d="M-10.7 10.2c2.7 2.5 5.5 2.3 7.3 1.8 0 0 1.9-.8 2.6-1.8L.4 6.8c0-.1-.8-3.7-.9-3.8-1-1.6-2.1-2.8-4-3.8-1-.5-1.8-.9-5.2-.4-.1 0-2.2 1.3-2.4 1.5 0 0-3.9 5.1 1.4 9.9" clip-path="url(#SVGID_10_)" fill="#e4ca6f"/><path d="M-8.3 11.1c.6.3 2.7.5 2.7.5l2-.4 1.6-1c.9-1 1.5-3.5 1.5-3.5l-1-3.7C-2.1 1.6-6-.5-6-.5c-.9-.1-3.3 0-3.5.1-.7.3-2.6 2.5-2.6 2.5-.1.3-.7 2.2-.7 2.5 0 0 .2 1.5 1.1 3.7.2.2 3.1 2.7 3.4 2.8" clip-path="url(#SVGID_10_)" fill="#e8cd71"/><path d="M-8.9 9.7s1.8.9 2.9 1.1l2.2-.5c.2-.2.3-.6.5-.8.2-.5.6-1.2 1-1.7.2-.3.7-.7.6-1.1C-2 5-2.9 3-2.9 3c0-.1-2.9-1.9-3-2h-3.4c-.1 0-1.6 1.5-2.4 2.5-.7 1 .8 4.4.9 4.5.4.7 1.2 1.3 1.9 1.7" clip-path="url(#SVGID_10_)" fill="#edd173"/><path d="M-6.8 9.2l2.4-.7c.5-.3 1-1.1 1.1-1.7l-1.4-3.7c-.3-.2-.6-.5-1-.6H-9c-.5.2-1.1.8-1.3 1.4-.1.3.3 3.6.5 3.8l3 1.5" clip-path="url(#SVGID_10_)" fill="#f1d475"/><path d="M-7.6 7.4c.2 0 .4-.1.5-.2-.2-.1-.5-.3-.7-.4 0 .2 0 .4.1.6h.1" clip-path="url(#SVGID_10_)" fill="#f5d877"/><g><defs><path id="SVGID_11_" d="M-9 15.5c-.6-.4-1.3-.8-2.6-1.8-.6-.5-1.4-1.2-1.9-1.8-.7-.7-2-2.5-2.7-3.8-.7-1.5-.8-1.7-1.1-2.7-.4-1.3-.6-2.2-.7-2.9-.1-.8-.2-1.8-.2-2.6 0-.9.1-2 .2-2.9.1-.9.7-3 1.3-4.3.8-1.7.8-1.7 1.4-2.5.8-1.2 1.4-1.9 1.8-2.3 1.3-1.4 4.1-4 8.6-5.2 2.3-.6 4.7-.8 7.1-.5 3.5.5 5.8 1.7 6.8 2.3-2.6-1.5-5.7-2.1-9-1.7 3.3-.4 6.4.2 9 1.7.6.4 1.5.9 2.1 1.4.4.3 1.4 1.1 2.2 2 1.8 2 2.5 3.2 3.3 4.9.8 1.6 1.3 3.7 1.3 4.3.2 1.8.3 1.9.3 3 0 .9-.1 2-.2 2.9-.2 1.2-.7 3.2-1.4 4.5-.6 1.3-.8 1.6-1.4 2.5-.6.8-1.2 1.6-1.8 2.3-2.6 2.7-5.7 4.5-9.2 5.3-2.3.4-4.6.4-6.9.1-3-.4-5.2-1.5-6.3-2.2z"/></defs><clipPath id="SVGID_12_"><use xlink:href="#SVGID_11_" overflow="visible"/></clipPath><path class="st85" d="M-9 15.5c-3.1-1.8-10.3-7.3-8.9-18.5.6-4.5 4.5-12 13.1-14.3 3.3-.9 8.3-1.3 13.9 1.7-2.6-1.5-5.7-2.1-9-1.7 3.3-.4 6.4.2 9 1.7C18.7-9.7 18.5-.8 18 2.8c-.8 5.7-5.5 12.7-13.8 14.6-4.6 1.1-9.3.4-13.2-1.9"/><path class="st85" d="M9-15.5c.9.5 1.9 1.2 3.3 2.4l.9.9c.3.4.8.9 1.1 1.2l.8 1.1c.2.4.6.9.8 1.3l.6 1.2c.2.4.4 1 .6 1.4l.4 1.3c.1.5.3 1.1.3 1.5l.2 1.4c0 .5.1 1.1.1 1.6L18 1.2c0 .8-.1 1.5-.2 2.1l-.3 1.4c-.1.4-.3 1-.5 1.5l-.5 1.3-.7 1.4-.7 1.2c-.3.4-.6.9-.9 1.3l-.9 1c-.4.3-.8.8-1.2 1.2l-1 .8c-.4.3-1 .7-1.5 1l-.9.5c-1.2.6-1.3.6-2 1l-.7.2c-.9.3-1.9.6-3.6.9l-.4-.2h-4.1c-.1 0-.3 0-.5-.1l-.5-.1c-.2 0-.4-.1-.5-.1l-.6-.1c-.2-.1-.5-.1-.7-.2l-.9-.2-.9-.3-.9-.4-1.4-.7-1-.6c-.5-.3-1.1-.8-1.5-1.1l-1-.9-1.2-1.2-.8-1c-.3-.4-.6-.9-.9-1.3l-.7-1.2-.7-1.4-.5-1.3c-.1-.4-.3-1-.4-1.5l-.3-1.5c-.1-.8-.2-1.8-.2-2.6l.1-1.4c.1-.6.1-1.2.2-1.7l.3-1.4c.1-.4.3-1 .5-1.5l.5-1.3.7-1.4.7-1.2c.3-.4.6-.9.9-1.3l.9-1c.3-.4.8-.8 1.2-1.2l1-.8c.4-.3 1-.8 1.5-1.1l.9-.5c1.2-.6 1.3-.7 2-1l.7-.3c1-.3 1.9-.6 3.8-.9l.5-.1h4.1c.1 0 .3 0 .5.1l.5.1c.2 0 .4.1.5.1l.6.1c.2.1.5.1.7.2l.7.5c.3.1.7.2.9.3l.9.4c.4.3 1 .5 1.4.8-2.6-1.5-5.7-2.1-9-1.7-15.4 4.8-10.2 20.5-1.3 25.7 10.4 6 21.6-2 18.7-13.4C15.9-10.4 11.8-17 0-17.2c3.4-.4 6.5.2 9 1.7"/><path d="M9-15.5c.9.5 1.9 1.2 3.3 2.4l.9.9c.3.4.8.9 1.1 1.2l.8 1.1c.2.4.6.9.8 1.3l.6 1.2c.2.4.4 1 .6 1.4l.4 1.3c.1.5.3 1.1.3 1.5l.2 1.4c0 .5.1 1.1.1 1.6L18 1.2c0 .8-.1 1.5-.2 2.1l-.3 1.4c-.1.4-.3 1-.5 1.5l-.5 1.3-.7 1.4-.7 1.2c-.3.4-.6.9-.9 1.3l-.9 1c-.4.3-.8.8-1.2 1.2l-1 .8c-.4.3-1 .7-1.5 1l-.9.5c-1.2.6-1.3.6-2 1l-.7.2c-.9.3-1.9.6-3.6.9l-.4-.2h-4.1c-.1 0-.3 0-.5-.1l-.5-.1c-.2 0-.4-.1-.5-.1l-.6-.1c-.2-.1-.5-.1-.7-.2l-.9-.2-.9-.3-.9-.4-1.4-.7-1-.6c-.5-.3-1.1-.8-1.5-1.1l-1-.9-1.2-1.2-.8-1c-.3-.4-.6-.9-.9-1.3l-.7-1.2-.7-1.4-.5-1.3c-.1-.4-.3-1-.4-1.5l-.3-1.5c-.1-.8-.2-1.8-.2-2.6l.1-1.4c.1-.6.1-1.2.2-1.7l.3-1.4c.1-.4.3-1 .5-1.5l.5-1.3.7-1.4.7-1.2c.3-.4.6-.9.9-1.3l.9-1c.3-.4.8-.8 1.2-1.2l1-.8c.4-.3 1-.8 1.5-1.1l.9-.5c1.2-.6 1.3-.7 2-1l.7-.3c1-.3 1.9-.6 3.8-.9l.5-.1h4.1c.1 0 .3 0 .5.1l.5.1c.2 0 .4.1.5.1l.6.1c.2.1.5.1.7.2l.7.5c.3.1.7.2.9.3l.9.4c.4.3 1 .5 1.4.8-1-.5-2-1-3.1-1.3-.3-.1-.8-.2-1.1-.3C-9-19.8-14.6-5.3-7 4.6 1 14.9 16 12.7 17.8 1c1.1-7.4-4.2-15.4-11.9-17.8 1.1.3 2.2.7 3.1 1.3" clip-path="url(#SVGID_12_)" fill="#ae9b55"/><path class="st87" d="M17.2-5.9c.2.6.5 1.5.7 2.9l.2 1.4c0 .5.1 1.1.1 1.6l-.1 1.4c-.1.6-.2 1.3-.3 1.9l-.3 1.4c-.1.4-.3 1-.5 1.5l-.5 1.3-.7 1.4-.7 1.2c-.3.4-.6.9-.9 1.3l-.9 1c-.4.3-.8.8-1.2 1.2l-1 .8c-.4.3-1 .7-1.5 1l-.9.5c-1.2.6-1.3.6-2 1l-.7.2c-.9.3-1.9.6-3.6.9l-.4-.2h-4.1c-.1 0-.3 0-.5-.1l-.5-.1c-.2 0-.4-.1-.5-.1l-.6-.1c-.2-.1-.5-.1-.7-.2l-.9-.2-.9-.3-.9-.4-1.4-.7-1-.6c-.5-.3-1.1-.8-1.5-1.1l-1-.9-1.2-1.2-.8-1c-.3-.4-.6-.9-.9-1.3l-.7-1.2-.7-1.4-.5-1.3c-.1-.4-.3-1-.4-1.5l-.3-1.5c-.1-.8-.2-1.8-.2-2.6l.1-1.4c.1-.6.1-1.2.2-1.7l.3-1.4c.1-.4.3-1 .5-1.5l.5-1.3.7-1.4.7-1.2c.3-.4.6-.9.9-1.3l.9-1c.3-.4.8-.8 1.2-1.2l1-.8c.4-.3 1-.8 1.5-1.1l.9-.5c1.2-.6 1.3-.7 2-1l.7-.3c1-.3 1.9-.6 3.8-.9l.5-.1h4.1c.1 0 .3 0 .5.1l.5.1c.2 0 .4.1.5.1l.6.1c.2.1.5.1.7.2l.7.5c.3.1.7.2.9.3l.9.4c.4.3 1 .5 1.4.8-.1-.1-.3-.2-.4-.2-.3-.2-.7-.4-1.1-.5C-5.1-21.6-14.2-10.8-10.3 0-5.8 12.7 11 16.3 16.5 5.7c1.9-3.7 2.1-7.5.5-12 0 .1.1.3.2.4"/><path class="st87" d="M9-15.5c.3.2.7.4 1 .6-.3-.2-.8-.5-1.1-.7l-.3-.1c.2 0 .3.1.4.2"/><path d="M18.2 0c-.1 1.9-.1 2-.3 3.3l-.3 1.4c-.1.4-.3 1-.5 1.5l-.5 1.3-.7 1.4-.7 1.2c-.3.4-.6.9-.9 1.3l-.9 1c-.4.3-.8.8-1.2 1.2l-1 .8c-.4.3-1 .7-1.5 1l-.9.5c-1.2.6-1.3.6-2 1l-.7.2c-.9.3-1.9.6-3.6.9l-.5-.2h-4.1c-.1 0-.3 0-.5-.1l-.5-.1c-.2 0-.4-.1-.5-.1l-.6-.1c-.2-.1-.5-.1-.7-.2l-.9-.2-.9-.3-.9-.4-1.4-.7-1-.6c-.5-.3-1.1-.8-1.5-1.1l-1-.9-1.2-1.2-.8-1c-.3-.4-.6-.9-.9-1.3l-.7-1.2-.7-1.4-.5-1.3c-.1-.4-.3-1-.4-1.5l-.3-1.5c-.1-.8-.2-1.8-.2-2.6l.1-1.4c.1-.6.1-1.2.2-1.7l.3-1.4c.1-.4.3-1 .5-1.5l.5-1.3.7-1.4.7-1.2c.3-.4.6-.9.9-1.3l.9-1c.3-.4.8-.8 1.2-1.2l1-.8c.4-.3 1-.8 1.5-1.1l.9-.5c1.2-.6 1.3-.7 2-1l.7-.3c1-.3 1.9-.6 3.8-.9l.5-.1h4.1c.1 0 .3 0 .5.1l.5.1c.2 0 .4.1.5.1l.6.1c.2.1.5.1.7.2l.7.5.5.2-.3-.1C-6.2-20.8-16.8-10.3-9.5 3.7c5.1 9.7 22.3 13.5 26.9.5.7-2.1.9-4.3.6-6.8l.2 1.4V0" clip-path="url(#SVGID_12_)" fill="#a59451"/><path d="M17.8 3.3c-.4 1.8-.4 1.9-.8 2.8l-.5 1.3-.7 1.4-.7 1.2c-.3.4-.6.9-.9 1.3l-.9 1c-.4.3-.8.8-1.2 1.2l-1 .8c-.4.3-1 .7-1.5 1l-.9.5c-1.2.6-1.3.6-2 1L6 17c-.9.3-1.9.6-3.6.9l-.4-.1h-4.1c-.1 0-.3 0-.5-.1l-.5-.1c-.2 0-.4-.1-.5-.1l-.6-.1c-.2-.1-.5-.1-.7-.2l-.9-.2-.9-.3-.9-.4-1.4-.7-1-.6c-.5-.3-1.1-.8-1.5-1.1l-1-.9-1.2-1.2-.8-1c-.3-.4-.6-.9-.9-1.3l-.7-1.2-.7-1.4-.5-1.3c-.1-.4-.3-1-.4-1.5l-.3-1.5c-.1-.8-.2-1.8-.2-2.6l.1-1.4c.1-.6.1-1.2.2-1.7l.3-1.4c.1-.4.3-1 .5-1.5l.5-1.3.7-1.4.7-1.2c.3-.4.6-.9.9-1.3l.9-1c.3-.4.8-.8 1.2-1.2l1-.8c.4-.3 1-.8 1.5-1.1l.9-.5c1.2-.6 1.3-.7 2-1l.7-.3c1-.3 1.9-.6 3.8-.9l.5-.1h4.1c.1 0 .3 0 .5.1C-9.7-19.3-18-5.8-8.6 6.4-.7 16.6 16.2 15.6 18 1.9c.1-.5.1-1.2.1-1.6L18 1.7c0 .5-.1 1.1-.2 1.6" clip-path="url(#SVGID_12_)" fill="#a1904f"/><path d="M17.8 3.3c-.2.8-.3 1.6-.8 2.8l-.5 1.3-.7 1.4-.7 1.2c-.3.4-.6.9-.9 1.3l-.9 1c-.4.3-.8.8-1.2 1.2l-1 .8c-.4.3-1 .7-1.5 1l-.9.5c-1.2.6-1.3.6-2 1L6 17c-.9.3-1.9.6-3.6.9l-.4-.1h-4.1c-.1 0-.3 0-.5-.1l-.5-.1c-.2 0-.4-.1-.5-.1l-.6-.1c-.2-.1-.5-.1-.7-.2l-.9-.2-.9-.3-.9-.4-1.4-.7-1-.6c-.5-.3-1.1-.8-1.5-1.1l-1-.9-1.2-1.2-.8-1c-.3-.4-.6-.9-.9-1.3l-.7-1.2-.7-1.4-.5-1.3c-.1-.4-.3-1-.4-1.5l-.3-1.5c-.1-.8-.2-1.8-.2-2.6l.1-1.4c.1-.6.1-1.2.2-1.7l.3-1.4c.1-.4.3-1 .5-1.5l.5-1.3.7-1.4.7-1.2c.3-.4.6-.9.9-1.3l.9-1c.3-.4.8-.8 1.2-1.2l1-.8c.4-.3 1-.8 1.5-1.1l.9-.5c1.2-.6 1.3-.7 2-1l.7-.3c1-.3 1.9-.6 3.8-.9l.5-.1h1.2-.4c-13 1-16.7 17.7-5.9 27 10.6 9.2 23 4.4 24.9-6l-.2.4" clip-path="url(#SVGID_12_)" fill="#9d8d4d"/><path d="M17.1 6.1c-.3.7-.6 1.5-1.2 2.6l-.7 1.2c-.3.4-.6.9-.9 1.3l-.9 1c-.4.3-.8.8-1.2 1.2l-1 .8c-.4.3-1 .7-1.5 1l-.9.5c-1.2.6-1.3.6-2 1l-.7.2c-.9.3-1.9.6-3.6.9h-4.6c-.1 0-.3 0-.5-.1l-.5-.1c-.2 0-.4-.1-.5-.1l-.6-.1c-.2-.1-.5-.1-.7-.2l-.9-.2-.9-.3-.9-.4-1.4-.7-1-.6c-.5-.3-1.1-.8-1.5-1.1l-1-.9-1.2-1.2-.8-1c-.3-.4-.6-.9-.9-1.3l-.7-1.2-.7-1.4-.5-1.3c-.1-.4-.3-1-.4-1.5l-.3-1.5c-.1-.8-.2-1.8-.2-2.6l.1-1.4c.1-.6.1-1.2.2-1.7l.3-1.4c.1-.4.3-1 .5-1.5l.5-1.3.7-1.4.7-1.2c.3-.4.6-.9.9-1.3l.9-1c.3-.4.8-.8 1.2-1.2l1-.8c.4-.3 1-.8 1.5-1.1l.9-.5c1.2-.6 1.3-.7 2-1l.7-.3c1-.3 1.3-.4 2.5-.7l-.4.1C-16.5-14.4-18.7 4-4.4 12.4c6.5 3.8 17.7 3.7 21.5-6.5v.2" clip-path="url(#SVGID_12_)" fill="#99894b"/><path d="M14.2 11.2c-1.1 1.3-1.2 1.4-2 2.1l-1 .8c-.4.3-1 .7-1.5 1l-.9.5c-1.2.6-1.3.6-2 1l-.7.2c-.9.3-1.9.6-3.6.9l-.5.1h-4.1c-.1 0-.3 0-.5-.1l-.5-.1c-.2 0-.4-.1-.5-.1l-.6-.1c-.2-.1-.5-.1-.7-.2l-.9-.2-.9-.3-.9-.4-1.4-.7-1-.6c-.5-.3-1.1-.8-1.5-1.1l-1-.9-1.2-1.2-.8-1c-.3-.4-.6-.9-.9-1.3l-.7-1.2-.7-1.4-.5-1.3c-.1-.4-.3-1-.4-1.5l-.3-1.5c-.1-.8-.2-1.8-.2-2.6l.1-1.4c.1-.6.1-1.2.2-1.7l.3-1.4c.1-.4.3-1 .5-1.5l.5-1.3.7-1.4.7-1.2c.3-.4.6-.9.9-1.3l.9-1c.3-.4.8-.8 1.2-1.2l1-.8c.4-.3 1-.8 1.5-1.1l.9-.5c.4-.2 1-.5 1.5-.7l-.7.5c-11.7 6.3-9.6 25.3 7 31.2 4.2 1.5 11.9 1.2 16.3-5.5l-.8 1.1-.3.4" clip-path="url(#SVGID_12_)" fill="#958649"/><path d="M11.2-13.9c9.5 7.2 8.3 21-2 23.5C-2.2 12.3-13.1-1.1-7.7-11.1c3.6-6.8 12.1-8 18.9-2.8" clip-path="url(#SVGID_12_)" fill="#b6a25a"/><path d="M11.3-13.7c8.9 6.9 7.8 20.2-2 22.6C-1.7 11.6-12.3-1.3-7.2-11c3.6-6.6 11.9-7.8 18.5-2.7" clip-path="url(#SVGID_12_)" fill="#baa65c"/><path d="M14.2-10.6C20.7-2.1 15.9 9 6 8.6-5.2 8-12-6.5-4.5-13.6c6.2-5.9 14.9-2 18.7 3" clip-path="url(#SVGID_12_)" fill="#beaa5e"/><path d="M14.2-10.4c6.1 8.3 1.4 18.9-8.1 18.3C-4 7.3-11.6-5.6-3.8-13.5c5-5.1 13.8-2.5 18 3.1" clip-path="url(#SVGID_12_)" fill="#c3ad60"/><path d="M14.1-10.2c5.8 7.9 1.1 18-8 17.4-9.6-.7-16.9-13.3-9.2-20.6 5.3-5.1 13.7-1.5 17.2 3.2" clip-path="url(#SVGID_12_)" fill="#c7b162"/><path d="M12-12.1c8.3 8 3.2 19.3-5.9 18.6-8.4-.7-16.2-12-8.5-19.8 3.1-3.1 9.8-3.2 14.4 1.2" clip-path="url(#SVGID_12_)" fill="#cbb564"/><path d="M15.5-6.1C18.1 3.4 8.8 8.1 2.4 4.8-7-.1-6.7-11.4.8-14.5c5.4-2.3 13.1 2.2 14.7 8.4" clip-path="url(#SVGID_12_)" fill="#cfb866"/><path d="M15.3-5.9C17.4 2 9.8 7.8 2.4 3.8-2.8 1-4-3.6-4-7c0-1.2 1.5-6.2 6.2-7.5 5.2-1.3 11.4 2.8 13.1 8.6" clip-path="url(#SVGID_12_)" fill="#d3bc68"/><path d="M14.1-7.9C17.8.5 10.5 7.2 2.4 2.9c-7.3-4-7.3-14.8 0-16.8 5-1.4 10.1 2.6 11.7 6" clip-path="url(#SVGID_12_)" fill="#d8bf6a"/><path d="M14.5-5.4C15.7.9 9.5 5.8 2.4 2c-.2-.2-4.9-2.8-4.8-8.8l1-3.4c.1-.1 2-2.6 4-3.2 4.6-1.3 10.8 2 11.9 8" clip-path="url(#SVGID_12_)" fill="#dcc36c"/><path d="M14-5.2c.3 1.7-.8 4.5-.8 4.5-.6.9-.8 1.3-3.6 2.8-1 .6-5.4.2-7.2-1.1-.2-.2-3-3.6-3.2-4-.1-.2-.7-3.6-.7-3.8.9-5.3 4.6-6.1 6.2-6.2 3.8-.3 8.6 2.9 9.3 7.8" clip-path="url(#SVGID_12_)" fill="#e0c66d"/><path d="M13.3-5.8c.6 2.2-1 5.3-1.2 5.4-1.1.8-4.2 3-7.8 1.2-4.4-2.3-4.7-6-4.8-7.6l1.3-3.4c.6-.9 2.5-1.8 2.5-1.8 2.3-.9 8-.5 10 6.2" clip-path="url(#SVGID_12_)" fill="#e4ca6f"/><path d="M12.7-4.7c0 2.8-2.9 4.9-3.2 5C9 .5 6.3.6 6 .5 5.8.4 2.5-1.9 2.3-2 1-3.2.7-5.5.6-6.8c0-.4.3-.8.5-1.1.2-.5.4-1.2.6-1.7.3-.9 1.9-1.9 4-2 0 0 2.1.2 2.6.4.2.1 2.9 2.3 3.3 2.8.2.2 1.1 3.2 1.1 3.7" clip-path="url(#SVGID_12_)" fill="#e8cd71"/><path d="M11.9-4.4c0 1.3-2.5 3.3-2.6 3.3C8.9-1 6-1 5.8-1c-.1 0-3-1.9-3-2-.2-.3-1.1-3.6-1.1-3.8 0-.2.1-.4.2-.5L4-10.2l2.1-.5c.5 0 2.9 1 2.9 1 .6.4 1.4.9 1.8 1.5.2.6 1.1 3.4 1.1 3.8" clip-path="url(#SVGID_12_)" fill="#edd173"/><path d="M10.4-4c-.2.5-.8 1.3-1.4 1.4-.2 0-3.1.1-3.3 0-.3 0-.7-.3-1-.6L3.4-6.9c.1-.6.6-1.3 1.1-1.6l2.4-.7 2.9 1.4c.1.2.7 3.5.6 3.8" clip-path="url(#SVGID_12_)" fill="#f1d475"/><path d="M7.7-7.1c-.1-.1-.2-.2-.3-.2l.2-.1h.1v.3" clip-path="url(#SVGID_12_)" fill="#f5d877"/></g><g><defs><path id="SVGID_13_" d="M0-17.2h.1H0h.1-.2z"/></defs><clipPath id="SVGID_14_"><use xlink:href="#SVGID_13_" overflow="visible"/></clipPath><path class="st109" d="M0-17.2h.1H0h.1-.2.1M.1-17.2H0h.1-.2.2"/><path class="st110" d="M.1-17.2h-.2.2-.2.2"/><path class="st111" d="M.1-17.2h-.2.2-.2.2"/><path class="st112" d="M.1-17.2h-.2.2-.2.2"/><path class="st113" d="M.1-17.2h-.2.2-.2.2"/><path class="st114" d="M.1-17.2"/><path class="st109" d="M.1-17.2H0h.1H0h.1"/><path class="st110" d="M0-17.2h.1H0"/><path class="st111" d="M0-17.2h.1H0"/><path class="st112" d="M0-17.2"/><path clip-path="url(#SVGID_14_)" fill="#b29f58" d="M0-17.2h.1H0"/><path class="st113" d="M0-17.2"/><path class="st114" d="M0-17.2"/><path clip-path="url(#SVGID_14_)" fill="#958649" d="M0-17.2"/></g><g><defs><path id="SVGID_15_" d="M.1-17.2H0h.1-.2.2z"/></defs><clipPath id="SVGID_16_"><use xlink:href="#SVGID_15_" overflow="visible"/></clipPath><path class="st117" d="M.1-17.2h-.2.2H0h.1M.1-17.2h-.2.2-.2.2"/><path clip-path="url(#SVGID_16_)" fill="#a99753" d="M.1-17.2h-.2.2-.2.2"/><path clip-path="url(#SVGID_16_)" fill="#a59451" d="M-.1-17.2h.2-.2"/><path clip-path="url(#SVGID_16_)" fill="#b29f58" d="M.1-17.2H0h.1"/></g></g><g id="ball-yellow-2"><defs><path id="SVGID_17_" d="M-18.2-.1c0-.6 0-2.4.6-4.5.6-2.2 1.5-3.8 1.7-4.2.4-.7 1-1.6 1.5-2.2.3-.4.7-.9 1.1-1.3 1.3-1.2 1.3-1.2 2.4-2.1.7-.5 1.5-1 2.1-1.3.9-.5 4.3-2.3 8.9-2.2 2.3 0 4 .5 4.9.7.3.1 1.1.3 2.2.8.6.2 1.3.6 1.9.9 4.4 2.5 7.3 7.4 7.3 13.3 0 9.4-7.3 18.1-16.1 19.3-.1 0-.2-.1-.4 0-.1 0-.2.1-.1.1s.2.1.4 0c.1 0 .2-.1.1-.1 8.7-1.2 16-9.9 16-19.3 0-5.9-2.9-10.8-7.3-13.3.4.2 1.3.8 2.3 1.6.8.7.8.7 2.1 2 .8.8 2 2.5 2.6 3.6 1.1 2 1.5 3.3 1.9 5.3.1.5.4 2.8.2 4.9-.1.9-.2 1.6-.6 2.9-.3 1-.3 1-1 2.8-.4.9-1.4 2.6-2.5 3.9-2.4 2.8-5.5 4.8-9 5.8-2.7.7-5.4.9-8.2.4-3.9-.7-6.6-2.5-7.4-3.1-1.2-.9-3.7-2.7-5.6-6.5-1.9-3.7-1.9-6.9-2-8.2z"/></defs><clipPath id="SVGID_18_"><use xlink:href="#SVGID_17_" overflow="visible"/></clipPath><path class="st121" d="M-18.2-.1c.1 9 6 14.5 11.5 16.7 6.7 2.7 14.7 1 19.8-4.3 8.2-8.4 6.2-22-4-27.9 4.4 2.5 7.3 7.4 7.3 13.3C16.4 7.1 9.1 15.8.3 17c.1 0 0 .1-.1.1h-.4c-.1 0 0-.1.1-.1h.4c8.7-1.1 16-9.8 16-19.2 0-5.9-2.9-10.8-7.3-13.3-13.3-7.1-27.4 3-27.2 15.4"/><path class="st121" d="M16.3-2.2C16.3 5.6 11.2 13 4.4 16c-.1 0-.3.1-.4.2-11.5 5.7-25.5-7.4-21.2-19.6C-13.5-13.8 2.5-14.3 9-1.2c2.3 4.6 2.4 13-4.6 17.2 6.8-3 11.9-10.4 11.9-18.2 0-5.9-2.9-10.8-7.3-13.3-.3-.1-.7-.3-.9-.5-.4-.2-1-.5-1.4-.6l-.8-.3-.9-.3-.6-.2c-.2 0-.5-.1-.7-.1l-.5-.1c-.2 0-.4-.1-.5-.1l-.5-.1H-2c-.1 0-.3 0-.5.1H-3c-1.5.3-2.4.5-3.8 1.1l-.9.4c-1.2.6-1.3.7-2 1.1l-1 .7c-.4.3-1 .8-1.4 1.2l-.9.9c-.3.4-.8.9-1.1 1.3l-.8 1.1c-.3.4-.6.9-.8 1.4l-.6 1.2c-.2.4-.4 1-.6 1.4l-.4 1.3c-.1.5-.3 1.1-.3 1.5l-.2 1.4c0 .5-.1 1.1-.1 1.6l.1 1.4c.1.8.3 1.8.4 2.6l.4 1.4c.2.4.4 1 .5 1.4l.6 1.3c.2.4.5.9.8 1.3l.8 1.1c.3.4.7.9 1 1.2l.9 1c.4.3.9.8 1.2 1.1l1 .7c.5.3 1.1.7 1.6 1l.9.5c.4.2 1 .4 1.4.6l.8.3.9.3.6.2c.2 0 .5.1.7.1l.5.1c.2 0 .4.1.5.1l.5.1H2.4c.1 0 .3 0 .5-.1l.6-.1c1.1-.2 2.1-.4 3.7-1l.9-.4c1.2-.6 1.3-.6 2-1.1l1-.7c.4-.3 1-.8 1.4-1.2l.9-.9c.3-.4.8-.9 1.1-1.2l.8-1.1c.3-.4.6-.9.8-1.3l.6-1.2c.2-.4.4-1 .6-1.4l.4-1.3c.1-.5.3-1.1.4-1.5l.2-1.4c0-.6.1-1.3.1-1.8l-.1-1.5c-.3-.4-.3-1-.4-1.5l-.3-1.4c-.1-.4-.3-1-.4-1.5l-.5-1.3-.7-1.4-.7-1.2c-.3-.4-.6-.9-.9-1.3l-.9-1c-.3-.4-.8-.8-1.2-1.2l-1-.8c-1.3-.9-1.4-1-2.3-1.6 4.4 2.7 7.3 7.6 7.3 13.5"/><path class="st122" d="M-17.7 4C-20.5-8.8-7.3-15.7 2.4-9.6c10.3 6.5 11 18.5 4.7 24.1 5.4-3.5 9.2-10 9.2-16.7 0-5.9-2.9-10.8-7.3-13.3-.3-.1-.7-.3-.9-.5-.4-.2-1-.5-1.4-.6l-.8-.3-.9-.3-.6-.2c-.2 0-.5-.1-.7-.1l-.5-.1c-.2 0-.4-.1-.5-.1l-.5-.1H-2c-.1 0-.3 0-.5.1H-3c-1.5.3-2.4.5-3.8 1.1l-.9.4c-1.2.6-1.3.7-2 1.1l-1 .7c-.4.3-1 .8-1.4 1.2l-.9.9c-.3.4-.8.9-1.1 1.3l-.8 1.1c-.3.4-.6.9-.8 1.4l-.6 1.2c-.2.4-.4 1-.6 1.4l-.4 1.3c-.1.5-.3 1.1-.3 1.5l-.2 1.4c0 .5-.1 1.1-.1 1.6l.1 1.4c-.2.9 0 1.9.1 2.7l.4 1.3.4 1-.4-1.3c-.2-.3-.3-.7-.4-1"/><path class="st122" d="M16.3-2.2c0 6.8-3.8 13.2-9.2 16.7l-.6.6c-6.2 4.6-12.8 2-16.1 0 .5.3 1.1.6 1.6.9.4.2 1 .4 1.4.6l.8.3.9.3.6.2c.2 0 .5.1.7.1l.5.1c.2 0 .4.1.5.1l.5.1H2.1c.1 0 .3 0 .5-.1l.6-.1c1.1-.2 2.1-.4 3.7-1l.9-.4c1.2-.6 1.3-.6 2-1.1l1-.7c.4-.3 1-.8 1.4-1.2l.9-.9c.3-.4.8-.9 1.1-1.2L15 10c.3-.4.6-.9.8-1.3l.6-1.2c.2-.4.4-1 .6-1.4l.4-1.3c.1-.5.3-1.1.4-1.5l.2-1.4c0-.6.1-1.3.1-1.8L18-1.4c0-.5 0-1.1-.1-1.6l-.3-1.4c-.1-.4-.3-1-.4-1.5l-.5-1.3-.7-1.4-.7-1.2c-.3-.4-.6-.9-.9-1.3l-.9-1c-.3-.4-.8-.8-1.2-1.2l-1-.8c-1.3-.9-1.4-1-2.3-1.6 4.4 2.7 7.3 7.6 7.3 13.5"/><path class="st123" d="M-18 2.3c-1.3-15 14.8-18.4 23.2-10.9C13.3-1.4 13.3 7.8 9 13.1c4.4-3.7 7.3-9.3 7.3-15.3 0-5.9-2.9-10.8-7.3-13.3-.3-.1-.7-.3-.9-.5-.4-.2-1-.5-1.4-.6l-.8-.3-.9-.3-.6-.2c-.2 0-.5-.1-.7-.1l-.5-.1c-.2 0-.4-.1-.5-.1l-.5-.1H-2c-.1 0-.3 0-.5.1H-3c-1.5.3-2.4.5-3.8 1.1l-.9.4c-1.2.6-1.3.7-2 1.1l-1 .7c-.4.3-1 .8-1.4 1.2l-.9.9c-.3.4-.8.9-1.1 1.3l-.8 1.1c-.3.4-.6.9-.8 1.4l-.6 1.2c-.2.4-.4 1-.6 1.4l-.4 1.3c-.1.5-.3 1.1-.3 1.5l-.2 1.4c0 .5-.1 1.1-.1 1.6l.1 1.4.1 1.3-.3-.3"/><path class="st123" d="M16.3-2.2c0 5.9-2.9 11.6-7.3 15.3-.2.2-.4.5-.6.8-4.9 5.1-10.7 4.4-14.7 3l.8.3.4.1.6.2c.2 0 .5.1.7.1l.5.1c.2 0 .4.1.5.1l.5.1H1.9c.1 0 .3 0 .5-.1l.6-.1c1.1-.2 2.1-.4 3.7-1l.9-.4c1.2-.6 1.3-.6 2-1.1l1-.7c.4-.3 1-.8 1.4-1.2l.9-.9c.3-.4.8-.9 1.1-1.2l.8-1.1c.3-.4.6-.9.8-1.3l.6-1.2c.2-.4.4-1 .6-1.4l.4-1.3c.1-.5.3-1.1.4-1.5l.2-1.4c0-.6.1-1.3.1-1.8l-.1-1.5c.2-.6.2-1.2.1-1.7l-.3-1.4c-.1-.4-.3-1-.4-1.5l-.5-1.3-.7-1.4-.7-1.2c-.3-.4-.6-.9-.9-1.3l-.9-1c-.3-.4-.8-.8-1.2-1.2l-1-.8c-1.3-.9-1.4-1-2.3-1.6 4.4 2.7 7.3 7.6 7.3 13.5"/><path class="st124" d="M-17.5-4.4c3.6-11.1 20.2-12.8 27.7.2 4.3 7.4 1.8 13.4.6 15.6 3.4-3.6 5.5-8.5 5.5-13.6 0-5.9-2.9-10.8-7.3-13.3-.3-.1-.7-.3-.9-.5-.4-.2-1-.5-1.4-.6l-.8-.3-.9-.3-.6-.2c-.2 0-.5-.1-.7-.1l-.5-.1c-.2 0-.4-.1-.5-.1l-.5-.1H-2c-.1 0-.3 0-.5.1H-3c-1.5.3-2.4.5-3.8 1.1l-.9.4c-1.2.6-1.3.7-2 1.1l-1 .7c-.4.3-1 .8-1.4 1.2l-.9.9c-.3.4-.8.9-1.1 1.3l-.8 1.1c-.3.4-.6.9-.8 1.4l-.6 1.2c-.2.4-.4 1-.6 1.4l-.4 1.3c-.1.5-.3 1.1-.3 1.5l-.2 1.4-.1 1.4.1-1.3c-.1-1.4 0-1.9.3-2.8"/><path class="st124" d="M16.3-2.2c0 5.1-2.2 10-5.5 13.6-.1.2-.2.5-.3.7-1.3 2.1-5.2 6.8-13.2 5.6l.5.1H2c.1 0 .3 0 .5-.1l.6-.1c1.1-.2 2.1-.4 3.7-1l.9-.4c1.2-.6 1.3-.6 2-1.1l1-.7c.4-.3 1-.8 1.4-1.2l.9-.9c.3-.4.8-.9 1.1-1.2l.8-1.1c.3-.4.6-.9.8-1.3l.6-1.2c.2-.4.4-1 .6-1.4l.4-1.3c.1-.5.3-1.1.4-1.5l.2-1.4c0-.6.1-1.3.1-1.8l-.1-1.5c.1-.5.1-1.1 0-1.6l-.3-1.4c-.1-.4-.3-1-.4-1.5l-.5-1.3-.7-1.4-.7-1.2c-.3-.4-.6-.9-.9-1.3l-.9-1c-.3-.4-.8-.8-1.2-1.2l-1-.8c-1.3-.9-1.4-1-2.3-1.6 4.4 2.7 7.3 7.6 7.3 13.5"/><path class="st125" d="M-17.6-4.5c4-13 21.5-12.7 28.9.5 2.4 4.4 2.8 9 1 13.6 2.5-3.4 4-7.5 4-11.8 0-5.9-2.9-10.8-7.3-13.3-.3-.1-.7-.3-.9-.5-.4-.2-1-.5-1.4-.6l-.8-.3-.9-.3-.6-.2c-.2 0-.5-.1-.7-.1l-.5-.1c-.2 0-.4-.1-.5-.1l-.5-.1H-2c-.1 0-.3 0-.5.1H-3c-1.5.3-2.4.5-3.8 1.1l-.9.4c-1.2.6-1.3.7-2 1.1l-1 .7c-.4.3-1 .8-1.4 1.2l-.9.9c-.3.4-.8.9-1.1 1.3l-.8 1.1c-.3.4-.6.9-.8 1.4l-.6 1.2c-.2.4-.4 1-.6 1.4l-.7 1.4c-.1.4-.2.9-.3 1.4l.3-1.2v-.2"/><path class="st125" d="M16.3-2.2c0 4.3-1.5 8.5-4 11.8-.1.3-.2.7-.3 1-2.1 4.4-6.1 7-11 7.3h1.1c.1 0 .3 0 .5-.1l.6-.1c1.1-.2 2.1-.4 3.7-1l.9-.4c1.2-.6 1.3-.6 2-1.1l1-.7c.4-.3 1-.8 1.4-1.2l.9-.9c.3-.4.8-.9 1.1-1.2l.8-1.1c.3-.4.6-.9.8-1.3l.6-1.2c.2-.4.4-1 .6-1.4l.4-1.3c.1-.5.3-1.1.4-1.5L18 2c0-.6.1-1.3.1-1.8L18-1.3c0-.6 0-1.2-.1-1.7l-.3-1.4c-.1-.4-.3-1-.4-1.5l-.5-1.3-.7-1.4-.7-1.2c-.3-.4-.6-.9-.9-1.3l-.9-1c-.3-.4-.8-.8-1.2-1.2l-1-.8c-1.3-.9-1.4-1-2.3-1.6 4.4 2.7 7.3 7.6 7.3 13.5"/><path class="st126" d="M-16.5-7.5c6.6-12.7 25.4-7.4 29.7 5.2 1.2 3.4 1.3 6.3.5 9.7 1.6-2.9 2.6-6.2 2.6-9.6 0-5.9-2.9-10.8-7.3-13.3-.3-.1-.7-.3-.9-.5-.4-.2-1-.5-1.4-.6l-.8-.3-.9-.3-.6-.2c-.2 0-.5-.1-.7-.1l-.5-.1c-.2 0-.4-.1-.5-.1l-.5-.1H-2c-.1 0-.3 0-.5.1H-3c-1.5.3-2.4.5-3.8 1.1l-.9.4c-1.2.6-1.3.7-2 1.1l-1 .7c-.4.3-1 .8-1.4 1.2l-.9.9c-.3.4-.8.9-1.1 1.3l-.8 1.1c-.3.4-.6.9-.8 1.4l-.6 1.2c-.2.4-.4 1-.6 1.4l.5-1.1c-.2-.2-.1-.4-.1-.5"/><path class="st126" d="M16.3-2.2c0 3.4-1 6.7-2.6 9.6-.1.3-.1.8-.2 1.1-1.2 4.4-5 8-9.6 9l.6-.2c.8-.2 1.3-.3 2.2-.7l.9-.4c1.2-.6 1.3-.6 2-1.1l1-.7c.4-.3 1-.8 1.4-1.2l.9-.9c.3-.4.8-.9 1.1-1.2l.8-1.1c.3-.4.6-.9.8-1.3l.6-1.2c.2-.4.4-1 .6-1.4l.4-1.3c.1-.5.3-1.1.4-1.5l.2-1.4c0-.6.1-1.3.1-1.8l-.1-1.5c.2-.5.2-1.1.1-1.6l-.3-1.4c-.1-.4-.3-1-.4-1.5l-.5-1.3-.7-1.4-.7-1.2c-.3-.4-.6-.9-.9-1.3l-.9-1c-.3-.4-.8-.8-1.2-1.2l-1-.8c-1.3-.9-1.4-1-2.3-1.6 4.4 2.7 7.3 7.6 7.3 13.5"/><path class="st127" d="M-13.3-12C-1.6-22.7 15.5-9.3 15.1 2.7c0 .6-.1 1.4-.2 2 .8-2.2 1.3-4.5 1.3-6.9 0-5.9-2.9-10.8-7.3-13.3-.3-.1-.7-.3-.9-.5-.4-.2-1-.5-1.4-.6l-.8-.3c-.2-.1-.5-.2-.8-.3l-.6-.2c-.2 0-.5-.1-.7-.1l-.5-.1c-.2 0-.4-.1-.5-.1l-.5-.1H-2c-.1 0-.3 0-.5.1H-3c-1.5.3-2.4.5-3.8 1.1l-.9.4c-1.2.6-1.3.7-2 1.1l-1 .7c-.4.3-1 .8-1.4 1.2l-.9.9c-.3.4-.8.9-1.1 1.3l-.8 1.1-.2.3.6-.8c.5-.9.7-1.2 1.2-1.6"/><path class="st127" d="M16.3-2.2c0 2.4-.5 4.7-1.3 6.9v1c-.7 6.6-5.1 9.5-7.7 10.7l1-.4c.4-.2 1-.6 1.4-.8l1-.7c.4-.3 1-.8 1.4-1.2l.9-.9c.3-.4.8-.9 1.1-1.2l.8-1.1c.3-.4.6-.9.8-1.3l.6-1.2c.2-.4.4-1 .6-1.4l.4-1.3c.1-.5.3-1.1.4-1.5l.2-1.4c0-.6.1-1.3.1-1.8l-.1-1.5c.1-.6.1-1.2 0-1.7l-.3-1.4c-.1-.4-.3-1-.4-1.5l-.5-1.3-.7-1.4-.7-1.2c-.3-.4-.6-.9-.9-1.3l-.9-1c-.3-.4-.8-.8-1.2-1.2l-1-.8c-1.3-.9-1.4-1-2.3-1.6 4.4 2.7 7.3 7.6 7.3 13.5"/><path d="M-1.3 17.2C10.8 16.4 13.1 1.9 5-5.7-5.3-15.4-18.3-9-17.8 2.1c.5 8.4 8.3 15.6 16.5 15.1" clip-path="url(#SVGID_18_)" fill="#b29f58"/><path d="M-4.3 16.9C5.7 18.3 14.5 7 5-4.6-1-12-15.7-12.2-17.5-.3c-1.1 7.8 5.2 16 13.2 17.2" clip-path="url(#SVGID_18_)" fill="#b6a25a"/><path d="M-5.4 16.5c10.5 2.3 17.6-9 11.5-18.3-7.9-12-21.6-8-23.3 1.2-1.3 7.5 4.1 15.4 11.8 17.1" clip-path="url(#SVGID_18_)" fill="#baa65c"/><path d="M-8.1 15.4c9 3.7 19.7-2.8 14.3-15.7 0-.1-3.3-7.5-12.1-8.3-5.3-.4-9.1 3-10.4 6.3-2.9 7.3 2 15.2 8.2 17.7" clip-path="url(#SVGID_18_)" fill="#beaa5e"/><path d="M-8.1 15.2C1 19 10.2 11.6 5.9.9c-4-9.8-17.8-12-21.7-3.4-3.3 7.2 1.3 15 7.7 17.7" clip-path="url(#SVGID_18_)" fill="#c3ad60"/><path d="M-8 15C.7 18.4 9.4 11 5 .8 1.3-7.9-12-10.9-15.7-1.6-18.5 5.4-14 12.3-8 15" clip-path="url(#SVGID_18_)" fill="#c7b162"/><path d="M-11.1 12.9C-.9 19.7 7.3 11.4 5.2 3.2 2.7-6.6-10.9-10.1-15.1-1.9c-3.8 7.4 2.3 13.7 4 14.8" clip-path="url(#SVGID_18_)" fill="#cbb564"/><path d="M-7.6 14.5C.5 17.3 7.5 9.5 3.8 1.9c-3.2-6.4-8-7.5-10-7.7-4.4-.4-8 1.9-9.3 6-1.5 4.9 1 11.6 7.9 14.3" clip-path="url(#SVGID_18_)" fill="#cfb866"/><path d="M-10.9 12.3c3.8 2.9 8 2.6 10 1.6 1.3-.6 5.5-3.2 4.8-8.9C2.7-3.8-8.7-8.5-13.5-2.1c-5.9 7.6 2.5 14.4 2.6 14.4" clip-path="url(#SVGID_18_)" fill="#d3bc68"/><path d="M-10.7 12.1c5 3.5 9 1.7 10.1 1 2-1.2 4.2-3.6 3.4-8.8C1.7-2.9-8.9-7.6-13.5-1.2c-1.4 2-3.9 7.2 2.8 13.3" clip-path="url(#SVGID_18_)" fill="#d8bf6a"/><path d="M-10.3 11.9s4.9 3.4 9.1.8l2.6-2.5c1.1-3 1.1-3 .6-5.9C1.6 1.7-.3-.3-1.1-1c-.5-.5-1.3-1.2-5-2.3 0 0-4.6-.9-7.2 3-2.3 3.3-1.7 8.8 3 12.2" clip-path="url(#SVGID_18_)" fill="#dcc36c"/><path d="M-9.8 11.7c1 .7 5 2.1 6.8 1.1 1.9-1.1 5.1-2.8 4.3-7.3C1 3.8.8 3 .8 2.9.6 2.6-2.2-.9-2.4-1c-3.4-1.5-3.4-1.5-5.1-1.4-2 .1-3.3.2-5 2-1.3 1.3-3.7 7.5 2.7 12.1" clip-path="url(#SVGID_18_)" fill="#e0c66d"/><path d="M-10.7 10.2c2.7 2.5 5.5 2.3 7.3 1.8 0 0 1.9-.8 2.6-1.8L.4 6.8c0-.1-.8-3.7-.9-3.8-1-1.6-2.1-2.8-4-3.8-1-.5-1.8-.9-5.2-.4-.1 0-2.2 1.3-2.4 1.5 0 0-3.9 5.1 1.4 9.9" clip-path="url(#SVGID_18_)" fill="#e4ca6f"/><path d="M-8.3 11.1c.6.3 2.7.5 2.7.5l2-.4 1.6-1c.9-1 1.5-3.5 1.5-3.5l-1-3.7C-2.1 1.6-6-.5-6-.5c-.9-.1-3.3 0-3.5.1-.7.3-2.6 2.5-2.6 2.5-.1.3-.7 2.2-.7 2.5 0 0 .2 1.5 1.1 3.7.2.2 3.1 2.7 3.4 2.8" clip-path="url(#SVGID_18_)" fill="#e8cd71"/><path d="M-8.9 9.7s1.8.9 2.9 1.1l2.2-.5c.2-.2.3-.6.5-.8.2-.5.6-1.2 1-1.7.2-.3.7-.7.6-1.1C-2 5-2.9 3-2.9 3c0-.1-2.9-1.9-3-2h-3.4c-.1 0-1.6 1.5-2.4 2.5-.7 1 .8 4.4.9 4.5.4.7 1.2 1.3 1.9 1.7" clip-path="url(#SVGID_18_)" fill="#edd173"/><path d="M-6.8 9.2l2.4-.7c.5-.3 1-1.1 1.1-1.7l-1.4-3.7c-.3-.2-.6-.5-1-.6H-9c-.5.2-1.1.8-1.3 1.4-.1.3.3 3.6.5 3.8l3 1.5" clip-path="url(#SVGID_18_)" fill="#f1d475"/><path d="M-7.6 7.4c.2 0 .4-.1.5-.2-.2-.1-.5-.3-.7-.4 0 .2 0 .4.1.6h.1" clip-path="url(#SVGID_18_)" fill="#f5d877"/><g><defs><path id="SVGID_19_" d="M-9 15.5c-.6-.4-1.3-.8-2.6-1.8-.6-.5-1.4-1.2-1.9-1.8-.7-.7-2-2.5-2.7-3.8-.7-1.5-.8-1.7-1.1-2.7-.4-1.3-.6-2.2-.7-2.9-.1-.8-.2-1.8-.2-2.6 0-.9.1-2 .2-2.9.1-.9.7-3 1.3-4.3.8-1.7.8-1.7 1.4-2.5.8-1.2 1.4-1.9 1.8-2.3 1.3-1.4 4.1-4 8.6-5.2 2.3-.6 4.7-.8 7.1-.5 3.5.5 5.8 1.7 6.8 2.3-2.6-1.5-5.7-2.1-9-1.7 3.3-.4 6.4.2 9 1.7.6.4 1.5.9 2.1 1.4.4.3 1.4 1.1 2.2 2 1.8 2 2.5 3.2 3.3 4.9.8 1.6 1.3 3.7 1.3 4.3.2 1.8.3 1.9.3 3 0 .9-.1 2-.2 2.9-.2 1.2-.7 3.2-1.4 4.5-.6 1.3-.8 1.6-1.4 2.5-.6.8-1.2 1.6-1.8 2.3-2.6 2.7-5.7 4.5-9.2 5.3-2.3.4-4.6.4-6.9.1-3-.4-5.2-1.5-6.3-2.2z"/></defs><clipPath id="SVGID_20_"><use xlink:href="#SVGID_19_" overflow="visible"/></clipPath><path class="st145" d="M-9 15.5c-3.1-1.8-10.3-7.3-8.9-18.5.6-4.5 4.5-12 13.1-14.3 3.3-.9 8.3-1.3 13.9 1.7-2.6-1.5-5.7-2.1-9-1.7 3.3-.4 6.4.2 9 1.7C18.7-9.7 18.5-.8 18 2.8c-.8 5.7-5.5 12.7-13.8 14.6-4.6 1.1-9.3.4-13.2-1.9"/><path class="st145" d="M9-15.5c.9.5 1.9 1.2 3.3 2.4l.9.9c.3.4.8.9 1.1 1.2l.8 1.1c.2.4.6.9.8 1.3l.6 1.2c.2.4.4 1 .6 1.4l.4 1.3c.1.5.3 1.1.3 1.5l.2 1.4c0 .5.1 1.1.1 1.6L18 1.2c0 .8-.1 1.5-.2 2.1l-.3 1.4c-.1.4-.3 1-.5 1.5l-.5 1.3-.7 1.4-.7 1.2c-.3.4-.6.9-.9 1.3l-.9 1c-.4.3-.8.8-1.2 1.2l-1 .8c-.4.3-1 .7-1.5 1l-.9.5c-1.2.6-1.3.6-2 1l-.7.2c-.9.3-1.9.6-3.6.9l-.4-.2h-4.1c-.1 0-.3 0-.5-.1l-.5-.1c-.2 0-.4-.1-.5-.1l-.6-.1c-.2-.1-.5-.1-.7-.2l-.9-.2-.9-.3-.9-.4-1.4-.7-1-.6c-.5-.3-1.1-.8-1.5-1.1l-1-.9-1.2-1.2-.8-1c-.3-.4-.6-.9-.9-1.3l-.7-1.2-.7-1.4-.5-1.3c-.1-.4-.3-1-.4-1.5l-.3-1.5c-.1-.8-.2-1.8-.2-2.6l.1-1.4c.1-.6.1-1.2.2-1.7l.3-1.4c.1-.4.3-1 .5-1.5l.5-1.3.7-1.4.7-1.2c.3-.4.6-.9.9-1.3l.9-1c.3-.4.8-.8 1.2-1.2l1-.8c.4-.3 1-.8 1.5-1.1l.9-.5c1.2-.6 1.3-.7 2-1l.7-.3c1-.3 1.9-.6 3.8-.9l.5-.1h4.1c.1 0 .3 0 .5.1l.5.1c.2 0 .4.1.5.1l.6.1c.2.1.5.1.7.2l.7.5c.3.1.7.2.9.3l.9.4c.4.3 1 .5 1.4.8-2.6-1.5-5.7-2.1-9-1.7-15.4 4.8-10.2 20.5-1.3 25.7 10.4 6 21.6-2 18.7-13.4C15.9-10.4 11.8-17 0-17.2c3.4-.4 6.5.2 9 1.7"/><path d="M9-15.5c.9.5 1.9 1.2 3.3 2.4l.9.9c.3.4.8.9 1.1 1.2l.8 1.1c.2.4.6.9.8 1.3l.6 1.2c.2.4.4 1 .6 1.4l.4 1.3c.1.5.3 1.1.3 1.5l.2 1.4c0 .5.1 1.1.1 1.6L18 1.2c0 .8-.1 1.5-.2 2.1l-.3 1.4c-.1.4-.3 1-.5 1.5l-.5 1.3-.7 1.4-.7 1.2c-.3.4-.6.9-.9 1.3l-.9 1c-.4.3-.8.8-1.2 1.2l-1 .8c-.4.3-1 .7-1.5 1l-.9.5c-1.2.6-1.3.6-2 1l-.7.2c-.9.3-1.9.6-3.6.9l-.4-.2h-4.1c-.1 0-.3 0-.5-.1l-.5-.1c-.2 0-.4-.1-.5-.1l-.6-.1c-.2-.1-.5-.1-.7-.2l-.9-.2-.9-.3-.9-.4-1.4-.7-1-.6c-.5-.3-1.1-.8-1.5-1.1l-1-.9-1.2-1.2-.8-1c-.3-.4-.6-.9-.9-1.3l-.7-1.2-.7-1.4-.5-1.3c-.1-.4-.3-1-.4-1.5l-.3-1.5c-.1-.8-.2-1.8-.2-2.6l.1-1.4c.1-.6.1-1.2.2-1.7l.3-1.4c.1-.4.3-1 .5-1.5l.5-1.3.7-1.4.7-1.2c.3-.4.6-.9.9-1.3l.9-1c.3-.4.8-.8 1.2-1.2l1-.8c.4-.3 1-.8 1.5-1.1l.9-.5c1.2-.6 1.3-.7 2-1l.7-.3c1-.3 1.9-.6 3.8-.9l.5-.1h4.1c.1 0 .3 0 .5.1l.5.1c.2 0 .4.1.5.1l.6.1c.2.1.5.1.7.2l.7.5c.3.1.7.2.9.3l.9.4c.4.3 1 .5 1.4.8-1-.5-2-1-3.1-1.3-.3-.1-.8-.2-1.1-.3C-9-19.8-14.6-5.3-7 4.6 1 14.9 16 12.7 17.8 1c1.1-7.4-4.2-15.4-11.9-17.8 1.1.3 2.2.7 3.1 1.3" clip-path="url(#SVGID_20_)" fill="#ae9b55"/><path class="st147" d="M17.2-5.9c.2.6.5 1.5.7 2.9l.2 1.4c0 .5.1 1.1.1 1.6l-.1 1.4c-.1.6-.2 1.3-.3 1.9l-.3 1.4c-.1.4-.3 1-.5 1.5l-.5 1.3-.7 1.4-.7 1.2c-.3.4-.6.9-.9 1.3l-.9 1c-.4.3-.8.8-1.2 1.2l-1 .8c-.4.3-1 .7-1.5 1l-.9.5c-1.2.6-1.3.6-2 1l-.7.2c-.9.3-1.9.6-3.6.9l-.4-.2h-4.1c-.1 0-.3 0-.5-.1l-.5-.1c-.2 0-.4-.1-.5-.1l-.6-.1c-.2-.1-.5-.1-.7-.2l-.9-.2-.9-.3-.9-.4-1.4-.7-1-.6c-.5-.3-1.1-.8-1.5-1.1l-1-.9-1.2-1.2-.8-1c-.3-.4-.6-.9-.9-1.3l-.7-1.2-.7-1.4-.5-1.3c-.1-.4-.3-1-.4-1.5l-.3-1.5c-.1-.8-.2-1.8-.2-2.6l.1-1.4c.1-.6.1-1.2.2-1.7l.3-1.4c.1-.4.3-1 .5-1.5l.5-1.3.7-1.4.7-1.2c.3-.4.6-.9.9-1.3l.9-1c.3-.4.8-.8 1.2-1.2l1-.8c.4-.3 1-.8 1.5-1.1l.9-.5c1.2-.6 1.3-.7 2-1l.7-.3c1-.3 1.9-.6 3.8-.9l.5-.1h4.1c.1 0 .3 0 .5.1l.5.1c.2 0 .4.1.5.1l.6.1c.2.1.5.1.7.2l.7.5c.3.1.7.2.9.3l.9.4c.4.3 1 .5 1.4.8-.1-.1-.3-.2-.4-.2-.3-.2-.7-.4-1.1-.5C-5.1-21.6-14.2-10.8-10.3 0-5.8 12.7 11 16.3 16.5 5.7c1.9-3.7 2.1-7.5.5-12 0 .1.1.3.2.4"/><path class="st147" d="M9-15.5c.3.2.7.4 1 .6-.3-.2-.8-.5-1.1-.7l-.3-.1c.2 0 .3.1.4.2"/><path d="M18.2 0c-.1 1.9-.1 2-.3 3.3l-.3 1.4c-.1.4-.3 1-.5 1.5l-.5 1.3-.7 1.4-.7 1.2c-.3.4-.6.9-.9 1.3l-.9 1c-.4.3-.8.8-1.2 1.2l-1 .8c-.4.3-1 .7-1.5 1l-.9.5c-1.2.6-1.3.6-2 1l-.7.2c-.9.3-1.9.6-3.6.9l-.5-.2h-4.1c-.1 0-.3 0-.5-.1l-.5-.1c-.2 0-.4-.1-.5-.1l-.6-.1c-.2-.1-.5-.1-.7-.2l-.9-.2-.9-.3-.9-.4-1.4-.7-1-.6c-.5-.3-1.1-.8-1.5-1.1l-1-.9-1.2-1.2-.8-1c-.3-.4-.6-.9-.9-1.3l-.7-1.2-.7-1.4-.5-1.3c-.1-.4-.3-1-.4-1.5l-.3-1.5c-.1-.8-.2-1.8-.2-2.6l.1-1.4c.1-.6.1-1.2.2-1.7l.3-1.4c.1-.4.3-1 .5-1.5l.5-1.3.7-1.4.7-1.2c.3-.4.6-.9.9-1.3l.9-1c.3-.4.8-.8 1.2-1.2l1-.8c.4-.3 1-.8 1.5-1.1l.9-.5c1.2-.6 1.3-.7 2-1l.7-.3c1-.3 1.9-.6 3.8-.9l.5-.1h4.1c.1 0 .3 0 .5.1l.5.1c.2 0 .4.1.5.1l.6.1c.2.1.5.1.7.2l.7.5.5.2-.3-.1C-6.2-20.8-16.8-10.3-9.5 3.7c5.1 9.7 22.3 13.5 26.9.5.7-2.1.9-4.3.6-6.8l.2 1.4V0" clip-path="url(#SVGID_20_)" fill="#a59451"/><path d="M17.8 3.3c-.4 1.8-.4 1.9-.8 2.8l-.5 1.3-.7 1.4-.7 1.2c-.3.4-.6.9-.9 1.3l-.9 1c-.4.3-.8.8-1.2 1.2l-1 .8c-.4.3-1 .7-1.5 1l-.9.5c-1.2.6-1.3.6-2 1L6 17c-.9.3-1.9.6-3.6.9l-.4-.1h-4.1c-.1 0-.3 0-.5-.1l-.5-.1c-.2 0-.4-.1-.5-.1l-.6-.1c-.2-.1-.5-.1-.7-.2l-.9-.2-.9-.3-.9-.4-1.4-.7-1-.6c-.5-.3-1.1-.8-1.5-1.1l-1-.9-1.2-1.2-.8-1c-.3-.4-.6-.9-.9-1.3l-.7-1.2-.7-1.4-.5-1.3c-.1-.4-.3-1-.4-1.5l-.3-1.5c-.1-.8-.2-1.8-.2-2.6l.1-1.4c.1-.6.1-1.2.2-1.7l.3-1.4c.1-.4.3-1 .5-1.5l.5-1.3.7-1.4.7-1.2c.3-.4.6-.9.9-1.3l.9-1c.3-.4.8-.8 1.2-1.2l1-.8c.4-.3 1-.8 1.5-1.1l.9-.5c1.2-.6 1.3-.7 2-1l.7-.3c1-.3 1.9-.6 3.8-.9l.5-.1h4.1c.1 0 .3 0 .5.1C-9.7-19.3-18-5.8-8.6 6.4-.7 16.6 16.2 15.6 18 1.9c.1-.5.1-1.2.1-1.6L18 1.7c0 .5-.1 1.1-.2 1.6" clip-path="url(#SVGID_20_)" fill="#a1904f"/><path d="M17.8 3.3c-.2.8-.3 1.6-.8 2.8l-.5 1.3-.7 1.4-.7 1.2c-.3.4-.6.9-.9 1.3l-.9 1c-.4.3-.8.8-1.2 1.2l-1 .8c-.4.3-1 .7-1.5 1l-.9.5c-1.2.6-1.3.6-2 1L6 17c-.9.3-1.9.6-3.6.9l-.4-.1h-4.1c-.1 0-.3 0-.5-.1l-.5-.1c-.2 0-.4-.1-.5-.1l-.6-.1c-.2-.1-.5-.1-.7-.2l-.9-.2-.9-.3-.9-.4-1.4-.7-1-.6c-.5-.3-1.1-.8-1.5-1.1l-1-.9-1.2-1.2-.8-1c-.3-.4-.6-.9-.9-1.3l-.7-1.2-.7-1.4-.5-1.3c-.1-.4-.3-1-.4-1.5l-.3-1.5c-.1-.8-.2-1.8-.2-2.6l.1-1.4c.1-.6.1-1.2.2-1.7l.3-1.4c.1-.4.3-1 .5-1.5l.5-1.3.7-1.4.7-1.2c.3-.4.6-.9.9-1.3l.9-1c.3-.4.8-.8 1.2-1.2l1-.8c.4-.3 1-.8 1.5-1.1l.9-.5c1.2-.6 1.3-.7 2-1l.7-.3c1-.3 1.9-.6 3.8-.9l.5-.1h1.2-.4c-13 1-16.7 17.7-5.9 27 10.6 9.2 23 4.4 24.9-6l-.2.4" clip-path="url(#SVGID_20_)" fill="#9d8d4d"/><path d="M17.1 6.1c-.3.7-.6 1.5-1.2 2.6l-.7 1.2c-.3.4-.6.9-.9 1.3l-.9 1c-.4.3-.8.8-1.2 1.2l-1 .8c-.4.3-1 .7-1.5 1l-.9.5c-1.2.6-1.3.6-2 1l-.7.2c-.9.3-1.9.6-3.6.9h-4.6c-.1 0-.3 0-.5-.1l-.5-.1c-.2 0-.4-.1-.5-.1l-.6-.1c-.2-.1-.5-.1-.7-.2l-.9-.2-.9-.3-.9-.4-1.4-.7-1-.6c-.5-.3-1.1-.8-1.5-1.1l-1-.9-1.2-1.2-.8-1c-.3-.4-.6-.9-.9-1.3l-.7-1.2-.7-1.4-.5-1.3c-.1-.4-.3-1-.4-1.5l-.3-1.5c-.1-.8-.2-1.8-.2-2.6l.1-1.4c.1-.6.1-1.2.2-1.7l.3-1.4c.1-.4.3-1 .5-1.5l.5-1.3.7-1.4.7-1.2c.3-.4.6-.9.9-1.3l.9-1c.3-.4.8-.8 1.2-1.2l1-.8c.4-.3 1-.8 1.5-1.1l.9-.5c1.2-.6 1.3-.7 2-1l.7-.3c1-.3 1.3-.4 2.5-.7l-.4.1C-16.5-14.4-18.7 4-4.4 12.4c6.5 3.8 17.7 3.7 21.5-6.5v.2" clip-path="url(#SVGID_20_)" fill="#99894b"/><path d="M14.2 11.2c-1.1 1.3-1.2 1.4-2 2.1l-1 .8c-.4.3-1 .7-1.5 1l-.9.5c-1.2.6-1.3.6-2 1l-.7.2c-.9.3-1.9.6-3.6.9l-.5.1h-4.1c-.1 0-.3 0-.5-.1l-.5-.1c-.2 0-.4-.1-.5-.1l-.6-.1c-.2-.1-.5-.1-.7-.2l-.9-.2-.9-.3-.9-.4-1.4-.7-1-.6c-.5-.3-1.1-.8-1.5-1.1l-1-.9-1.2-1.2-.8-1c-.3-.4-.6-.9-.9-1.3l-.7-1.2-.7-1.4-.5-1.3c-.1-.4-.3-1-.4-1.5l-.3-1.5c-.1-.8-.2-1.8-.2-2.6l.1-1.4c.1-.6.1-1.2.2-1.7l.3-1.4c.1-.4.3-1 .5-1.5l.5-1.3.7-1.4.7-1.2c.3-.4.6-.9.9-1.3l.9-1c.3-.4.8-.8 1.2-1.2l1-.8c.4-.3 1-.8 1.5-1.1l.9-.5c.4-.2 1-.5 1.5-.7l-.7.5c-11.7 6.3-9.6 25.3 7 31.2 4.2 1.5 11.9 1.2 16.3-5.5l-.8 1.1-.3.4" clip-path="url(#SVGID_20_)" fill="#958649"/><path d="M11.2-13.9c9.5 7.2 8.3 21-2 23.5C-2.2 12.3-13.1-1.1-7.7-11.1c3.6-6.8 12.1-8 18.9-2.8" clip-path="url(#SVGID_20_)" fill="#b6a25a"/><path d="M11.3-13.7c8.9 6.9 7.8 20.2-2 22.6C-1.7 11.6-12.3-1.3-7.2-11c3.6-6.6 11.9-7.8 18.5-2.7" clip-path="url(#SVGID_20_)" fill="#baa65c"/><path d="M14.2-10.6C20.7-2.1 15.9 9 6 8.6-5.2 8-12-6.5-4.5-13.6c6.2-5.9 14.9-2 18.7 3" clip-path="url(#SVGID_20_)" fill="#beaa5e"/><path d="M14.2-10.4c6.1 8.3 1.4 18.9-8.1 18.3C-4 7.3-11.6-5.6-3.8-13.5c5-5.1 13.8-2.5 18 3.1" clip-path="url(#SVGID_20_)" fill="#c3ad60"/><path d="M14.1-10.2c5.8 7.9 1.1 18-8 17.4-9.6-.7-16.9-13.3-9.2-20.6 5.3-5.1 13.7-1.5 17.2 3.2" clip-path="url(#SVGID_20_)" fill="#c7b162"/><path d="M12-12.1c8.3 8 3.2 19.3-5.9 18.6-8.4-.7-16.2-12-8.5-19.8 3.1-3.1 9.8-3.2 14.4 1.2" clip-path="url(#SVGID_20_)" fill="#cbb564"/><path d="M15.5-6.1C18.1 3.4 8.8 8.1 2.4 4.8-7-.1-6.7-11.4.8-14.5c5.4-2.3 13.1 2.2 14.7 8.4" clip-path="url(#SVGID_20_)" fill="#cfb866"/><path d="M15.3-5.9C17.4 2 9.8 7.8 2.4 3.8-2.8 1-4-3.6-4-7c0-1.2 1.5-6.2 6.2-7.5 5.2-1.3 11.4 2.8 13.1 8.6" clip-path="url(#SVGID_20_)" fill="#d3bc68"/><path d="M14.1-7.9C17.8.5 10.5 7.2 2.4 2.9c-7.3-4-7.3-14.8 0-16.8 5-1.4 10.1 2.6 11.7 6" clip-path="url(#SVGID_20_)" fill="#d8bf6a"/><path d="M14.5-5.4C15.7.9 9.5 5.8 2.4 2c-.2-.2-4.9-2.8-4.8-8.8l1-3.4c.1-.1 2-2.6 4-3.2 4.6-1.3 10.8 2 11.9 8" clip-path="url(#SVGID_20_)" fill="#dcc36c"/><path d="M14-5.2c.3 1.7-.8 4.5-.8 4.5-.6.9-.8 1.3-3.6 2.8-1 .6-5.4.2-7.2-1.1-.2-.2-3-3.6-3.2-4-.1-.2-.7-3.6-.7-3.8.9-5.3 4.6-6.1 6.2-6.2 3.8-.3 8.6 2.9 9.3 7.8" clip-path="url(#SVGID_20_)" fill="#e0c66d"/><path d="M13.3-5.8c.6 2.2-1 5.3-1.2 5.4-1.1.8-4.2 3-7.8 1.2-4.4-2.3-4.7-6-4.8-7.6l1.3-3.4c.6-.9 2.5-1.8 2.5-1.8 2.3-.9 8-.5 10 6.2" clip-path="url(#SVGID_20_)" fill="#e4ca6f"/><path d="M12.7-4.7C12.7-2 10 .2 9.5.3 9 .5 6.3.6 6 .5 5.8.4 2.5-1.9 2.3-2 1-3.2.7-5.5.6-6.8c0-.4.3-.8.5-1.1.2-.5.4-1.2.6-1.7.3-.9 1.9-1.9 4-2 0 0 2.1.2 2.6.4.2.1 2.9 2.3 3.3 2.8.2.2 1.1 3.2 1.1 3.7" clip-path="url(#SVGID_20_)" fill="#e8cd71"/><path d="M11.9-4.4c0 1.3-2.5 3.3-2.6 3.3C8.9-1 6-1 5.8-1c-.1 0-3-1.9-3-2-.2-.3-1.1-3.6-1.1-3.8 0-.2.1-.4.2-.5L4-10.2l2.1-.5c.5 0 2.9 1 2.9 1 .6.4 1.4.9 1.8 1.5.2.6 1.1 3.4 1.1 3.8" clip-path="url(#SVGID_20_)" fill="#edd173"/><path d="M10.4-4c-.2.5-.8 1.3-1.4 1.4-.2 0-3.1.1-3.3 0-.3 0-.7-.3-1-.6L3.4-6.9c.1-.6.6-1.3 1.1-1.6l2.4-.7 2.9 1.4c.1.2.7 3.5.6 3.8" clip-path="url(#SVGID_20_)" fill="#f1d475"/><path d="M7.7-7.1c-.1-.1-.2-.2-.3-.2l.2-.1h.1v.3" clip-path="url(#SVGID_20_)" fill="#f5d877"/></g><g><defs><path id="SVGID_21_" d="M0-17.2h.1H0h.1-.2z"/></defs><clipPath id="SVGID_22_"><use xlink:href="#SVGID_21_" overflow="visible"/></clipPath><path class="st169" d="M0-17.2h.1H0h.1-.2.1M.1-17.2H0h.1-.2.2"/><path class="st170" d="M.1-17.2h-.2.2-.2.2"/><path class="st171" d="M.1-17.2h-.2.2-.2.2"/><path class="st172" d="M.1-17.2h-.2.2-.2.2"/><path class="st173" d="M.1-17.2h-.2.2-.2.2"/><path class="st174" d="M.1-17.2"/><path class="st169" d="M.1-17.2H0h.1H0h.1"/><path class="st170" d="M0-17.2h.1H0"/><path class="st171" d="M0-17.2h.1H0"/><path class="st172" d="M0-17.2"/><path clip-path="url(#SVGID_22_)" fill="#b29f58" d="M0-17.2h.1H0"/><path class="st173" d="M0-17.2"/><path class="st174" d="M0-17.2"/><path clip-path="url(#SVGID_22_)" fill="#958649" d="M0-17.2"/></g><g><defs><path id="SVGID_23_" d="M.1-17.2H0h.1-.2.2z"/></defs><clipPath id="SVGID_24_"><use xlink:href="#SVGID_23_" overflow="visible"/></clipPath><path class="st177" d="M.1-17.2h-.2.2H0h.1M.1-17.2h-.2.2-.2.2"/><path clip-path="url(#SVGID_24_)" fill="#a99753" d="M.1-17.2h-.2.2-.2.2"/><path clip-path="url(#SVGID_24_)" fill="#a59451" d="M-.1-17.2h.2-.2"/><path clip-path="url(#SVGID_24_)" fill="#b29f58" d="M.1-17.2H0h.1"/></g></g><path fill="#443b7e" d="M768.2 308.3l.3 35.2-369.2 265.4-.3-35.3z"/><path fill="#332a63" d="M399 573.6l.3 35.3L24.2 346.2l-.3-35.2z"/><path class="st183" d="M402.1 143.7l.3 28.2-77.6 55.7-.2-28.2zM393 41.7l.2 28.2-227.3 163.4-.3-28.2z"/><path class="st184" d="M636.7 212.3l.2 28.2L393.2 69.9l-.2-28.2z"/><path class="st183" d="M653.7 200.1l.2 28.2-17 12.2-.2-28.2zM324.6 199.4l.2 28.2-35 25.2-.2-28.2z"/><path class="st184" d="M531.6 234.4l.3 28.2-129.5-90.7-.3-28.2z"/><path class="st183" d="M548.6 222.1l.3 28.2-17 12.3-.3-28.2z"/><path class="st184" d="M207.3 283.7l.2 28.2-17.1-12-.3-28.2z"/><path class="st183" d="M272.5 236.8l.3 28.2-65.3 46.9-.2-28.2zM165.6 205.1l.3 28.2L41 323l-.2-28.2z"/><path class="st185" d="M653.7 200.1l-17 12.2L393 41.7 165.6 205.1 40.8 294.8l-17.2-12 124.9-89.7L392.8 17.4 410 29.5z"/><path class="st184" d="M40.8 294.8L41 323l-17.1-12-.3-28.2z"/><path class="st183" d="M419 315.3l.3 28.2-17 12.2-.3-28.2z"/><path class="st185" d="M548.6 222.1l-17 12.3-129.5-90.7-77.5 55.7-35 25.2L419 315.3l-17 12.2-129.5-90.7-65.2 46.9-17.2-12 117.3-84.3 94.6-67.9 17.1 12z"/><path class="st184" d="M402 327.5l.3 28.2L272.8 265l-.3-28.2zM599.5 376.8l.3 28.2-135.2-94.7-.2-28.2zM463 474.9l.3 28.2-135.2-94.7-.3-28.2z"/><path class="st183" d="M733.3 304.9l.3 28.2L416 561.4l-.3-28.2z"/><path class="st184" d="M398.7 545.4l.3 28.2-298.6-209-.2-28.2z"/><path class="st183" d="M415.7 533.2l.3 28.2-17 12.2-.3-28.2z"/><path class="st185" d="M733.3 304.9L415.7 533.2l-17 12.2-298.5-209 17-12.3 281.4 197.1 64.4-46.3-135.2-94.7 17.1-12.2L480 462.6l119.5-85.8-135.1-94.7 17-12.2 135.1 94.6 99.7-71.6z"/><path id="ball-yellow-2-path_1_" class="st186" d="M620 252.8L396 97.4 123 296l84.5 56-84.5-56L396 97.4l224 155.4"/><path id="ball-red-1-path_1_" class="st186" d="M608 335L410 203l-63 44 185 138-65 48-188-128 188 128 65-48-185-138 63-44 198 132"/><path id="ball-yellow-1-path_1_" class="st186" d="M396 486L240 376l156 110"/><animateMotion dur="15s" xlink:href="#ball-yellow-2" repeatCount="indefinite"><mpath xlink:href="#ball-yellow-2-path_1_"/></animateMotion><animateMotion dur="5s" xlink:href="#ball-yellow-1" repeatCount="indefinite"><mpath xlink:href="#ball-yellow-1-path_1_"/></animateMotion><animateMotion dur="16s" xlink:href="#ball-red-1" repeatCount="indefinite"><mpath xlink:href="#ball-red-1-path_1_"/></animateMotion></svg>