<?xml version="1.0" encoding="utf-8"?>
<!-- Generator: Adobe Illustrator 19.1.0, SVG Export Plug-In . SVG Version: 6.00 Build 0)  -->
<svg version="1.1" id="Layer_1" xmlns="http://www.w3.org/2000/svg" xmlns:xlink="http://www.w3.org/1999/xlink" x="0px" y="0px"
	 viewBox="206 -206 512 512" style="enable-background:new 206 -206 512 512;" xml:space="preserve">
<style type="text/css">
	.st0{fill:#FFFFFF;}
	.st1{fill:#6158E0;}
</style>
<ellipse class="st0" cx="462" cy="50" rx="256" ry="253.5"/>
<g>
	<g>
		<path class="st1" d="M563.6,4.9c-1-2.1-3.1-3.5-5.4-3.5H487l70.2-110.9c1.2-1.8,1.2-4.2,0.2-6.1c-1.1-1.9-3.1-3.1-5.3-3.1H456
			c-2.3,0-4.4,1.3-5.4,3.3L360.5,64.8c-0.9,1.9-0.8,4.1,0.3,5.8c1.1,1.8,3,2.9,5.1,2.9h61.8l-67.3,159.9c-1.1,2.7-0.1,5.9,2.4,7.5
			c1,0.6,2.1,0.9,3.1,0.9c1.7,0,3.4-0.7,4.6-2.1L562.7,11.4C564.2,9.5,564.5,7,563.6,4.9z"/>
	</g>
</g>
</svg>
