<?xml version="1.0" encoding="utf-8"?>
<!-- Generator: Adobe Illustrator 19.1.0, SVG Export Plug-In . SVG Version: 6.00 Build 0)  -->
<svg version="1.1" id="Capa_1" xmlns="http://www.w3.org/2000/svg" xmlns:xlink="http://www.w3.org/1999/xlink" x="0px" y="0px"
	 viewBox="-19 21 60 60" style="enable-background:new -19 21 60 60;" xml:space="preserve">
<style type="text/css">
	.st0{fill:#D43F5A;}
</style>
<path class="st0" d="M11,21c-16.5,0-30,13.5-30,30s13.5,30,30,30s30-13.5,30-30S27.5,21,11,21z M26.6,51.8l-22,15
	C4.4,66.9,4.2,67,4,67c-0.2,0-0.3,0-0.5-0.1C3.2,66.7,3,66.4,3,66V36c0-0.4,0.2-0.7,0.5-0.9c0.3-0.2,0.7-0.2,1,0.1l22,15
	c0.3,0.2,0.4,0.5,0.4,0.8S26.8,51.6,26.6,51.8z"/>
</svg>
