<svg id="Layer_1" xmlns="http://www.w3.org/2000/svg" xmlns:xlink="http://www.w3.org/1999/xlink" viewBox="0 0 560 450"><style></style><path fill="#332f68" d="M552.8 205.5L280.7 401 6.9 209.3l272-195.6z"/><path fill="#292552" d="M552.8 205.5l.3 35.2-272 195.5-.4-35.2z"/><path fill="#1d1b3b" d="M280.7 401l.4 35.2L7.2 244.5l-.3-35.2z"/><g id="ball-red"><defs><path id="SVGID_1_" d="M-22.3-.1c0-.8 0-2.9.7-5.5.7-2.7 1.8-4.6 2.1-5.2.5-.9 1.3-2 1.9-2.8.4-.5.9-1.1 1.3-1.5 1.6-1.5 1.6-1.5 2.9-2.6.9-.7 1.8-1.2 2.6-1.6 1.2-.6 5.4-2.7 11-2.7 2.9 0 4.9.6 6 .9.3.1 1.3.4 2.6.9.7.3 1.6.8 2.3 1.1C16.5-16 20-10 20-2.7 20 8.8 11.1 19.5.3 21c-.1 0-.3-.1-.4 0-.2 0-.2.1-.2.1.1 0 .3.1.4 0 .2 0 .2-.1.2-.1C11.1 19.5 20 8.8 20-2.7 20-10 16.5-16 11.1-19c.5.3 1.6.9 2.9 1.9 1 .8 1 .8 2.6 2.4.9 1 2.4 3.1 3.1 4.4C21-7.7 21.5-6.1 22-3.7c.1.6.5 3.4.2 6-.1 1.1-.2 2-.7 3.6-.3 1.2-.3 1.2-1.3 3.4-.5 1.1-1.7 3.2-3.1 4.8-2.9 3.5-6.7 5.9-11 7.1-3.3.8-6.6 1-10 .4-2.4-.4-4.2-1.2-4.8-1.4-1.7-.7-3.3-1.7-4.2-2.4a22.3 22.3 0 0 1-6.9-8c-2.4-4.4-2.4-8.4-2.5-9.9z"/></defs><clipPath id="SVGID_2_"><use xlink:href="#SVGID_1_" overflow="visible"/></clipPath><path d="M-22.3-.1c.2 11 7.4 17.8 14.1 20.5 8.3 3.3 18 1.2 24.2-5.2 10-10.3 7.6-27-5-34.3 5.5 3.1 9 9.1 9 16.4C20 8.8 11.1 19.5.3 21c.1 0 0 .1-.2.1h-.4c-.1 0 0-.1.2-.1h.4C11.1 19.5 20 8.8 20-2.7 20-10 16.5-16 11.1-19-5.3-27.7-22.5-15.3-22.3-.1" clip-path="url(#SVGID_2_)" fill="#94273d"/><defs><path id="SVGID_3_" d="M-22.3-.1c0-.8 0-2.9.7-5.5.7-2.7 1.8-4.6 2.1-5.2.5-.9 1.3-2 1.9-2.8.4-.5.9-1.1 1.3-1.5 1.6-1.5 1.6-1.5 2.9-2.6.9-.7 1.8-1.2 2.6-1.6 1.2-.6 5.4-2.7 11-2.7 2.9 0 4.9.6 6 .9.3.1 1.3.4 2.6.9.7.3 1.6.8 2.3 1.1C16.5-16 20-10 20-2.7 20 8.8 11.1 19.5.3 21c-.1 0-.3-.1-.4 0-.2 0-.2.1-.2.1.1 0 .3.1.4 0 .2 0 .2-.1.2-.1C11.1 19.5 20 8.8 20-2.7 20-10 16.5-16 11.1-19c.5.3 1.6.9 2.9 1.9 1 .8 1 .8 2.6 2.4.9 1 2.4 3.1 3.1 4.4C21-7.7 21.5-6.1 22-3.7c.1.6.5 3.4.2 6-.1 1.1-.2 2-.7 3.6-.3 1.2-.3 1.2-1.3 3.4-.5 1.1-1.7 3.2-3.1 4.8-2.9 3.5-6.7 5.9-11 7.1-3.3.8-6.6 1-10 .4-2.4-.4-4.2-1.2-4.8-1.4-1.7-.7-3.3-1.7-4.2-2.4a22.3 22.3 0 0 1-6.9-8c-2.4-4.4-2.4-8.4-2.5-9.9z"/></defs><clipPath id="SVGID_4_"><use xlink:href="#SVGID_3_" overflow="visible"/></clipPath><path d="M20-2.7C20 6.9 13.8 16 5.4 19.6c-.2.1-.4.2-.5.3C-8.7 26.7-26.2 10.4-21-4.2-16.6-17 3-17.5 11.1-1.5c2.9 5.7 3 16-5.7 21C13.8 16 20 6.9 20-2.7 20-10 16.5-16 11.1-19c-.3-.2-.8-.4-1.1-.6-.5-.2-1.2-.6-1.7-.8l-.9-.3c-.3-.1-.8-.3-1.1-.3l-.8-.2c-.2-.1-.6-.1-.8-.2l-.6-.1c-.2 0-.5-.1-.6-.1l-.6-.1c-.2 0-.4 0-.6-.1h-4l-.6.1c-.2 0-.4 0-.6.1l-.7.1c-1.9.4-3 .7-4.7 1.3l-1.1.5c-1.5.8-1.6.8-2.5 1.4l-1.2.8c-.5.4-1.2 1-1.8 1.4l-1.2 1.1c-.4.5-1 1.1-1.3 1.5l-1 1.3c-.3.5-.7 1.1-1 1.7l-.9 1.5c-.2.5-.5 1.2-.7 1.8l-.5 1.6c-.1.6-.3 1.3-.4 1.9l-.3 1.7c0 .6-.1 1.4-.1 1.9l.1 1.8c.1 1 .3 2.2.5 3.2l.5 1.7c.2.5.4 1.2.6 1.8l.7 1.5c.3.5.6 1.2.9 1.6l.9 1.4c.4.5.8 1.1 1.2 1.5l1.1 1.2c.5.4 1 1 1.5 1.4l1.2.9c.6.4 1.3.9 1.9 1.2l1.1.6c.5.2 1.2.5 1.7.8l.9.3c.3.1.8.2 1.1.3l.8.2c.2.1.6.1.8.2l.6.1c.2 0 .5.1.6.1l.6.1c.2 0 .4 0 .6.1h4l.6-.1c.2 0 .4 0 .6-.1l.7-.1c1.4-.3 2.5-.5 4.5-1.3l1.1-.5c1.5-.7 1.6-.8 2.5-1.3l1.2-.8 1.8-1.4 1.2-1.1c.4-.5 1-1.1 1.4-1.5l1-1.3c.3-.5.7-1.1 1-1.6l.8-1.5c.2-.5.5-1.2.7-1.8l.5-1.6c.1-.6.3-1.3.4-1.9l.3-1.7c0-.7.1-1.6.1-2.3l-.1-1.8c-.1-.6-.1-1.3-.2-1.9l-.4-1.7c-.2-.5-.4-1.3-.5-1.8l-.6-1.6c-.2-.5-.6-1.2-.8-1.7l-.9-1.4c-.3-.5-.8-1.1-1.1-1.6l-1.1-1.2-1.4-1.4-1.2-1c-1.6-1.2-1.7-1.3-2.9-1.9 5.7 3 9.2 9 9.2 16.3" clip-path="url(#SVGID_4_)" fill="#94273d"/><defs><path id="SVGID_5_" d="M-22.3-.1c0-.8 0-2.9.7-5.5.7-2.7 1.8-4.6 2.1-5.2.5-.9 1.3-2 1.9-2.8.4-.5.9-1.1 1.3-1.5 1.6-1.5 1.6-1.5 2.9-2.6.9-.7 1.8-1.2 2.6-1.6 1.2-.6 5.4-2.7 11-2.7 2.9 0 4.9.6 6 .9.3.1 1.3.4 2.6.9.7.3 1.6.8 2.3 1.1C16.5-16 20-10 20-2.7 20 8.8 11.1 19.5.3 21c-.1 0-.3-.1-.4 0-.2 0-.2.1-.2.1.1 0 .3.1.4 0 .2 0 .2-.1.2-.1C11.1 19.5 20 8.8 20-2.7 20-10 16.5-16 11.1-19c.5.3 1.6.9 2.9 1.9 1 .8 1 .8 2.6 2.4.9 1 2.4 3.1 3.1 4.4C21-7.7 21.5-6.1 22-3.7c.1.6.5 3.4.2 6-.1 1.1-.2 2-.7 3.6-.3 1.2-.3 1.2-1.3 3.4-.5 1.1-1.7 3.2-3.1 4.8-2.9 3.5-6.7 5.9-11 7.1-3.3.8-6.6 1-10 .4-2.4-.4-4.2-1.2-4.8-1.4-1.7-.7-3.3-1.7-4.2-2.4a22.3 22.3 0 0 1-6.9-8c-2.4-4.4-2.4-8.4-2.5-9.9z"/></defs><clipPath id="SVGID_6_"><use xlink:href="#SVGID_5_" overflow="visible"/></clipPath><path d="M-21.7 4.9C-25.1-10.8-8.9-19.2 2.9-11.8c12.7 8 13.5 22.7 5.7 29.6C15.3 13.5 20 5.6 20-2.7 20-10 16.5-16 11.1-19c-.3-.2-.8-.4-1.1-.6-.5-.2-1.2-.6-1.7-.8l-.9-.3c-.3-.1-.8-.3-1.1-.3l-.8-.2c-.2-.1-.6-.1-.8-.2l-.6-.1c-.2 0-.5-.1-.6-.1l-.6-.1c-.2 0-.4 0-.6-.1h-4l-.6.1c-.2 0-.4 0-.6.1l-.7.1c-1.9.4-3 .7-4.7 1.3l-1.1.5c-1.5.8-1.6.8-2.5 1.4l-1.2.8c-.5.4-1.2 1-1.8 1.4l-1.2 1.1c-.4.5-1 1.1-1.3 1.5l-1 1.3c-.3.5-.7 1.1-1 1.7l-.9 1.5c-.2.5-.5 1.2-.7 1.8l-.5 1.6c-.1.6-.3 1.3-.4 1.9l-.3 1.7c0 .6-.1 1.4-.1 1.9l.1 1.8c.1 1 .3 2.2.5 3.2l.4 1.6.4 1.2-.5-1.6c-.1-.3-.2-.8-.3-1.2" clip-path="url(#SVGID_6_)" fill="#91263b"/><defs><path id="SVGID_7_" d="M-22.3-.1c0-.8 0-2.9.7-5.5.7-2.7 1.8-4.6 2.1-5.2.5-.9 1.3-2 1.9-2.8.4-.5.9-1.1 1.3-1.5 1.6-1.5 1.6-1.5 2.9-2.6.9-.7 1.8-1.2 2.6-1.6 1.2-.6 5.4-2.7 11-2.7 2.9 0 4.9.6 6 .9.3.1 1.3.4 2.6.9.7.3 1.6.8 2.3 1.1C16.5-16 20-10 20-2.7 20 8.8 11.1 19.5.3 21c-.1 0-.3-.1-.4 0-.2 0-.2.1-.2.1.1 0 .3.1.4 0 .2 0 .2-.1.2-.1C11.1 19.5 20 8.8 20-2.7 20-10 16.5-16 11.1-19c.5.3 1.6.9 2.9 1.9 1 .8 1 .8 2.6 2.4.9 1 2.4 3.1 3.1 4.4C21-7.7 21.5-6.1 22-3.7c.1.6.5 3.4.2 6-.1 1.1-.2 2-.7 3.6-.3 1.2-.3 1.2-1.3 3.4-.5 1.1-1.7 3.2-3.1 4.8-2.9 3.5-6.7 5.9-11 7.1-3.3.8-6.6 1-10 .4-2.4-.4-4.2-1.2-4.8-1.4-1.7-.7-3.3-1.7-4.2-2.4a22.3 22.3 0 0 1-6.9-8c-2.4-4.4-2.4-8.4-2.5-9.9z"/></defs><clipPath id="SVGID_8_"><use xlink:href="#SVGID_7_" overflow="visible"/></clipPath><path d="M20-2.7c0 8.3-4.7 16.2-11.3 20.5-.2.2-.5.5-.8.7-7.6 5.6-15.7 2.4-19.8 0 .6.3 1.4.8 2 1.1.5.2 1.2.5 1.7.8l.9.3c.3.1.8.2 1.1.3l.8.2c.2.1.6.1.8.2l.6.1c.2 0 .5.1.6.1l.6.1c.2 0 .4 0 .6.1h4l.6-.1c.2 0 .4 0 .6-.1l.7-.1c1.4-.3 2.5-.5 4.5-1.3l1.1-.5c1.5-.7 1.6-.8 2.5-1.3l1.2-.8 1.8-1.4 1.2-1.1c.4-.5 1-1.1 1.4-1.5l1-1.3c.3-.5.7-1.1 1-1.6l.8-1.5c.2-.5.5-1.2.7-1.8l.5-1.6c.1-.6.3-1.3.4-1.9l.3-1.7c0-.7.1-1.6.1-2.3l-.1-1.8c-.1-.6-.1-1.3-.2-1.9l-.4-1.7c-.2-.5-.4-1.3-.5-1.8l-.6-1.6c-.2-.5-.6-1.2-.8-1.7l-.9-1.4c-.3-.5-.8-1.1-1.1-1.6l-1.1-1.2-1.4-1.4-1.2-1c-1.6-1.2-1.7-1.3-2.9-1.9 5.5 3.1 9 9.1 9 16.4" clip-path="url(#SVGID_8_)" fill="#91263b"/><defs><path id="SVGID_9_" d="M-22.3-.1c0-.8 0-2.9.7-5.5.7-2.7 1.8-4.6 2.1-5.2.5-.9 1.3-2 1.9-2.8.4-.5.9-1.1 1.3-1.5 1.6-1.5 1.6-1.5 2.9-2.6.9-.7 1.8-1.2 2.6-1.6 1.2-.6 5.4-2.7 11-2.7 2.9 0 4.9.6 6 .9.3.1 1.3.4 2.6.9.7.3 1.6.8 2.3 1.1C16.5-16 20-10 20-2.7 20 8.8 11.1 19.5.3 21c-.1 0-.3-.1-.4 0-.2 0-.2.1-.2.1.1 0 .3.1.4 0 .2 0 .2-.1.2-.1C11.1 19.5 20 8.8 20-2.7 20-10 16.5-16 11.1-19c.5.3 1.6.9 2.9 1.9 1 .8 1 .8 2.6 2.4.9 1 2.4 3.1 3.1 4.4C21-7.7 21.5-6.1 22-3.7c.1.6.5 3.4.2 6-.1 1.1-.2 2-.7 3.6-.3 1.2-.3 1.2-1.3 3.4-.5 1.1-1.7 3.2-3.1 4.8-2.9 3.5-6.7 5.9-11 7.1-3.3.8-6.6 1-10 .4-2.4-.4-4.2-1.2-4.8-1.4-1.7-.7-3.3-1.7-4.2-2.4a22.3 22.3 0 0 1-6.9-8c-2.4-4.4-2.4-8.4-2.5-9.9z"/></defs><clipPath id="SVGID_10_"><use xlink:href="#SVGID_9_" overflow="visible"/></clipPath><path d="M-22.1 2.8C-23.7-15.6-4-19.7 6.3-10.6c10 8.9 9.9 20.1 4.8 26.6C16.4 11.5 20 4.5 20-2.7 20-10 16.5-16 11.1-19c-.3-.2-.8-.4-1.1-.6-.5-.2-1.2-.6-1.7-.8l-.9-.3c-.3-.1-.8-.3-1.1-.3l-.8-.2c-.2-.1-.6-.1-.8-.2l-.6-.1c-.2 0-.5-.1-.6-.1l-.6-.1c-.2 0-.4 0-.6-.1h-4l-.6.1c-.2 0-.4 0-.6.1l-.7.1c-1.9.4-3 .7-4.7 1.3l-1.1.5c-1.5.8-1.6.8-2.5 1.4l-1.2.8c-.5.4-1.2 1-1.8 1.4l-1.2 1.1c-.4.5-1 1.1-1.3 1.5l-1 1.3c-.3.5-.7 1.1-1 1.7l-.9 1.5c-.2.5-.5 1.2-.7 1.8l-.5 1.6c-.1.6-.3 1.3-.4 1.9l-.3 1.7c0 .6-.1 1.4-.1 1.9l.1 1.8.2 1.6-.1-.5" clip-path="url(#SVGID_10_)" fill="#8d2439"/><defs><path id="SVGID_11_" d="M-22.3-.1c0-.8 0-2.9.7-5.5.7-2.7 1.8-4.6 2.1-5.2.5-.9 1.3-2 1.9-2.8.4-.5.9-1.1 1.3-1.5 1.6-1.5 1.6-1.5 2.9-2.6.9-.7 1.8-1.2 2.6-1.6 1.2-.6 5.4-2.7 11-2.7 2.9 0 4.9.6 6 .9.3.1 1.3.4 2.6.9.7.3 1.6.8 2.3 1.1C16.5-16 20-10 20-2.7 20 8.8 11.1 19.5.3 21c-.1 0-.3-.1-.4 0-.2 0-.2.1-.2.1.1 0 .3.1.4 0 .2 0 .2-.1.2-.1C11.1 19.5 20 8.8 20-2.7 20-10 16.5-16 11.1-19c.5.3 1.6.9 2.9 1.9 1 .8 1 .8 2.6 2.4.9 1 2.4 3.1 3.1 4.4C21-7.7 21.5-6.1 22-3.7c.1.6.5 3.4.2 6-.1 1.1-.2 2-.7 3.6-.3 1.2-.3 1.2-1.3 3.4-.5 1.1-1.7 3.2-3.1 4.8-2.9 3.5-6.7 5.9-11 7.1-3.3.8-6.6 1-10 .4-2.4-.4-4.2-1.2-4.8-1.4-1.7-.7-3.3-1.7-4.2-2.4a22.3 22.3 0 0 1-6.9-8c-2.4-4.4-2.4-8.4-2.5-9.9z"/></defs><clipPath id="SVGID_12_"><use xlink:href="#SVGID_11_" overflow="visible"/></clipPath><path d="M20-2.7c0 7.3-3.6 14.2-8.9 18.7-.2.3-.5.6-.7.9-6 6.2-13.1 5.4-18 3.7l.9.3.5.2.8.2c.2.1.6.1.8.2l.6.1c.2 0 .5.1.6.1l.6.1c.2 0 .4 0 .6.1h4l.6-.1c.2 0 .4 0 .6-.1l.7-.1c1.4-.3 2.5-.5 4.5-1.3l1.1-.5c1.5-.7 1.6-.8 2.5-1.3l1.2-.8 1.8-1.4 1.2-1.1c.4-.5 1-1.1 1.4-1.5l1-1.3c.3-.5.7-1.1 1-1.6l.8-1.5c.2-.5.5-1.2.7-1.8l.5-1.6c.1-.6.3-1.3.4-1.9l.3-1.7c0-.7.1-1.6.1-2.3l-.1-1.8c-.1-.6-.1-1.3-.2-1.9l-.4-1.7c-.2-.5-.4-1.3-.5-1.8l-.6-1.6c-.2-.5-.6-1.2-.8-1.7l-.9-1.4c-.3-.5-.8-1.1-1.1-1.6l-1.1-1.2-1.4-1.4-1.2-1c-1.6-1.2-1.7-1.3-2.9-1.9 5.5 3 9 9 9 16.3" clip-path="url(#SVGID_12_)" fill="#8d2439"/><defs><path id="SVGID_13_" d="M-22.3-.1c0-.8 0-2.9.7-5.5.7-2.7 1.8-4.6 2.1-5.2.5-.9 1.3-2 1.9-2.8.4-.5.9-1.1 1.3-1.5 1.6-1.5 1.6-1.5 2.9-2.6.9-.7 1.8-1.2 2.6-1.6 1.2-.6 5.4-2.7 11-2.7 2.9 0 4.9.6 6 .9.3.1 1.3.4 2.6.9.7.3 1.6.8 2.3 1.1C16.5-16 20-10 20-2.7 20 8.8 11.1 19.5.3 21c-.1 0-.3-.1-.4 0-.2 0-.2.1-.2.1.1 0 .3.1.4 0 .2 0 .2-.1.2-.1C11.1 19.5 20 8.8 20-2.7 20-10 16.5-16 11.1-19c.5.3 1.6.9 2.9 1.9 1 .8 1 .8 2.6 2.4.9 1 2.4 3.1 3.1 4.4C21-7.7 21.5-6.1 22-3.7c.1.6.5 3.4.2 6-.1 1.1-.2 2-.7 3.6-.3 1.2-.3 1.2-1.3 3.4-.5 1.1-1.7 3.2-3.1 4.8-2.9 3.5-6.7 5.9-11 7.1-3.3.8-6.6 1-10 .4-2.4-.4-4.2-1.2-4.8-1.4-1.7-.7-3.3-1.7-4.2-2.4a22.3 22.3 0 0 1-6.9-8c-2.4-4.4-2.4-8.4-2.5-9.9z"/></defs><clipPath id="SVGID_14_"><use xlink:href="#SVGID_13_" overflow="visible"/></clipPath><path d="M-21.5-5.4c4.5-13.6 24.8-15.7 34 .3 5.3 9.1 2.2 16.4.7 19.1C17.3 9.6 20 3.5 20-2.7 20-10 16.5-16 11.1-19c-.3-.2-.8-.4-1.1-.6-.5-.2-1.2-.6-1.7-.8l-.9-.3c-.3-.1-.8-.3-1.1-.3l-.8-.2c-.2-.1-.6-.1-.8-.2l-.6-.1c-.2 0-.5-.1-.6-.1l-.6-.1c-.2 0-.4 0-.6-.1h-4l-.6.1c-.2 0-.4 0-.6.1l-.7.1c-1.9.4-3 .7-4.7 1.3l-1.1.5c-1.5.8-1.6.8-2.5 1.4l-1.2.8c-.5.4-1.2 1-1.8 1.4l-1.2 1.1c-.4.5-1 1.1-1.3 1.5l-1 1.3c-.3.5-.7 1.1-1 1.7l-.9 1.5c-.2.5-.5 1.2-.7 1.8l-.5 1.6c-.1.6-.3 1.3-.4 1.9l-.3 1.7-.1 1.7.1-1.6c.3-1.8.4-2.4.7-3.5" clip-path="url(#SVGID_14_)" fill="#8a2338"/><defs><path id="SVGID_15_" d="M-22.3-.1c0-.8 0-2.9.7-5.5.7-2.7 1.8-4.6 2.1-5.2.5-.9 1.3-2 1.9-2.8.4-.5.9-1.1 1.3-1.5 1.6-1.5 1.6-1.5 2.9-2.6.9-.7 1.8-1.2 2.6-1.6 1.2-.6 5.4-2.7 11-2.7 2.9 0 4.9.6 6 .9.3.1 1.3.4 2.6.9.7.3 1.6.8 2.3 1.1C16.5-16 20-10 20-2.7 20 8.8 11.1 19.5.3 21c-.1 0-.3-.1-.4 0-.2 0-.2.1-.2.1.1 0 .3.1.4 0 .2 0 .2-.1.2-.1C11.1 19.5 20 8.8 20-2.7 20-10 16.5-16 11.1-19c.5.3 1.6.9 2.9 1.9 1 .8 1 .8 2.6 2.4.9 1 2.4 3.1 3.1 4.4C21-7.7 21.5-6.1 22-3.7c.1.6.5 3.4.2 6-.1 1.1-.2 2-.7 3.6-.3 1.2-.3 1.2-1.3 3.4-.5 1.1-1.7 3.2-3.1 4.8-2.9 3.5-6.7 5.9-11 7.1-3.3.8-6.6 1-10 .4-2.4-.4-4.2-1.2-4.8-1.4-1.7-.7-3.3-1.7-4.2-2.4a22.3 22.3 0 0 1-6.9-8c-2.4-4.4-2.4-8.4-2.5-9.9z"/></defs><clipPath id="SVGID_16_"><use xlink:href="#SVGID_15_" overflow="visible"/></clipPath><path d="M20-2.7c0 6.2-2.6 12.3-6.8 16.7l-.4.8c-1.6 2.6-6.4 8.4-16.2 6.9l.6.1c.2 0 .4 0 .6.1h4l.6-.1c.2 0 .4 0 .6-.1l.7-.1c1.4-.3 2.5-.5 4.5-1.3l1.1-.5c1.5-.7 1.6-.8 2.5-1.3l1.2-.8 1.8-1.4 1.2-1.1c.4-.5 1-1.1 1.4-1.5l1-1.3c.3-.5.7-1.1 1-1.6l.8-1.5c.2-.5.5-1.2.7-1.8l.5-1.6c.1-.6.3-1.3.4-1.9l.3-1.7c0-.7.1-1.6.1-2.3l-.1-1.8c-.1-.6-.1-1.3-.2-1.9l-.4-1.7c-.2-.5-.4-1.3-.5-1.8l-.6-1.6c-.2-.5-.6-1.2-.8-1.7l-.9-1.4c-.3-.5-.8-1.1-1.1-1.6l-1.1-1.2-1.4-1.4-1.2-1c-1.6-1.2-1.7-1.3-2.9-1.9 5.5 3 9 9 9 16.3" clip-path="url(#SVGID_16_)" fill="#8a2338"/><defs><path id="SVGID_17_" d="M-22.3-.1c0-.8 0-2.9.7-5.5.7-2.7 1.8-4.6 2.1-5.2.5-.9 1.3-2 1.9-2.8.4-.5.9-1.1 1.3-1.5 1.6-1.5 1.6-1.5 2.9-2.6.9-.7 1.8-1.2 2.6-1.6 1.2-.6 5.4-2.7 11-2.7 2.9 0 4.9.6 6 .9.3.1 1.3.4 2.6.9.7.3 1.6.8 2.3 1.1C16.5-16 20-10 20-2.7 20 8.8 11.1 19.5.3 21c-.1 0-.3-.1-.4 0-.2 0-.2.1-.2.1.1 0 .3.1.4 0 .2 0 .2-.1.2-.1C11.1 19.5 20 8.8 20-2.7 20-10 16.5-16 11.1-19c.5.3 1.6.9 2.9 1.9 1 .8 1 .8 2.6 2.4.9 1 2.4 3.1 3.1 4.4C21-7.7 21.5-6.1 22-3.7c.1.6.5 3.4.2 6-.1 1.1-.2 2-.7 3.6-.3 1.2-.3 1.2-1.3 3.4-.5 1.1-1.7 3.2-3.1 4.8-2.9 3.5-6.7 5.9-11 7.1-3.3.8-6.6 1-10 .4-2.4-.4-4.2-1.2-4.8-1.4-1.7-.7-3.3-1.7-4.2-2.4a22.3 22.3 0 0 1-6.9-8c-2.4-4.4-2.4-8.4-2.5-9.9z"/></defs><clipPath id="SVGID_18_"><use xlink:href="#SVGID_17_" overflow="visible"/></clipPath><path d="M-21.5-5.5c4.9-16 26.4-15.6 35.4.7 3 5.3 3.4 11.1 1.2 16.6 3-4.2 4.9-9.3 4.9-14.5C20-10 16.5-16 11.1-19c-.3-.2-.8-.4-1.1-.6-.5-.2-1.2-.6-1.7-.8l-.9-.3c-.3-.1-.8-.3-1.1-.3l-.8-.2c-.2-.1-.6-.1-.8-.2l-.6-.1c-.2 0-.5-.1-.6-.1l-.6-.1c-.2 0-.4 0-.6-.1h-4l-.6.1c-.2 0-.4 0-.6.1l-.7.1c-1.9.4-3 .7-4.7 1.3l-1.1.5c-1.5.8-1.6.8-2.5 1.4l-1.2.8c-.5.4-1.2 1-1.8 1.4l-1.2 1.1c-.4.5-1 1.1-1.3 1.5l-1 1.3c-.3.5-.7 1.1-1 1.7l-.9 1.5c-.2.5-.5 1.2-.7 1.8l-.5 1.7c-.1.4-.3 1.1-.4 1.7l.3-1.5.1-.2" clip-path="url(#SVGID_18_)" fill="#872136"/><defs><path id="SVGID_19_" d="M-22.3-.1c0-.8 0-2.9.7-5.5.7-2.7 1.8-4.6 2.1-5.2.5-.9 1.3-2 1.9-2.8.4-.5.9-1.1 1.3-1.5 1.6-1.5 1.6-1.5 2.9-2.6.9-.7 1.8-1.2 2.6-1.6 1.2-.6 5.4-2.7 11-2.7 2.9 0 4.9.6 6 .9.3.1 1.3.4 2.6.9.7.3 1.6.8 2.3 1.1C16.5-16 20-10 20-2.7 20 8.8 11.1 19.5.3 21c-.1 0-.3-.1-.4 0-.2 0-.2.1-.2.1.1 0 .3.1.4 0 .2 0 .2-.1.2-.1C11.1 19.5 20 8.8 20-2.7 20-10 16.5-16 11.1-19c.5.3 1.6.9 2.9 1.9 1 .8 1 .8 2.6 2.4.9 1 2.4 3.1 3.1 4.4C21-7.7 21.5-6.1 22-3.7c.1.6.5 3.4.2 6-.1 1.1-.2 2-.7 3.6-.3 1.2-.3 1.2-1.3 3.4-.5 1.1-1.7 3.2-3.1 4.8-2.9 3.5-6.7 5.9-11 7.1-3.3.8-6.6 1-10 .4-2.4-.4-4.2-1.2-4.8-1.4-1.7-.7-3.3-1.7-4.2-2.4a22.3 22.3 0 0 1-6.9-8c-2.4-4.4-2.4-8.4-2.5-9.9z"/></defs><clipPath id="SVGID_20_"><use xlink:href="#SVGID_19_" overflow="visible"/></clipPath><path d="M20-2.7c0 5.3-1.9 10.4-4.9 14.5-.1.4-.3.9-.4 1.2-2.6 5.4-7.5 8.6-13.5 8.9h.7l.6-.1c.2 0 .4 0 .6-.1l.7-.1c1.4-.3 2.5-.5 4.5-1.3l1.1-.5c1.5-.7 1.6-.8 2.5-1.3l1.2-.8 1.8-1.4 1.2-1.1c.4-.5 1-1.1 1.4-1.5l1-1.3c.3-.5.7-1.1 1-1.6l.8-1.5c.2-.5.5-1.2.7-1.8l.5-1.6c.1-.6.3-1.3.4-1.9l.3-1.7c0-.7.1-1.6.1-2.3l-.1-1.8c-.1-.6-.1-1.3-.2-1.9l-.4-1.7c-.2-.5-.4-1.3-.5-1.8l-.6-1.6c-.2-.5-.6-1.2-.8-1.7l-.9-1.4c-.3-.5-.8-1.1-1.1-1.6l-1.1-1.2-1.4-1.4-1.2-1c-1.6-1.2-1.7-1.3-2.9-1.9 5.4 3 8.9 9 8.9 16.3" clip-path="url(#SVGID_20_)" fill="#872136"/><defs><path id="SVGID_21_" d="M-22.3-.1c0-.8 0-2.9.7-5.5.7-2.7 1.8-4.6 2.1-5.2.5-.9 1.3-2 1.9-2.8.4-.5.9-1.1 1.3-1.5 1.6-1.5 1.6-1.5 2.9-2.6.9-.7 1.8-1.2 2.6-1.6 1.2-.6 5.4-2.7 11-2.7 2.9 0 4.9.6 6 .9.3.1 1.3.4 2.6.9.7.3 1.6.8 2.3 1.1C16.5-16 20-10 20-2.7 20 8.8 11.1 19.5.3 21c-.1 0-.3-.1-.4 0-.2 0-.2.1-.2.1.1 0 .3.1.4 0 .2 0 .2-.1.2-.1C11.1 19.5 20 8.8 20-2.7 20-10 16.5-16 11.1-19c.5.3 1.6.9 2.9 1.9 1 .8 1 .8 2.6 2.4.9 1 2.4 3.1 3.1 4.4C21-7.7 21.5-6.1 22-3.7c.1.6.5 3.4.2 6-.1 1.1-.2 2-.7 3.6-.3 1.2-.3 1.2-1.3 3.4-.5 1.1-1.7 3.2-3.1 4.8-2.9 3.5-6.7 5.9-11 7.1-3.3.8-6.6 1-10 .4-2.4-.4-4.2-1.2-4.8-1.4-1.7-.7-3.3-1.7-4.2-2.4a22.3 22.3 0 0 1-6.9-8c-2.4-4.4-2.4-8.4-2.5-9.9z"/></defs><clipPath id="SVGID_22_"><use xlink:href="#SVGID_21_" overflow="visible"/></clipPath><path d="M-20.2-9.2c8.1-15.6 31.1-9 36.4 6.4 1.4 4.2 1.6 7.8.6 11.9 2-3.6 3.2-7.6 3.2-11.8C20-10 16.5-16 11.1-19c-.3-.2-.8-.4-1.1-.6-.5-.2-1.2-.6-1.7-.8l-.9-.3c-.3-.1-.8-.3-1.1-.3l-.8-.2c-.2-.1-.6-.1-.8-.2l-.6-.1c-.2 0-.5-.1-.6-.1l-.6-.1c-.2 0-.4 0-.6-.1h-4l-.6.1c-.2 0-.4 0-.6.1l-.7.1c-1.9.4-3 .7-4.7 1.3l-1.1.5c-1.5.8-1.6.8-2.5 1.4l-1.2.8c-.5.4-1.2 1-1.8 1.4l-1.2 1.1c-.4.5-1 1.1-1.3 1.5l-1 1.3c-.3.5-.7 1.1-1 1.7l-.9 1.5-.7 1.7.6-1.4c0-.1.1-.3.2-.5" clip-path="url(#SVGID_22_)" fill="#832034"/><g><defs><path id="SVGID_23_" d="M-22.3-.1c0-.8 0-2.9.7-5.5.7-2.7 1.8-4.6 2.1-5.2.5-.9 1.3-2 1.9-2.8.4-.5.9-1.1 1.3-1.5 1.6-1.5 1.6-1.5 2.9-2.6.9-.7 1.8-1.2 2.6-1.6 1.2-.6 5.4-2.7 11-2.7 2.9 0 4.9.6 6 .9.3.1 1.3.4 2.6.9.7.3 1.6.8 2.3 1.1C16.5-16 20-10 20-2.7 20 8.8 11.1 19.5.3 21c-.1 0-.3-.1-.4 0-.2 0-.2.1-.2.1.1 0 .3.1.4 0 .2 0 .2-.1.2-.1C11.1 19.5 20 8.8 20-2.7 20-10 16.5-16 11.1-19c.5.3 1.6.9 2.9 1.9 1 .8 1 .8 2.6 2.4.9 1 2.4 3.1 3.1 4.4C21-7.7 21.5-6.1 22-3.7c.1.6.5 3.4.2 6-.1 1.1-.2 2-.7 3.6-.3 1.2-.3 1.2-1.3 3.4-.5 1.1-1.7 3.2-3.1 4.8-2.9 3.5-6.7 5.9-11 7.1-3.3.8-6.6 1-10 .4-2.4-.4-4.2-1.2-4.8-1.4-1.7-.7-3.3-1.7-4.2-2.4a22.3 22.3 0 0 1-6.9-8c-2.4-4.4-2.4-8.4-2.5-9.9z"/></defs><clipPath id="SVGID_24_"><use xlink:href="#SVGID_23_" overflow="visible"/></clipPath><path d="M20-2.7c0 4.2-1.2 8.3-3.2 11.8-.1.4-.2.9-.2 1.3-1.5 5.5-6.1 9.8-11.8 11l.8-.2c1-.3 1.6-.4 2.7-.9l1.1-.5c1.5-.7 1.6-.8 2.5-1.3l1.2-.8 1.8-1.4 1.2-1.1c.4-.5 1-1.1 1.4-1.5l1-1.3c.3-.5.7-1.1 1-1.6l.8-1.5c.2-.5.5-1.2.7-1.8l.5-1.6c.1-.6.3-1.3.4-1.9l.3-1.7c0-.7.1-1.6.1-2.3l-.1-1.8c-.1-.6-.1-1.3-.2-1.9l-.4-1.7c-.2-.5-.4-1.3-.5-1.8l-.6-1.6c-.2-.5-.6-1.2-.8-1.7l-.9-1.4c-.3-.5-.8-1.1-1.1-1.6l-1.1-1.2-1.4-1.4-1.2-1c-1.6-1.2-1.7-1.3-2.9-1.9 5.4 3 8.9 9 8.9 16.3" clip-path="url(#SVGID_24_)" fill="#832034"/></g><g><defs><path id="SVGID_25_" d="M-22.3-.1c0-.8 0-2.9.7-5.5.7-2.7 1.8-4.6 2.1-5.2.5-.9 1.3-2 1.9-2.8.4-.5.9-1.1 1.3-1.5 1.6-1.5 1.6-1.5 2.9-2.6.9-.7 1.8-1.2 2.6-1.6 1.2-.6 5.4-2.7 11-2.7 2.9 0 4.9.6 6 .9.3.1 1.3.4 2.6.9.7.3 1.6.8 2.3 1.1C16.5-16 20-10 20-2.7 20 8.8 11.1 19.5.3 21c-.1 0-.3-.1-.4 0-.2 0-.2.1-.2.1.1 0 .3.1.4 0 .2 0 .2-.1.2-.1C11.1 19.5 20 8.8 20-2.7 20-10 16.5-16 11.1-19c.5.3 1.6.9 2.9 1.9 1 .8 1 .8 2.6 2.4.9 1 2.4 3.1 3.1 4.4C21-7.7 21.5-6.1 22-3.7c.1.6.5 3.4.2 6-.1 1.1-.2 2-.7 3.6-.3 1.2-.3 1.2-1.3 3.4-.5 1.1-1.7 3.2-3.1 4.8-2.9 3.5-6.7 5.9-11 7.1-3.3.8-6.6 1-10 .4-2.4-.4-4.2-1.2-4.8-1.4-1.7-.7-3.3-1.7-4.2-2.4a22.3 22.3 0 0 1-6.9-8c-2.4-4.4-2.4-8.4-2.5-9.9z"/></defs><clipPath id="SVGID_26_"><use xlink:href="#SVGID_25_" overflow="visible"/></clipPath><path d="M-16.4-14.7c14.5-13.1 35.4 3.2 35 18 0 .7-.1 1.7-.2 2.4C19.4 3 20 .1 20-2.8 20-10 16.5-16 11.1-19c-.3-.2-.8-.4-1.1-.6-.5-.2-1.2-.6-1.7-.8l-.9-.3c-.3-.1-.8-.3-1.1-.3l-.8-.2c-.2-.1-.6-.1-.8-.2l-.6-.1c-.2 0-.5-.1-.6-.1l-.6-.1c-.2 0-.4 0-.6-.1h-4l-.6.1c-.2 0-.4 0-.6.1l-.7.1c-1.9.4-3 .7-4.7 1.3l-1.1.5c-1.5.8-1.6.8-2.5 1.4l-1.2.8c-.5.4-1.2 1-1.8 1.4l-1.2 1.1c-.4.5-1 1.1-1.3 1.5l-1 1.3-.2.4.7-1c.8-1.1 1-1.4 1.5-1.9" clip-path="url(#SVGID_26_)" fill="#801e32"/></g><g><defs><path id="SVGID_27_" d="M-22.3-.1c0-.8 0-2.9.7-5.5.7-2.7 1.8-4.6 2.1-5.2.5-.9 1.3-2 1.9-2.8.4-.5.9-1.1 1.3-1.5 1.6-1.5 1.6-1.5 2.9-2.6.9-.7 1.8-1.2 2.6-1.6 1.2-.6 5.4-2.7 11-2.7 2.9 0 4.9.6 6 .9.3.1 1.3.4 2.6.9.7.3 1.6.8 2.3 1.1C16.5-16 20-10 20-2.7 20 8.8 11.1 19.5.3 21c-.1 0-.3-.1-.4 0-.2 0-.2.1-.2.1.1 0 .3.1.4 0 .2 0 .2-.1.2-.1C11.1 19.5 20 8.8 20-2.7 20-10 16.5-16 11.1-19c.5.3 1.6.9 2.9 1.9 1 .8 1 .8 2.6 2.4.9 1 2.4 3.1 3.1 4.4C21-7.7 21.5-6.1 22-3.7c.1.6.5 3.4.2 6-.1 1.1-.2 2-.7 3.6-.3 1.2-.3 1.2-1.3 3.4-.5 1.1-1.7 3.2-3.1 4.8-2.9 3.5-6.7 5.9-11 7.1-3.3.8-6.6 1-10 .4-2.4-.4-4.2-1.2-4.8-1.4-1.7-.7-3.3-1.7-4.2-2.4a22.3 22.3 0 0 1-6.9-8c-2.4-4.4-2.4-8.4-2.5-9.9z"/></defs><clipPath id="SVGID_28_"><use xlink:href="#SVGID_27_" overflow="visible"/></clipPath><path d="M20-2.7c0 2.9-.6 5.8-1.6 8.5 0 .4 0 .9.1 1.3a15.8 15.8 0 0 1-9.4 13.1l1.1-.5c.5-.3 1.2-.7 1.8-1l1.2-.8 1.8-1.4 1.2-1.1c.4-.5 1-1.1 1.4-1.5l1-1.3c.3-.5.7-1.1 1-1.6l.8-1.5c.2-.5.5-1.2.7-1.8l.5-1.6c.1-.6.3-1.3.4-1.9l.3-1.7c0-.7.1-1.6.1-2.3l-.1-1.8c-.1-.6-.1-1.3-.2-1.9l-.4-1.7c-.2-.5-.4-1.3-.5-1.8l-.6-1.6c-.2-.5-.6-1.2-.8-1.7l-.9-1.4c-.3-.5-.8-1.1-1.1-1.6l-1.1-1.2-1.4-1.4-1.2-1c-1.6-1.2-1.7-1.3-2.9-1.9C16.5-16 20-10 20-2.7" clip-path="url(#SVGID_28_)" fill="#801e32"/></g><g><defs><path id="SVGID_29_" d="M-22.3-.1c0-.8 0-2.9.7-5.5.7-2.7 1.8-4.6 2.1-5.2.5-.9 1.3-2 1.9-2.8.4-.5.9-1.1 1.3-1.5 1.6-1.5 1.6-1.5 2.9-2.6.9-.7 1.8-1.2 2.6-1.6 1.2-.6 5.4-2.7 11-2.7 2.9 0 4.9.6 6 .9.3.1 1.3.4 2.6.9.7.3 1.6.8 2.3 1.1C16.5-16 20-10 20-2.7 20 8.8 11.1 19.5.3 21c-.1 0-.3-.1-.4 0-.2 0-.2.1-.2.1.1 0 .3.1.4 0 .2 0 .2-.1.2-.1C11.1 19.5 20 8.8 20-2.7 20-10 16.5-16 11.1-19c.5.3 1.6.9 2.9 1.9 1 .8 1 .8 2.6 2.4.9 1 2.4 3.1 3.1 4.4C21-7.7 21.5-6.1 22-3.7c.1.6.5 3.4.2 6-.1 1.1-.2 2-.7 3.6-.3 1.2-.3 1.2-1.3 3.4-.5 1.1-1.7 3.2-3.1 4.8-2.9 3.5-6.7 5.9-11 7.1-3.3.8-6.6 1-10 .4-2.4-.4-4.2-1.2-4.8-1.4-1.7-.7-3.3-1.7-4.2-2.4a22.3 22.3 0 0 1-6.9-8c-2.4-4.4-2.4-8.4-2.5-9.9z"/></defs><clipPath id="SVGID_30_"><use xlink:href="#SVGID_29_" overflow="visible"/></clipPath><path d="M-1.6 21.1c14.9-1 17.7-18.8 7.7-28.2C-6.5-19-22.5-11.2-21.8 2.5c.5 10.4 10.2 19.2 20.2 18.6" clip-path="url(#SVGID_30_)" fill="#97293f"/></g><g><defs><path id="SVGID_31_" d="M-22.3-.1c0-.8 0-2.9.7-5.5.7-2.7 1.8-4.6 2.1-5.2.5-.9 1.3-2 1.9-2.8.4-.5.9-1.1 1.3-1.5 1.6-1.5 1.6-1.5 2.9-2.6.9-.7 1.8-1.2 2.6-1.6 1.2-.6 5.4-2.7 11-2.7 2.9 0 4.9.6 6 .9.3.1 1.3.4 2.6.9.7.3 1.6.8 2.3 1.1C16.5-16 20-10 20-2.7 20 8.8 11.1 19.5.3 21c-.1 0-.3-.1-.4 0-.2 0-.2.1-.2.1.1 0 .3.1.4 0 .2 0 .2-.1.2-.1C11.1 19.5 20 8.8 20-2.7 20-10 16.5-16 11.1-19c.5.3 1.6.9 2.9 1.9 1 .8 1 .8 2.6 2.4.9 1 2.4 3.1 3.1 4.4C21-7.7 21.5-6.1 22-3.7c.1.6.5 3.4.2 6-.1 1.1-.2 2-.7 3.6-.3 1.2-.3 1.2-1.3 3.4-.5 1.1-1.7 3.2-3.1 4.8-2.9 3.5-6.7 5.9-11 7.1-3.3.8-6.6 1-10 .4-2.4-.4-4.2-1.2-4.8-1.4-1.7-.7-3.3-1.7-4.2-2.4a22.3 22.3 0 0 1-6.9-8c-2.4-4.4-2.4-8.4-2.5-9.9z"/></defs><clipPath id="SVGID_32_"><use xlink:href="#SVGID_31_" overflow="visible"/></clipPath><path d="M-5.3 20.7C7 22.5 17.8 8.6 6.1-5.7c-7.3-9-25.4-9.4-27.5 5.3-1.4 9.6 6.3 19.7 16.1 21.1" clip-path="url(#SVGID_32_)" fill="#9b2a40"/></g><g><defs><path id="SVGID_33_" d="M-22.3-.1c0-.8 0-2.9.7-5.5.7-2.7 1.8-4.6 2.1-5.2.5-.9 1.3-2 1.9-2.8.4-.5.9-1.1 1.3-1.5 1.6-1.5 1.6-1.5 2.9-2.6.9-.7 1.8-1.2 2.6-1.6 1.2-.6 5.4-2.7 11-2.7 2.9 0 4.9.6 6 .9.3.1 1.3.4 2.6.9.7.3 1.6.8 2.3 1.1C16.5-16 20-10 20-2.7 20 8.8 11.1 19.5.3 21c-.1 0-.3-.1-.4 0-.2 0-.2.1-.2.1.1 0 .3.1.4 0 .2 0 .2-.1.2-.1C11.1 19.5 20 8.8 20-2.7 20-10 16.5-16 11.1-19c.5.3 1.6.9 2.9 1.9 1 .8 1 .8 2.6 2.4.9 1 2.4 3.1 3.1 4.4C21-7.7 21.5-6.1 22-3.7c.1.6.5 3.4.2 6-.1 1.1-.2 2-.7 3.6-.3 1.2-.3 1.2-1.3 3.4-.5 1.1-1.7 3.2-3.1 4.8-2.9 3.5-6.7 5.9-11 7.1-3.3.8-6.6 1-10 .4-2.4-.4-4.2-1.2-4.8-1.4-1.7-.7-3.3-1.7-4.2-2.4a22.3 22.3 0 0 1-6.9-8c-2.4-4.4-2.4-8.4-2.5-9.9z"/></defs><clipPath id="SVGID_34_"><use xlink:href="#SVGID_33_" overflow="visible"/></clipPath><path d="M-6.6 20.2C6.4 23 15.1 9.2 7.5-2.2-2.2-17-18.9-12-21-.8c-1.7 9.3 4.9 18.9 14.4 21" clip-path="url(#SVGID_34_)" fill="#9e2c42"/></g><g><defs><path id="SVGID_35_" d="M-22.3-.1c0-.8 0-2.9.7-5.5.7-2.7 1.8-4.6 2.1-5.2.5-.9 1.3-2 1.9-2.8.4-.5.9-1.1 1.3-1.5 1.6-1.5 1.6-1.5 2.9-2.6.9-.7 1.8-1.2 2.6-1.6 1.2-.6 5.4-2.7 11-2.7 2.9 0 4.9.6 6 .9.3.1 1.3.4 2.6.9.7.3 1.6.8 2.3 1.1C16.5-16 20-10 20-2.7 20 8.8 11.1 19.5.3 21c-.1 0-.3-.1-.4 0-.2 0-.2.1-.2.1.1 0 .3.1.4 0 .2 0 .2-.1.2-.1C11.1 19.5 20 8.8 20-2.7 20-10 16.5-16 11.1-19c.5.3 1.6.9 2.9 1.9 1 .8 1 .8 2.6 2.4.9 1 2.4 3.1 3.1 4.4C21-7.7 21.5-6.1 22-3.7c.1.6.5 3.4.2 6-.1 1.1-.2 2-.7 3.6-.3 1.2-.3 1.2-1.3 3.4-.5 1.1-1.7 3.2-3.1 4.8-2.9 3.5-6.7 5.9-11 7.1-3.3.8-6.6 1-10 .4-2.4-.4-4.2-1.2-4.8-1.4-1.7-.7-3.3-1.7-4.2-2.4a22.3 22.3 0 0 1-6.9-8c-2.4-4.4-2.4-8.4-2.5-9.9z"/></defs><clipPath id="SVGID_36_"><use xlink:href="#SVGID_35_" overflow="visible"/></clipPath><path d="M-10 18.9C1 23.4 14.1 15.4 7.6-.4c0-.1-4.1-9.2-14.9-10.1-6.5-.6-11.2 3.6-12.8 7.8-3.5 8.8 2.5 18.5 10.1 21.6" clip-path="url(#SVGID_36_)" fill="#a22d44"/></g><g><defs><path id="SVGID_37_" d="M-22.3-.1c0-.8 0-2.9.7-5.5.7-2.7 1.8-4.6 2.1-5.2.5-.9 1.3-2 1.9-2.8.4-.5.9-1.1 1.3-1.5 1.6-1.5 1.6-1.5 2.9-2.6.9-.7 1.8-1.2 2.6-1.6 1.2-.6 5.4-2.7 11-2.7 2.9 0 4.9.6 6 .9.3.1 1.3.4 2.6.9.7.3 1.6.8 2.3 1.1C16.5-16 20-10 20-2.7 20 8.8 11.1 19.5.3 21c-.1 0-.3-.1-.4 0-.2 0-.2.1-.2.1.1 0 .3.1.4 0 .2 0 .2-.1.2-.1C11.1 19.5 20 8.8 20-2.7 20-10 16.5-16 11.1-19c.5.3 1.6.9 2.9 1.9 1 .8 1 .8 2.6 2.4.9 1 2.4 3.1 3.1 4.4C21-7.7 21.5-6.1 22-3.7c.1.6.5 3.4.2 6-.1 1.1-.2 2-.7 3.6-.3 1.2-.3 1.2-1.3 3.4-.5 1.1-1.7 3.2-3.1 4.8-2.9 3.5-6.7 5.9-11 7.1-3.3.8-6.6 1-10 .4-2.4-.4-4.2-1.2-4.8-1.4-1.7-.7-3.3-1.7-4.2-2.4a22.3 22.3 0 0 1-6.9-8c-2.4-4.4-2.4-8.4-2.5-9.9z"/></defs><clipPath id="SVGID_38_"><use xlink:href="#SVGID_37_" overflow="visible"/></clipPath><path d="M-10 18.6C1.2 23.3 12.6 14.3 7.2 1.1 2.3-11-14.6-13.7-19.4-3.1c-4 8.9 1.6 18.4 9.4 21.7" clip-path="url(#SVGID_38_)" fill="#a52f46"/></g><g><defs><path id="SVGID_39_" d="M-22.3-.1c0-.8 0-2.9.7-5.5.7-2.7 1.8-4.6 2.1-5.2.5-.9 1.3-2 1.9-2.8.4-.5.9-1.1 1.3-1.5 1.6-1.5 1.6-1.5 2.9-2.6.9-.7 1.8-1.2 2.6-1.6 1.2-.6 5.4-2.7 11-2.7 2.9 0 4.9.6 6 .9.3.1 1.3.4 2.6.9.7.3 1.6.8 2.3 1.1C16.5-16 20-10 20-2.7 20 8.8 11.1 19.5.3 21c-.1 0-.3-.1-.4 0-.2 0-.2.1-.2.1.1 0 .3.1.4 0 .2 0 .2-.1.2-.1C11.1 19.5 20 8.8 20-2.7 20-10 16.5-16 11.1-19c.5.3 1.6.9 2.9 1.9 1 .8 1 .8 2.6 2.4.9 1 2.4 3.1 3.1 4.4C21-7.7 21.5-6.1 22-3.7c.1.6.5 3.4.2 6-.1 1.1-.2 2-.7 3.6-.3 1.2-.3 1.2-1.3 3.4-.5 1.1-1.7 3.2-3.1 4.8-2.9 3.5-6.7 5.9-11 7.1-3.3.8-6.6 1-10 .4-2.4-.4-4.2-1.2-4.8-1.4-1.7-.7-3.3-1.7-4.2-2.4a22.3 22.3 0 0 1-6.9-8c-2.4-4.4-2.4-8.4-2.5-9.9z"/></defs><clipPath id="SVGID_40_"><use xlink:href="#SVGID_39_" overflow="visible"/></clipPath><path d="M-9.8 18.4C.9 22.6 11.6 13.5 6.2 1 1.6-9.7-14.7-13.4-19.3-2c-3.4 8.6 2.1 17.1 9.5 20.4" clip-path="url(#SVGID_40_)" fill="#a93047"/></g><g><defs><path id="SVGID_41_" d="M-22.3-.1c0-.8 0-2.9.7-5.5.7-2.7 1.8-4.6 2.1-5.2.5-.9 1.3-2 1.9-2.8.4-.5.9-1.1 1.3-1.5 1.6-1.5 1.6-1.5 2.9-2.6.9-.7 1.8-1.2 2.6-1.6 1.2-.6 5.4-2.7 11-2.7 2.9 0 4.9.6 6 .9.3.1 1.3.4 2.6.9.7.3 1.6.8 2.3 1.1C16.5-16 20-10 20-2.7 20 8.8 11.1 19.5.3 21c-.1 0-.3-.1-.4 0-.2 0-.2.1-.2.1.1 0 .3.1.4 0 .2 0 .2-.1.2-.1C11.1 19.5 20 8.8 20-2.7 20-10 16.5-16 11.1-19c.5.3 1.6.9 2.9 1.9 1 .8 1 .8 2.6 2.4.9 1 2.4 3.1 3.1 4.4C21-7.7 21.5-6.1 22-3.7c.1.6.5 3.4.2 6-.1 1.1-.2 2-.7 3.6-.3 1.2-.3 1.2-1.3 3.4-.5 1.1-1.7 3.2-3.1 4.8-2.9 3.5-6.7 5.9-11 7.1-3.3.8-6.6 1-10 .4-2.4-.4-4.2-1.2-4.8-1.4-1.7-.7-3.3-1.7-4.2-2.4a22.3 22.3 0 0 1-6.9-8c-2.4-4.4-2.4-8.4-2.5-9.9z"/></defs><clipPath id="SVGID_42_"><use xlink:href="#SVGID_41_" overflow="visible"/></clipPath><path d="M-13.6 15.8C-1.1 24.2 8.9 14 6.4 3.9c-3-12-19.8-16.3-24.9-6.3-4.7 9.1 2.8 16.8 4.9 18.2" clip-path="url(#SVGID_42_)" fill="#ac3149"/></g><g><defs><path id="SVGID_43_" d="M-22.3-.1c0-.8 0-2.9.7-5.5.7-2.7 1.8-4.6 2.1-5.2.5-.9 1.3-2 1.9-2.8.4-.5.9-1.1 1.3-1.5 1.6-1.5 1.6-1.5 2.9-2.6.9-.7 1.8-1.2 2.6-1.6 1.2-.6 5.4-2.7 11-2.7 2.9 0 4.9.6 6 .9.3.1 1.3.4 2.6.9.7.3 1.6.8 2.3 1.1C16.5-16 20-10 20-2.7 20 8.8 11.1 19.5.3 21c-.1 0-.3-.1-.4 0-.2 0-.2.1-.2.1.1 0 .3.1.4 0 .2 0 .2-.1.2-.1C11.1 19.5 20 8.8 20-2.7 20-10 16.5-16 11.1-19c.5.3 1.6.9 2.9 1.9 1 .8 1 .8 2.6 2.4.9 1 2.4 3.1 3.1 4.4C21-7.7 21.5-6.1 22-3.7c.1.6.5 3.4.2 6-.1 1.1-.2 2-.7 3.6-.3 1.2-.3 1.2-1.3 3.4-.5 1.1-1.7 3.2-3.1 4.8-2.9 3.5-6.7 5.9-11 7.1-3.3.8-6.6 1-10 .4-2.4-.4-4.2-1.2-4.8-1.4-1.7-.7-3.3-1.7-4.2-2.4a22.3 22.3 0 0 1-6.9-8c-2.4-4.4-2.4-8.4-2.5-9.9z"/></defs><clipPath id="SVGID_44_"><use xlink:href="#SVGID_43_" overflow="visible"/></clipPath><path d="M-9.3 17.8c9.9 3.4 18.6-6.1 14-15.4C.8-5.5-5.2-6.9-7.5-7.1-13-7.6-17.4-4.8-19 .3c-1.9 5.9 1.2 14.1 9.7 17.5" clip-path="url(#SVGID_44_)" fill="#b0324a"/></g><g><defs><path id="SVGID_45_" d="M-22.3-.1c0-.8 0-2.9.7-5.5.7-2.7 1.8-4.6 2.1-5.2.5-.9 1.3-2 1.9-2.8.4-.5.9-1.1 1.3-1.5 1.6-1.5 1.6-1.5 2.9-2.6.9-.7 1.8-1.2 2.6-1.6 1.2-.6 5.4-2.7 11-2.7 2.9 0 4.9.6 6 .9.3.1 1.3.4 2.6.9.7.3 1.6.8 2.3 1.1C16.5-16 20-10 20-2.7 20 8.8 11.1 19.5.3 21c-.1 0-.3-.1-.4 0-.2 0-.2.1-.2.1.1 0 .3.1.4 0 .2 0 .2-.1.2-.1C11.1 19.5 20 8.8 20-2.7 20-10 16.5-16 11.1-19c.5.3 1.6.9 2.9 1.9 1 .8 1 .8 2.6 2.4.9 1 2.4 3.1 3.1 4.4C21-7.7 21.5-6.1 22-3.7c.1.6.5 3.4.2 6-.1 1.1-.2 2-.7 3.6-.3 1.2-.3 1.2-1.3 3.4-.5 1.1-1.7 3.2-3.1 4.8-2.9 3.5-6.7 5.9-11 7.1-3.3.8-6.6 1-10 .4-2.4-.4-4.2-1.2-4.8-1.4-1.7-.7-3.3-1.7-4.2-2.4a22.3 22.3 0 0 1-6.9-8c-2.4-4.4-2.4-8.4-2.5-9.9z"/></defs><clipPath id="SVGID_46_"><use xlink:href="#SVGID_45_" overflow="visible"/></clipPath><path d="M-13.4 15.1c4.7 3.6 9.9 3.2 12.2 2 1.6-.8 6.8-3.9 5.9-11C3.3-4.7-10.6-10.5-16.6-2.6c-7.1 9.4 3.1 17.7 3.2 17.7" clip-path="url(#SVGID_46_)" fill="#b3344c"/></g><g><defs><path id="SVGID_47_" d="M-22.3-.1c0-.8 0-2.9.7-5.5.7-2.7 1.8-4.6 2.1-5.2.5-.9 1.3-2 1.9-2.8.4-.5.9-1.1 1.3-1.5 1.6-1.5 1.6-1.5 2.9-2.6.9-.7 1.8-1.2 2.6-1.6 1.2-.6 5.4-2.7 11-2.7 2.9 0 4.9.6 6 .9.3.1 1.3.4 2.6.9.7.3 1.6.8 2.3 1.1C16.5-16 20-10 20-2.7 20 8.8 11.1 19.5.3 21c-.1 0-.3-.1-.4 0-.2 0-.2.1-.2.1.1 0 .3.1.4 0 .2 0 .2-.1.2-.1C11.1 19.5 20 8.8 20-2.7 20-10 16.5-16 11.1-19c.5.3 1.6.9 2.9 1.9 1 .8 1 .8 2.6 2.4.9 1 2.4 3.1 3.1 4.4C21-7.7 21.5-6.1 22-3.7c.1.6.5 3.4.2 6-.1 1.1-.2 2-.7 3.6-.3 1.2-.3 1.2-1.3 3.4-.5 1.1-1.7 3.2-3.1 4.8-2.9 3.5-6.7 5.9-11 7.1-3.3.8-6.6 1-10 .4-2.4-.4-4.2-1.2-4.8-1.4-1.7-.7-3.3-1.7-4.2-2.4a22.3 22.3 0 0 1-6.9-8c-2.4-4.4-2.4-8.4-2.5-9.9z"/></defs><clipPath id="SVGID_48_"><use xlink:href="#SVGID_47_" overflow="visible"/></clipPath><path d="M-13.1 14.9C-7 19.2-2 16.9-.7 16.1c2.5-1.4 5.2-4.5 4.2-10.8C2.1-3.5-11-9.3-16.5-1.4c-1.7 2.3-4.9 8.8 3.4 16.3" clip-path="url(#SVGID_48_)" fill="#b6354e"/></g><g><defs><path id="SVGID_49_" d="M-22.3-.1c0-.8 0-2.9.7-5.5.7-2.7 1.8-4.6 2.1-5.2.5-.9 1.3-2 1.9-2.8.4-.5.9-1.1 1.3-1.5 1.6-1.5 1.6-1.5 2.9-2.6.9-.7 1.8-1.2 2.6-1.6 1.2-.6 5.4-2.7 11-2.7 2.9 0 4.9.6 6 .9.3.1 1.3.4 2.6.9.7.3 1.6.8 2.3 1.1C16.5-16 20-10 20-2.7 20 8.8 11.1 19.5.3 21c-.1 0-.3-.1-.4 0-.2 0-.2.1-.2.1.1 0 .3.1.4 0 .2 0 .2-.1.2-.1C11.1 19.5 20 8.8 20-2.7 20-10 16.5-16 11.1-19c.5.3 1.6.9 2.9 1.9 1 .8 1 .8 2.6 2.4.9 1 2.4 3.1 3.1 4.4C21-7.7 21.5-6.1 22-3.7c.1.6.5 3.4.2 6-.1 1.1-.2 2-.7 3.6-.3 1.2-.3 1.2-1.3 3.4-.5 1.1-1.7 3.2-3.1 4.8-2.9 3.5-6.7 5.9-11 7.1-3.3.8-6.6 1-10 .4-2.4-.4-4.2-1.2-4.8-1.4-1.7-.7-3.3-1.7-4.2-2.4a22.3 22.3 0 0 1-6.9-8c-2.4-4.4-2.4-8.4-2.5-9.9z"/></defs><clipPath id="SVGID_50_"><use xlink:href="#SVGID_49_" overflow="visible"/></clipPath><path d="M-12.6 14.6c.1 0 6 4.2 11.1 1l3.2-3.1c1.4-3.6 1.4-3.6.7-7.3C1.9 2.1-.4-.4-1.4-1.3-2-1.8-3-2.7-7.5-4.1c-.1 0-5.6-1.1-8.8 3.7-2.8 4-2.1 10.9 3.7 15" clip-path="url(#SVGID_50_)" fill="#ba364f"/></g><g><defs><path id="SVGID_51_" d="M-22.3-.1c0-.8 0-2.9.7-5.5.7-2.7 1.8-4.6 2.1-5.2.5-.9 1.3-2 1.9-2.8.4-.5.9-1.1 1.3-1.5 1.6-1.5 1.6-1.5 2.9-2.6.9-.7 1.8-1.2 2.6-1.6 1.2-.6 5.4-2.7 11-2.7 2.9 0 4.9.6 6 .9.3.1 1.3.4 2.6.9.7.3 1.6.8 2.3 1.1C16.5-16 20-10 20-2.7 20 8.8 11.1 19.5.3 21c-.1 0-.3-.1-.4 0-.2 0-.2.1-.2.1.1 0 .3.1.4 0 .2 0 .2-.1.2-.1C11.1 19.5 20 8.8 20-2.7 20-10 16.5-16 11.1-19c.5.3 1.6.9 2.9 1.9 1 .8 1 .8 2.6 2.4.9 1 2.4 3.1 3.1 4.4C21-7.7 21.5-6.1 22-3.7c.1.6.5 3.4.2 6-.1 1.1-.2 2-.7 3.6-.3 1.2-.3 1.2-1.3 3.4-.5 1.1-1.7 3.2-3.1 4.8-2.9 3.5-6.7 5.9-11 7.1-3.3.8-6.6 1-10 .4-2.4-.4-4.2-1.2-4.8-1.4-1.7-.7-3.3-1.7-4.2-2.4a22.3 22.3 0 0 1-6.9-8c-2.4-4.4-2.4-8.4-2.5-9.9z"/></defs><clipPath id="SVGID_52_"><use xlink:href="#SVGID_51_" overflow="visible"/></clipPath><path d="M-12 14.3c1.2.8 6.2 2.5 8.3 1.3 2.3-1.3 6.2-3.5 5.3-8.9C1.3 4.6 1 3.6 1 3.6c-.3-.4-3.7-4.8-3.9-4.8C-7.1-3-7.1-3-9.2-2.9c-2.4.1-4 .2-6.2 2.4-1.5 1.6-4.5 9.2 3.4 14.8" clip-path="url(#SVGID_52_)" fill="#bd3751"/></g><g><defs><path id="SVGID_53_" d="M-22.3-.1c0-.8 0-2.9.7-5.5.7-2.7 1.8-4.6 2.1-5.2.5-.9 1.3-2 1.9-2.8.4-.5.9-1.1 1.3-1.5 1.6-1.5 1.6-1.5 2.9-2.6.9-.7 1.8-1.2 2.6-1.6 1.2-.6 5.4-2.7 11-2.7 2.9 0 4.9.6 6 .9.3.1 1.3.4 2.6.9.7.3 1.6.8 2.3 1.1C16.5-16 20-10 20-2.7 20 8.8 11.1 19.5.3 21c-.1 0-.3-.1-.4 0-.2 0-.2.1-.2.1.1 0 .3.1.4 0 .2 0 .2-.1.2-.1C11.1 19.5 20 8.8 20-2.7 20-10 16.5-16 11.1-19c.5.3 1.6.9 2.9 1.9 1 .8 1 .8 2.6 2.4.9 1 2.4 3.1 3.1 4.4C21-7.7 21.5-6.1 22-3.7c.1.6.5 3.4.2 6-.1 1.1-.2 2-.7 3.6-.3 1.2-.3 1.2-1.3 3.4-.5 1.1-1.7 3.2-3.1 4.8-2.9 3.5-6.7 5.9-11 7.1-3.3.8-6.6 1-10 .4-2.4-.4-4.2-1.2-4.8-1.4-1.7-.7-3.3-1.7-4.2-2.4a22.3 22.3 0 0 1-6.9-8c-2.4-4.4-2.4-8.4-2.5-9.9z"/></defs><clipPath id="SVGID_54_"><use xlink:href="#SVGID_53_" overflow="visible"/></clipPath><path d="M-13.1 12.5c3.3 3.1 6.7 2.9 9 2.2 0 0 2.3-1 3.2-2.2L.6 8.3c0-.1-1-4.5-1.1-4.6C-1.8 1.7-3.1.2-5.4-1c-1.3-.6-2.2-1.1-6.4-.5a21 21 0 0 0-3 1.9s-4.8 6.2 1.7 12.1" clip-path="url(#SVGID_54_)" fill="#c13952"/></g><g><defs><path id="SVGID_55_" d="M-22.3-.1c0-.8 0-2.9.7-5.5.7-2.7 1.8-4.6 2.1-5.2.5-.9 1.3-2 1.9-2.8.4-.5.9-1.1 1.3-1.5 1.6-1.5 1.6-1.5 2.9-2.6.9-.7 1.8-1.2 2.6-1.6 1.2-.6 5.4-2.7 11-2.7 2.9 0 4.9.6 6 .9.3.1 1.3.4 2.6.9.7.3 1.6.8 2.3 1.1C16.5-16 20-10 20-2.7 20 8.8 11.1 19.5.3 21c-.1 0-.3-.1-.4 0-.2 0-.2.1-.2.1.1 0 .3.1.4 0 .2 0 .2-.1.2-.1C11.1 19.5 20 8.8 20-2.7 20-10 16.5-16 11.1-19c.5.3 1.6.9 2.9 1.9 1 .8 1 .8 2.6 2.4.9 1 2.4 3.1 3.1 4.4C21-7.7 21.5-6.1 22-3.7c.1.6.5 3.4.2 6-.1 1.1-.2 2-.7 3.6-.3 1.2-.3 1.2-1.3 3.4-.5 1.1-1.7 3.2-3.1 4.8-2.9 3.5-6.7 5.9-11 7.1-3.3.8-6.6 1-10 .4-2.4-.4-4.2-1.2-4.8-1.4-1.7-.7-3.3-1.7-4.2-2.4a22.3 22.3 0 0 1-6.9-8c-2.4-4.4-2.4-8.4-2.5-9.9z"/></defs><clipPath id="SVGID_56_"><use xlink:href="#SVGID_55_" overflow="visible"/></clipPath><path d="M-10.2 13.6c.7.4 3.3.6 3.3.6l2.4-.5 2-1.2c1.1-1.3 1.8-4.2 1.8-4.3l-1.1-4.6C-2.6 2-7.3-.6-7.4-.6c-1.1-.1-4 0-4.3.1-.8.4-3.1 3.1-3.1 3.1-.2.3-.8 2.8-.8 3 0 0 .3 1.9 1.4 4.6.1.2 3.7 3.3 4 3.4" clip-path="url(#SVGID_56_)" fill="#c43a54"/></g><g><defs><path id="SVGID_57_" d="M-22.3-.1c0-.8 0-2.9.7-5.5.7-2.7 1.8-4.6 2.1-5.2.5-.9 1.3-2 1.9-2.8.4-.5.9-1.1 1.3-1.5 1.6-1.5 1.6-1.5 2.9-2.6.9-.7 1.8-1.2 2.6-1.6 1.2-.6 5.4-2.7 11-2.7 2.9 0 4.9.6 6 .9.3.1 1.3.4 2.6.9.7.3 1.6.8 2.3 1.1C16.5-16 20-10 20-2.7 20 8.8 11.1 19.5.3 21c-.1 0-.3-.1-.4 0-.2 0-.2.1-.2.1.1 0 .3.1.4 0 .2 0 .2-.1.2-.1C11.1 19.5 20 8.8 20-2.7 20-10 16.5-16 11.1-19c.5.3 1.6.9 2.9 1.9 1 .8 1 .8 2.6 2.4.9 1 2.4 3.1 3.1 4.4C21-7.7 21.5-6.1 22-3.7c.1.6.5 3.4.2 6-.1 1.1-.2 2-.7 3.6-.3 1.2-.3 1.2-1.3 3.4-.5 1.1-1.7 3.2-3.1 4.8-2.9 3.5-6.7 5.9-11 7.1-3.3.8-6.6 1-10 .4-2.4-.4-4.2-1.2-4.8-1.4-1.7-.7-3.3-1.7-4.2-2.4a22.3 22.3 0 0 1-6.9-8c-2.4-4.4-2.4-8.4-2.5-9.9z"/></defs><clipPath id="SVGID_58_"><use xlink:href="#SVGID_57_" overflow="visible"/></clipPath><path d="M-11 11.9s2.2 1.2 3.5 1.3l2.6-.6c.3-.2.4-.7.6-1l1.4-2.1c.4-.3.9-.8.8-1.2-.5-2.2-1.5-4.6-1.5-4.6-.1-.1-3.5-2.4-3.7-2.4h-4.2c-.1.1-2 1.8-2.9 3.1-.8 1.2 1 5.5 1 5.5.7.7 1.7 1.5 2.4 2" clip-path="url(#SVGID_58_)" fill="#c73b55"/></g><g><defs><path id="SVGID_59_" d="M-22.3-.1c0-.8 0-2.9.7-5.5.7-2.7 1.8-4.6 2.1-5.2.5-.9 1.3-2 1.9-2.8.4-.5.9-1.1 1.3-1.5 1.6-1.5 1.6-1.5 2.9-2.6.9-.7 1.8-1.2 2.6-1.6 1.2-.6 5.4-2.7 11-2.7 2.9 0 4.9.6 6 .9.3.1 1.3.4 2.6.9.7.3 1.6.8 2.3 1.1C16.5-16 20-10 20-2.7 20 8.8 11.1 19.5.3 21c-.1 0-.3-.1-.4 0-.2 0-.2.1-.2.1.1 0 .3.1.4 0 .2 0 .2-.1.2-.1C11.1 19.5 20 8.8 20-2.7 20-10 16.5-16 11.1-19c.5.3 1.6.9 2.9 1.9 1 .8 1 .8 2.6 2.4.9 1 2.4 3.1 3.1 4.4C21-7.7 21.5-6.1 22-3.7c.1.6.5 3.4.2 6-.1 1.1-.2 2-.7 3.6-.3 1.2-.3 1.2-1.3 3.4-.5 1.1-1.7 3.2-3.1 4.8-2.9 3.5-6.7 5.9-11 7.1-3.3.8-6.6 1-10 .4-2.4-.4-4.2-1.2-4.8-1.4-1.7-.7-3.3-1.7-4.2-2.4a22.3 22.3 0 0 1-6.9-8c-2.4-4.4-2.4-8.4-2.5-9.9z"/></defs><clipPath id="SVGID_60_"><use xlink:href="#SVGID_59_" overflow="visible"/></clipPath><path d="M-8.4 11.3l2.9-.9c.6-.4 1.3-1.3 1.3-2.1l-1.7-4.5c-.3-.2-.7-.7-1.1-.7h-4.1c-.6.3-1.4 1-1.6 1.7-.1.3.4 4.4.6 4.7l3.7 1.8" clip-path="url(#SVGID_60_)" fill="#cb3c57"/></g><g><defs><path id="SVGID_61_" d="M-22.3-.1c0-.8 0-2.9.7-5.5.7-2.7 1.8-4.6 2.1-5.2.5-.9 1.3-2 1.9-2.8.4-.5.9-1.1 1.3-1.5 1.6-1.5 1.6-1.5 2.9-2.6.9-.7 1.8-1.2 2.6-1.6 1.2-.6 5.4-2.7 11-2.7 2.9 0 4.9.6 6 .9.3.1 1.3.4 2.6.9.7.3 1.6.8 2.3 1.1C16.5-16 20-10 20-2.7 20 8.8 11.1 19.5.3 21c-.1 0-.3-.1-.4 0-.2 0-.2.1-.2.1.1 0 .3.1.4 0 .2 0 .2-.1.2-.1C11.1 19.5 20 8.8 20-2.7 20-10 16.5-16 11.1-19c.5.3 1.6.9 2.9 1.9 1 .8 1 .8 2.6 2.4.9 1 2.4 3.1 3.1 4.4C21-7.7 21.5-6.1 22-3.7c.1.6.5 3.4.2 6-.1 1.1-.2 2-.7 3.6-.3 1.2-.3 1.2-1.3 3.4-.5 1.1-1.7 3.2-3.1 4.8-2.9 3.5-6.7 5.9-11 7.1-3.3.8-6.6 1-10 .4-2.4-.4-4.2-1.2-4.8-1.4-1.7-.7-3.3-1.7-4.2-2.4a22.3 22.3 0 0 1-6.9-8c-2.4-4.4-2.4-8.4-2.5-9.9z"/></defs><clipPath id="SVGID_62_"><use xlink:href="#SVGID_61_" overflow="visible"/></clipPath><path d="M-9.3 9.1c.2 0 .4-.2.6-.2l-.9-.6c0 .2 0 .5.1.7l.2.1" clip-path="url(#SVGID_62_)" fill="#ce3d58"/></g><g><defs><path id="SVGID_63_" d="M-11 19.1c-.8-.5-1.6-.9-3.1-2.2a23.83 23.83 0 0 1-5.6-6.9c-.9-1.8-1-2-1.4-3.3-.6-1.6-.8-2.7-.9-3.5-.2-1-.2-2.3-.2-3.2 0-1.1.2-2.5.3-3.5.1-1.1.8-3.7 1.6-5.2 1-2.1 1-2.1 1.7-3.1.9-1.4 1.7-2.3 2.2-2.8a22.21 22.21 0 0 1 19.2-7c4.3.5 7.1 2.1 8.4 2.8-3.2-1.8-6.9-2.6-11-2 4.1-.5 7.9.2 11 2 .8.5 1.8 1.1 2.5 1.7.5.4 1.7 1.3 2.7 2.4 2.2 2.4 3 3.9 4.1 6 1 2 1.5 4.6 1.6 5.3.3 2.2.3 2.3.3 3.7 0 1.1-.1 2.5-.3 3.5-.3 1.2-1 3.6-1.8 5.2s-1 1.9-1.7 3.1a21.94 21.94 0 0 1-13.5 9.3A23.11 23.11 0 0 1-11 19.1z"/></defs><clipPath id="SVGID_64_"><use xlink:href="#SVGID_63_" overflow="visible"/></clipPath><path d="M-11 19.1c-3.9-2.2-12.7-8.9-10.9-22.6.7-5.5 5.5-14.7 16-17.6 4-1.1 10.2-1.6 17 2.1-3.2-1.8-6.9-2.6-11-2 4.1-.5 7.9.2 11 2C22.9-11.8 22.6-.9 22 3.5c-1 7-6.8 15.5-16.9 17.9-5.6 1.3-11.4.4-16.1-2.3" clip-path="url(#SVGID_64_)" fill="#97293f"/><defs><path id="SVGID_65_" d="M-11 19.1c-.8-.5-1.6-.9-3.1-2.2a23.83 23.83 0 0 1-5.6-6.9c-.9-1.8-1-2-1.4-3.3-.6-1.6-.8-2.7-.9-3.5-.2-1-.2-2.3-.2-3.2 0-1.1.2-2.5.3-3.5.1-1.1.8-3.7 1.6-5.2 1-2.1 1-2.1 1.7-3.1.9-1.4 1.7-2.3 2.2-2.8a22.21 22.21 0 0 1 19.2-7c4.3.5 7.1 2.1 8.4 2.8-3.2-1.8-6.9-2.6-11-2 4.1-.5 7.9.2 11 2 .8.5 1.8 1.1 2.5 1.7.5.4 1.7 1.3 2.7 2.4 2.2 2.4 3 3.9 4.1 6 1 2 1.5 4.6 1.6 5.3.3 2.2.3 2.3.3 3.7 0 1.1-.1 2.5-.3 3.5-.3 1.2-1 3.6-1.8 5.2s-1 1.9-1.7 3.1a21.94 21.94 0 0 1-13.5 9.3A23.11 23.11 0 0 1-11 19.1z"/></defs><clipPath id="SVGID_66_"><use xlink:href="#SVGID_65_" overflow="visible"/></clipPath><path d="M11.1-19c1.1.6 2.4 1.4 4 2.9l1.2 1.1c.4.5.9 1.1 1.3 1.5l1 1.3c.3.5.7 1.1 1 1.7l.8 1.5c.2.5.5 1.2.7 1.8l.5 1.6c.1.6.3 1.4.4 1.9l.2 1.7c0 .6.1 1.4.1 1.9l-.1 1.8-.3 2.3-.4 1.7c-.2.5-.4 1.3-.6 1.8L20.3 9c-.3.5-.6 1.2-.9 1.7l-.9 1.4c-.3.5-.8 1.1-1.1 1.5l-1.1 1.2-1.4 1.4-1.2 1c-.5.4-1.3.9-1.8 1.3l-1.1.7c-1.5.8-1.6.8-2.5 1.2l-.8.3c-1.1.4-2.3.8-4.4 1.1l-.6.1c-.2 0-.4 0-.6.1h-4l-.5-.1c-.2 0-.4-.1-.6-.1l-.6-.1c-.2 0-.5-.1-.7-.1l-.7-.2c-.2-.1-.6-.1-.8-.2l-.9-.3-1.1-.4-1.1-.5c-.5-.3-1.2-.6-1.7-.9l-1.3-.8c-.6-.4-1.3-1-1.9-1.4l-1.2-1.1c-.4-.4-1-1-1.4-1.5l-1-1.3c-.3-.5-.8-1.1-1.1-1.6l-.8-1.5c-.2-.5-.6-1.2-.8-1.7l-.6-1.6c-.2-.5-.4-1.3-.5-1.8l-.6-1.6c-.1-1-.2-2.3-.2-3.2l.1-1.8c.1-.6.2-1.3.2-1.9l.4-1.7c.2-.5.4-1.3.6-1.8l.6-1.6c.3-.5.6-1.2.8-1.7l.9-1.4c.3-.5.8-1.1 1.1-1.6l1.1-1.2 1.4-1.4 1.2-1c.5-.4 1.3-.9 1.8-1.3l1.1-.7c1.5-.8 1.6-.8 2.5-1.2l.8-.3c1.2-.4 2.3-.8 4.6-1.1l.6-.1c.2 0 .4 0 .6-.1h4l.5.1c.2 0 .4.1.6.1l.6.1c.2 0 .5.1.7.1l.7.2c.2.1.6.1.8.2l.9.3 1.1.4 1.1.5A16.98 16.98 0 0 0 .1-21H0c-18.9 5.8-12.5 25.2-1.6 31.5C11.2 17.9 24.8 8 21.3-6 19.6-12.7 14.5-20.8 0-21.1c4.1-.5 7.9.3 11.1 2.1" clip-path="url(#SVGID_66_)" fill="#97293f"/><defs><path id="SVGID_67_" d="M-11 19.1c-.8-.5-1.6-.9-3.1-2.2a23.83 23.83 0 0 1-5.6-6.9c-.9-1.8-1-2-1.4-3.3-.6-1.6-.8-2.7-.9-3.5-.2-1-.2-2.3-.2-3.2 0-1.1.2-2.5.3-3.5.1-1.1.8-3.7 1.6-5.2 1-2.1 1-2.1 1.7-3.1.9-1.4 1.7-2.3 2.2-2.8a22.21 22.21 0 0 1 19.2-7c4.3.5 7.1 2.1 8.4 2.8-3.2-1.8-6.9-2.6-11-2 4.1-.5 7.9.2 11 2 .8.5 1.8 1.1 2.5 1.7.5.4 1.7 1.3 2.7 2.4 2.2 2.4 3 3.9 4.1 6 1 2 1.5 4.6 1.6 5.3.3 2.2.3 2.3.3 3.7 0 1.1-.1 2.5-.3 3.5-.3 1.2-1 3.6-1.8 5.2s-1 1.9-1.7 3.1a21.94 21.94 0 0 1-13.5 9.3A23.11 23.11 0 0 1-11 19.1z"/></defs><clipPath id="SVGID_68_"><use xlink:href="#SVGID_67_" overflow="visible"/></clipPath><path d="M11.1-19c1.1.6 2.4 1.4 4 2.9l1.2 1.1c.4.5.9 1.1 1.3 1.5l1 1.3c.3.5.7 1.1 1 1.7l.8 1.5c.2.5.5 1.2.7 1.8l.5 1.6c.1.6.3 1.4.4 1.9l.2 1.7c0 .6.1 1.4.1 1.9l-.1 1.8-.3 2.3-.4 1.7c-.2.5-.4 1.3-.6 1.8L20.3 9c-.3.5-.6 1.2-.9 1.7l-.9 1.4c-.3.5-.8 1.1-1.1 1.5l-1.1 1.2-1.4 1.4-1.2 1c-.5.4-1.3.9-1.8 1.3l-1.1.7c-1.5.8-1.6.8-2.5 1.2l-.8.3c-1.1.4-2.3.8-4.4 1.1l-.6.1c-.2 0-.4 0-.6.1h-4l-.5-.1c-.2 0-.4-.1-.6-.1l-.6-.1c-.2 0-.5-.1-.7-.1l-.7-.2c-.2-.1-.6-.1-.8-.2l-.9-.3-1.1-.4-1.1-.5c-.5-.3-1.2-.6-1.7-.9l-1.3-.8c-.6-.4-1.3-1-1.9-1.4l-1.2-1.1c-.4-.4-1-1-1.4-1.5l-1-1.3c-.3-.5-.8-1.1-1.1-1.6l-.8-1.5c-.2-.5-.6-1.2-.8-1.7l-.6-1.6c-.2-.5-.4-1.3-.5-1.8l-.6-1.6c-.1-1-.2-2.3-.2-3.2l.1-1.8c.1-.6.2-1.3.2-1.9l.4-1.7c.2-.5.4-1.3.6-1.8l.6-1.6c.3-.5.6-1.2.8-1.7l.9-1.4c.3-.5.8-1.1 1.1-1.6l1.1-1.2 1.4-1.4 1.2-1c.5-.4 1.3-.9 1.8-1.3l1.1-.7c1.5-.8 1.6-.8 2.5-1.2l.8-.3c1.2-.4 2.3-.8 4.6-1.1l.6-.1c.2 0 .4 0 .6-.1h4l.5.1c.2 0 .4.1.6.1l.6.1c.2 0 .5.1.7.1l.7.2c.2.1.6.1.8.2l.9.3 1.1.4 1.1.5c.7.2 1.4.6 1.9.9-1.2-.7-2.4-1.2-3.8-1.6-.4-.1-.9-.3-1.3-.4C-11-24.2-18-6.5-8.5 5.7c9.8 12.6 28.2 9.9 30.4-4.5 1.4-9.1-5.2-18.9-14.5-21.8 1.2.4 2.5.9 3.7 1.6" clip-path="url(#SVGID_68_)" fill="#94273d"/><defs><path id="SVGID_69_" d="M-11 19.1c-.8-.5-1.6-.9-3.1-2.2a23.83 23.83 0 0 1-5.6-6.9c-.9-1.8-1-2-1.4-3.3-.6-1.6-.8-2.7-.9-3.5-.2-1-.2-2.3-.2-3.2 0-1.1.2-2.5.3-3.5.1-1.1.8-3.7 1.6-5.2 1-2.1 1-2.1 1.7-3.1.9-1.4 1.7-2.3 2.2-2.8a22.21 22.21 0 0 1 19.2-7c4.3.5 7.1 2.1 8.4 2.8-3.2-1.8-6.9-2.6-11-2 4.1-.5 7.9.2 11 2 .8.5 1.8 1.1 2.5 1.7.5.4 1.7 1.3 2.7 2.4 2.2 2.4 3 3.9 4.1 6 1 2 1.5 4.6 1.6 5.3.3 2.2.3 2.3.3 3.7 0 1.1-.1 2.5-.3 3.5-.3 1.2-1 3.6-1.8 5.2s-1 1.9-1.7 3.1a21.94 21.94 0 0 1-13.5 9.3A23.11 23.11 0 0 1-11 19.1z"/></defs><clipPath id="SVGID_70_"><use xlink:href="#SVGID_69_" overflow="visible"/></clipPath><path d="M21-7.2c.3.8.6 1.8.9 3.5l.2 1.7c0 .6.1 1.4.1 1.9l-.1 1.8c0 .7-.1 1.6-.2 2.3l-.4 1.7c-.2.5-.4 1.3-.6 1.8L20.3 9c-.3.5-.6 1.2-.9 1.7l-.9 1.4c-.3.5-.8 1.1-1.1 1.5l-1.1 1.2-1.4 1.4-1.2 1c-.5.4-1.3.9-1.8 1.3l-1.1.7c-1.5.8-1.6.8-2.5 1.2l-.8.3c-1.1.4-2.3.8-4.4 1.1l-.6.1c-.2 0-.4 0-.6.1h-4l-.5-.1c-.2 0-.4-.1-.6-.1l-.6-.1c-.2 0-.5-.1-.7-.1l-.7-.2c-.2-.1-.6-.1-.8-.2l-.9-.3-1.1-.4-1.1-.5c-.5-.3-1.2-.6-1.7-.9l-1.3-.8c-.6-.4-1.3-1-1.9-1.4l-1.2-1.1c-.4-.4-1-1-1.4-1.5l-1-1.3c-.3-.5-.8-1.1-1.1-1.6l-.8-1.5c-.2-.5-.6-1.2-.8-1.7l-.6-1.6c-.2-.5-.4-1.3-.5-1.8l-.6-1.6c-.1-1-.2-2.3-.2-3.2l.1-1.8c.1-.6.2-1.3.2-1.9l.4-1.7c.2-.5.4-1.3.6-1.8l.6-1.6c.3-.5.6-1.2.8-1.7l.9-1.4c.3-.5.8-1.1 1.1-1.6l1.1-1.2 1.4-1.4 1.2-1c.5-.4 1.3-.9 1.8-1.3l1.1-.7c1.5-.8 1.6-.8 2.5-1.2l.8-.3c1.2-.4 2.3-.8 4.6-1.1l.6-.1c.2 0 .4 0 .6-.1h4l.5.1c.2 0 .4.1.6.1l.6.1c.2 0 .5.1.7.1l.7.2c.2.1.6.1.8.2l.9.3 1.1.4 1.1.5c.5.3 1.2.6 1.7.9-.2-.1-.3-.2-.5-.3-.4-.2-.9-.4-1.3-.6-15.5-6.5-26.7 6.7-22 20C-7.2 15.6 13.4 20 20.2 7c2.4-4.5 2.6-9.2.6-14.8.1.2.2.4.2.6" clip-path="url(#SVGID_70_)" fill="#91263b"/><defs><path id="SVGID_71_" d="M-11 19.1c-.8-.5-1.6-.9-3.1-2.2a23.83 23.83 0 0 1-5.6-6.9c-.9-1.8-1-2-1.4-3.3-.6-1.6-.8-2.7-.9-3.5-.2-1-.2-2.3-.2-3.2 0-1.1.2-2.5.3-3.5.1-1.1.8-3.7 1.6-5.2 1-2.1 1-2.1 1.7-3.1.9-1.4 1.7-2.3 2.2-2.8a22.21 22.21 0 0 1 19.2-7c4.3.5 7.1 2.1 8.4 2.8-3.2-1.8-6.9-2.6-11-2 4.1-.5 7.9.2 11 2 .8.5 1.8 1.1 2.5 1.7.5.4 1.7 1.3 2.7 2.4 2.2 2.4 3 3.9 4.1 6 1 2 1.5 4.6 1.6 5.3.3 2.2.3 2.3.3 3.7 0 1.1-.1 2.5-.3 3.5-.3 1.2-1 3.6-1.8 5.2s-1 1.9-1.7 3.1a21.94 21.94 0 0 1-13.5 9.3A23.11 23.11 0 0 1-11 19.1z"/></defs><clipPath id="SVGID_72_"><use xlink:href="#SVGID_71_" overflow="visible"/></clipPath><path d="M11.1-19c.4.2.8.5 1.2.7-.4-.2-.9-.6-1.3-.8l-.3-.2c0 .1.2.2.4.3" clip-path="url(#SVGID_72_)" fill="#91263b"/><defs><path id="SVGID_73_" d="M-11 19.1c-.8-.5-1.6-.9-3.1-2.2a23.83 23.83 0 0 1-5.6-6.9c-.9-1.8-1-2-1.4-3.3-.6-1.6-.8-2.7-.9-3.5-.2-1-.2-2.3-.2-3.2 0-1.1.2-2.5.3-3.5.1-1.1.8-3.7 1.6-5.2 1-2.1 1-2.1 1.7-3.1.9-1.4 1.7-2.3 2.2-2.8a22.21 22.21 0 0 1 19.2-7c4.3.5 7.1 2.1 8.4 2.8-3.2-1.8-6.9-2.6-11-2 4.1-.5 7.9.2 11 2 .8.5 1.8 1.1 2.5 1.7.5.4 1.7 1.3 2.7 2.4 2.2 2.4 3 3.9 4.1 6 1 2 1.5 4.6 1.6 5.3.3 2.2.3 2.3.3 3.7 0 1.1-.1 2.5-.3 3.5-.3 1.2-1 3.6-1.8 5.2s-1 1.9-1.7 3.1a21.94 21.94 0 0 1-13.5 9.3A23.11 23.11 0 0 1-11 19.1z"/></defs><clipPath id="SVGID_74_"><use xlink:href="#SVGID_73_" overflow="visible"/></clipPath><path d="M22.3 0c-.1 2.3-.1 2.5-.4 4l-.4 1.7c-.2.5-.4 1.3-.6 1.8L20.3 9c-.3.5-.6 1.2-.9 1.7l-.9 1.4c-.3.5-.8 1.1-1.1 1.5l-1.1 1.2-1.4 1.4-1.2 1c-.5.4-1.3.9-1.8 1.3l-1.1.7c-1.5.8-1.6.8-2.5 1.2l-.8.3c-1.1.4-2.3.8-4.4 1.1l-.6.1c-.2 0-.4 0-.6.1h-4l-.5-.1c-.2 0-.4-.1-.6-.1l-.6-.1c-.2 0-.5-.1-.7-.1l-.7-.2c-.2-.1-.6-.1-.8-.2l-.9-.3-1.1-.4-1.1-.5c-.5-.3-1.2-.6-1.7-.9l-1.3-.8c-.6-.4-1.3-1-1.9-1.4l-1.2-1.1c-.4-.4-1-1-1.4-1.5l-1-1.3c-.3-.5-.8-1.1-1.1-1.6l-.8-1.5c-.2-.5-.6-1.2-.8-1.7l-.6-1.6c-.2-.5-.4-1.3-.5-1.8l-.6-1.6c-.1-1-.2-2.3-.2-3.2l.1-1.8c.1-.6.2-1.3.2-1.9l.4-1.7c.2-.5.4-1.3.6-1.8l.6-1.6c.3-.5.6-1.2.8-1.7l.9-1.4c.3-.5.8-1.1 1.1-1.6l1.1-1.2 1.4-1.4 1.2-1c.5-.4 1.3-.9 1.8-1.3l1.1-.7c1.5-.8 1.6-.8 2.5-1.2l.8-.3c1.2-.4 2.3-.8 4.6-1.1l.6-.1c.2 0 .4 0 .6-.1h4l.5.1c.2 0 .4.1.6.1l.6.1c.2 0 .5.1.7.1l.7.2c.2.1.6.1.8.2l.9.3.6.2-.2-.1c-15-4.8-28 8.1-19 25.2 6.2 11.9 27.3 16.6 32.9.6.9-2.6 1.1-5.3.7-8.4l.2 1.7.1 1.6" clip-path="url(#SVGID_74_)" fill="#8d2439"/><defs><path id="SVGID_75_" d="M-11 19.1c-.8-.5-1.6-.9-3.1-2.2a23.83 23.83 0 0 1-5.6-6.9c-.9-1.8-1-2-1.4-3.3-.6-1.6-.8-2.7-.9-3.5-.2-1-.2-2.3-.2-3.2 0-1.1.2-2.5.3-3.5.1-1.1.8-3.7 1.6-5.2 1-2.1 1-2.1 1.7-3.1.9-1.4 1.7-2.3 2.2-2.8a22.21 22.21 0 0 1 19.2-7c4.3.5 7.1 2.1 8.4 2.8-3.2-1.8-6.9-2.6-11-2 4.1-.5 7.9.2 11 2 .8.5 1.8 1.1 2.5 1.7.5.4 1.7 1.3 2.7 2.4 2.2 2.4 3 3.9 4.1 6 1 2 1.5 4.6 1.6 5.3.3 2.2.3 2.3.3 3.7 0 1.1-.1 2.5-.3 3.5-.3 1.2-1 3.6-1.8 5.2s-1 1.9-1.7 3.1a21.94 21.94 0 0 1-13.5 9.3A23.11 23.11 0 0 1-11 19.1z"/></defs><clipPath id="SVGID_76_"><use xlink:href="#SVGID_75_" overflow="visible"/></clipPath><path d="M21.9 4c-.5 2.2-.5 2.3-1 3.5L20.3 9c-.3.5-.6 1.2-.9 1.7l-.9 1.4c-.3.5-.8 1.1-1.1 1.5l-1.1 1.2-1.4 1.4-1.2 1c-.5.4-1.3.9-1.8 1.3l-1.1.7c-1.5.8-1.6.8-2.5 1.2l-.8.3c-1.1.4-2.3.8-4.4 1.1l-.6.1c-.2 0-.4 0-.6.1h-4l-.5-.1c-.2 0-.4-.1-.6-.1l-.6-.1c-.2 0-.5-.1-.7-.1l-.7-.2c-.2-.1-.6-.1-.8-.2l-.9-.3-1.1-.4-1.1-.5c-.5-.3-1.2-.6-1.7-.9l-1.3-.8c-.6-.4-1.3-1-1.9-1.4l-1.2-1.1c-.4-.4-1-1-1.4-1.5l-1-1.3c-.3-.5-.8-1.1-1.1-1.6l-.8-1.5c-.2-.5-.6-1.2-.8-1.7l-.6-1.6c-.2-.5-.4-1.3-.5-1.8l-.6-1.6c-.1-1-.2-2.3-.2-3.2l.1-1.8c.1-.6.2-1.3.2-1.9l.4-1.7c.2-.5.4-1.3.6-1.8l.6-1.6c.3-.5.6-1.2.8-1.7l.9-1.4c.3-.5.8-1.1 1.1-1.6l1.1-1.2 1.4-1.4 1.2-1c.5-.4 1.3-.9 1.8-1.3l1.1-.7c1.5-.8 1.6-.8 2.5-1.2l.8-.3c1.2-.4 2.3-.8 4.6-1.1l.6-.1c.2 0 .4 0 .6-.1h4l.5.1c.2 0 .4.1.6.1h-.1c-15.1-2-25.3 14.6-13.7 29.6C-.8 20.4 20 19.2 22.1 2.3c.1-.6.1-1.4.1-2l-.1 1.8c0 .6-.1 1.3-.2 1.9" clip-path="url(#SVGID_76_)" fill="#8a2338"/><defs><path id="SVGID_77_" d="M-11 19.1c-.8-.5-1.6-.9-3.1-2.2a23.83 23.83 0 0 1-5.6-6.9c-.9-1.8-1-2-1.4-3.3-.6-1.6-.8-2.7-.9-3.5-.2-1-.2-2.3-.2-3.2 0-1.1.2-2.5.3-3.5.1-1.1.8-3.7 1.6-5.2 1-2.1 1-2.1 1.7-3.1.9-1.4 1.7-2.3 2.2-2.8a22.21 22.21 0 0 1 19.2-7c4.3.5 7.1 2.1 8.4 2.8-3.2-1.8-6.9-2.6-11-2 4.1-.5 7.9.2 11 2 .8.5 1.8 1.1 2.5 1.7.5.4 1.7 1.3 2.7 2.4 2.2 2.4 3 3.9 4.1 6 1 2 1.5 4.6 1.6 5.3.3 2.2.3 2.3.3 3.7 0 1.1-.1 2.5-.3 3.5-.3 1.2-1 3.6-1.8 5.2s-1 1.9-1.7 3.1a21.94 21.94 0 0 1-13.5 9.3A23.11 23.11 0 0 1-11 19.1z"/></defs><clipPath id="SVGID_78_"><use xlink:href="#SVGID_77_" overflow="visible"/></clipPath><path d="M21.9 4c-.2 1-.4 1.9-1 3.5L20.3 9c-.3.5-.6 1.2-.9 1.7l-.9 1.4c-.3.5-.8 1.1-1.1 1.5l-1.1 1.2-1.4 1.4-1.2 1c-.5.4-1.3.9-1.8 1.3l-1.1.7c-1.5.8-1.6.8-2.5 1.2l-.8.3c-1.1.4-2.3.8-4.4 1.1l-.6.1c-.2 0-.4 0-.6.1h-4l-.5-.1c-.2 0-.4-.1-.6-.1l-.6-.1c-.2 0-.5-.1-.7-.1l-.7-.2c-.2-.1-.6-.1-.8-.2l-.9-.3-1.1-.4-1.1-.5c-.5-.3-1.2-.6-1.7-.9l-1.3-.8c-.6-.4-1.3-1-1.9-1.4l-1.2-1.1c-.4-.4-1-1-1.4-1.5l-1-1.3c-.3-.5-.8-1.1-1.1-1.6l-.8-1.5c-.2-.5-.6-1.2-.8-1.7l-.6-1.6c-.2-.5-.4-1.3-.5-1.8l-.6-1.6c-.1-1-.2-2.3-.2-3.2l.1-1.8c.1-.6.2-1.3.2-1.9l.4-1.7c.2-.5.4-1.3.6-1.8l.6-1.6c.3-.5.6-1.2.8-1.7l.9-1.4c.3-.5.8-1.1 1.1-1.6l1.1-1.2 1.4-1.4 1.2-1c.5-.4 1.3-.9 1.8-1.3l1.1-.7c1.5-.8 1.6-.8 2.5-1.2l.8-.3c1.2-.4 2.3-.8 4.6-1.1l.6-.1c.2 0 .4 0 .6-.1h.9-.5c-16 1.2-20.5 21.7-7.3 33.1 13 11.3 28.2 5.4 30.6-7.4V4" clip-path="url(#SVGID_78_)" fill="#872136"/><defs><path id="SVGID_79_" d="M-11 19.1c-.8-.5-1.6-.9-3.1-2.2a23.83 23.83 0 0 1-5.6-6.9c-.9-1.8-1-2-1.4-3.3-.6-1.6-.8-2.7-.9-3.5-.2-1-.2-2.3-.2-3.2 0-1.1.2-2.5.3-3.5.1-1.1.8-3.7 1.6-5.2 1-2.1 1-2.1 1.7-3.1.9-1.4 1.7-2.3 2.2-2.8a22.21 22.21 0 0 1 19.2-7c4.3.5 7.1 2.1 8.4 2.8-3.2-1.8-6.9-2.6-11-2 4.1-.5 7.9.2 11 2 .8.5 1.8 1.1 2.5 1.7.5.4 1.7 1.3 2.7 2.4 2.2 2.4 3 3.9 4.1 6 1 2 1.5 4.6 1.6 5.3.3 2.2.3 2.3.3 3.7 0 1.1-.1 2.5-.3 3.5-.3 1.2-1 3.6-1.8 5.2s-1 1.9-1.7 3.1a21.94 21.94 0 0 1-13.5 9.3A23.11 23.11 0 0 1-11 19.1z"/></defs><clipPath id="SVGID_80_"><use xlink:href="#SVGID_79_" overflow="visible"/></clipPath><path d="M20.9 7.5c-.3.9-.7 1.8-1.5 3.2l-.9 1.4c-.3.5-.8 1.1-1.1 1.5l-1.1 1.2-1.4 1.4-1.2 1c-.5.4-1.3.9-1.8 1.3l-1.1.7c-1.5.8-1.6.8-2.5 1.2l-.8.3c-1.1.4-2.3.8-4.4 1.1l-.6.1c-.2 0-.4 0-.6.1h-4l-.5-.1c-.2 0-.4-.1-.6-.1l-.6-.1c-.2 0-.5-.1-.7-.1l-.7-.2c-.2-.1-.6-.1-.8-.2l-.9-.3-1.1-.4-1.1-.5c-.5-.3-1.2-.6-1.7-.9l-1.3-.8c-.6-.4-1.3-1-1.9-1.4l-1.2-1.1c-.4-.4-1-1-1.4-1.5l-1-1.3c-.3-.5-.8-1.1-1.1-1.6l-.8-1.5c-.2-.5-.6-1.2-.8-1.7l-.6-1.6c-.2-.5-.4-1.3-.5-1.8l-.6-1.6c-.1-1-.2-2.3-.2-3.2l.1-1.8c.1-.6.2-1.3.2-1.9l.4-1.7c.2-.5.4-1.3.6-1.8l.6-1.6c.3-.5.6-1.2.8-1.7l.9-1.4c.3-.5.8-1.1 1.1-1.6l1.1-1.2 1.4-1.4 1.2-1c.5-.4 1.3-.9 1.8-1.3l1.1-.7c1.5-.8 1.6-.8 2.5-1.2l.8-.3c1.2-.4 1.6-.5 3.1-.9l-.5.1c-15.2 3.8-18 26.3-.4 36.6 8 4.7 21.7 4.6 26.4-7.9l-.1.2" clip-path="url(#SVGID_80_)" fill="#832034"/><g><defs><path id="SVGID_81_" d="M-11 19.1c-.8-.5-1.6-.9-3.1-2.2a23.83 23.83 0 0 1-5.6-6.9c-.9-1.8-1-2-1.4-3.3-.6-1.6-.8-2.7-.9-3.5-.2-1-.2-2.3-.2-3.2 0-1.1.2-2.5.3-3.5.1-1.1.8-3.7 1.6-5.2 1-2.1 1-2.1 1.7-3.1.9-1.4 1.7-2.3 2.2-2.8a22.21 22.21 0 0 1 19.2-7c4.3.5 7.1 2.1 8.4 2.8-3.2-1.8-6.9-2.6-11-2 4.1-.5 7.9.2 11 2 .8.5 1.8 1.1 2.5 1.7.5.4 1.7 1.3 2.7 2.4 2.2 2.4 3 3.9 4.1 6 1 2 1.5 4.6 1.6 5.3.3 2.2.3 2.3.3 3.7 0 1.1-.1 2.5-.3 3.5-.3 1.2-1 3.6-1.8 5.2s-1 1.9-1.7 3.1a21.94 21.94 0 0 1-13.5 9.3A23.11 23.11 0 0 1-11 19.1z"/></defs><clipPath id="SVGID_82_"><use xlink:href="#SVGID_81_" overflow="visible"/></clipPath><path d="M17.4 13.7c-1.4 1.6-1.5 1.7-2.5 2.6l-1.2 1c-.5.4-1.3.9-1.8 1.3l-1.1.7c-1.5.7-1.6.7-2.5 1.1l-.8.3c-1.1.4-2.3.8-4.4 1.1l-.6.1c-.2 0-.4 0-.6.1h-4l-.5-.1c-.2 0-.4-.1-.6-.1l-.6-.1c-.2 0-.5-.1-.7-.1l-.7-.2c-.2-.1-.6-.1-.8-.2l-.9-.3-1.1-.4-1.1-.5c-.5-.3-1.2-.6-1.7-.9l-1.3-.8c-.6-.4-1.3-1-1.9-1.4l-1.2-1.1c-.4-.4-1-1-1.4-1.5l-1-1.3c-.3-.5-.8-1.1-1.1-1.6l-.8-1.5c-.2-.5-.6-1.2-.8-1.7l-.6-1.6c-.2-.5-.4-1.3-.5-1.8l-.6-1.6c-.1-1-.2-2.3-.2-3.2l.1-1.8c.1-.6.2-1.3.2-1.9l.4-1.7c.2-.5.4-1.3.6-1.8l.6-1.6c.3-.5.6-1.2.8-1.7l.9-1.4c.3-.5.8-1.1 1.1-1.6l1.1-1.2 1.4-1.4 1.2-1c.5-.4 1.3-.9 1.8-1.3l1.1-.7c.5-.3 1.2-.6 1.8-.9l-.7.3C-24.2-12-21.6 11.4-1.2 18.6c5.1 1.8 14.6 1.5 20-6.8l-1 1.4-.4.5" clip-path="url(#SVGID_82_)" fill="#801e32"/></g><g><defs><path id="SVGID_83_" d="M-11 19.1c-.8-.5-1.6-.9-3.1-2.2a23.83 23.83 0 0 1-5.6-6.9c-.9-1.8-1-2-1.4-3.3-.6-1.6-.8-2.7-.9-3.5-.2-1-.2-2.3-.2-3.2 0-1.1.2-2.5.3-3.5.1-1.1.8-3.7 1.6-5.2 1-2.1 1-2.1 1.7-3.1.9-1.4 1.7-2.3 2.2-2.8a22.21 22.21 0 0 1 19.2-7c4.3.5 7.1 2.1 8.4 2.8-3.2-1.8-6.9-2.6-11-2 4.1-.5 7.9.2 11 2 .8.5 1.8 1.1 2.5 1.7.5.4 1.7 1.3 2.7 2.4 2.2 2.4 3 3.9 4.1 6 1 2 1.5 4.6 1.6 5.3.3 2.2.3 2.3.3 3.7 0 1.1-.1 2.5-.3 3.5-.3 1.2-1 3.6-1.8 5.2s-1 1.9-1.7 3.1a21.94 21.94 0 0 1-13.5 9.3A23.11 23.11 0 0 1-11 19.1z"/></defs><clipPath id="SVGID_84_"><use xlink:href="#SVGID_83_" overflow="visible"/></clipPath><path d="M13.8-17c11.6 8.9 10.1 25.8-2.5 28.8-14 3.3-27.4-13.1-20.8-25.4C-5-21.9 5.4-23.4 13.8-17" clip-path="url(#SVGID_84_)" fill="#9b2a40"/></g><g><defs><path id="SVGID_85_" d="M-11 19.1c-.8-.5-1.6-.9-3.1-2.2a23.83 23.83 0 0 1-5.6-6.9c-.9-1.8-1-2-1.4-3.3-.6-1.6-.8-2.7-.9-3.5-.2-1-.2-2.3-.2-3.2 0-1.1.2-2.5.3-3.5.1-1.1.8-3.7 1.6-5.2 1-2.1 1-2.1 1.7-3.1.9-1.4 1.7-2.3 2.2-2.8a22.21 22.21 0 0 1 19.2-7c4.3.5 7.1 2.1 8.4 2.8-3.2-1.8-6.9-2.6-11-2 4.1-.5 7.9.2 11 2 .8.5 1.8 1.1 2.5 1.7.5.4 1.7 1.3 2.7 2.4 2.2 2.4 3 3.9 4.1 6 1 2 1.5 4.6 1.6 5.3.3 2.2.3 2.3.3 3.7 0 1.1-.1 2.5-.3 3.5-.3 1.2-1 3.6-1.8 5.2s-1 1.9-1.7 3.1a21.94 21.94 0 0 1-13.5 9.3A23.11 23.11 0 0 1-11 19.1z"/></defs><clipPath id="SVGID_86_"><use xlink:href="#SVGID_85_" overflow="visible"/></clipPath><path d="M13.9-16.8c11 8.5 9.5 24.8-2.5 27.7C-2 14.2-15-1.5-8.8-13.4c4.4-8.2 14.5-9.7 22.7-3.4" clip-path="url(#SVGID_86_)" fill="#9e2c42"/></g><g><defs><path id="SVGID_87_" d="M-11 19.1c-.8-.5-1.6-.9-3.1-2.2a23.83 23.83 0 0 1-5.6-6.9c-.9-1.8-1-2-1.4-3.3-.6-1.6-.8-2.7-.9-3.5-.2-1-.2-2.3-.2-3.2 0-1.1.2-2.5.3-3.5.1-1.1.8-3.7 1.6-5.2 1-2.1 1-2.1 1.7-3.1.9-1.4 1.7-2.3 2.2-2.8a22.21 22.21 0 0 1 19.2-7c4.3.5 7.1 2.1 8.4 2.8-3.2-1.8-6.9-2.6-11-2 4.1-.5 7.9.2 11 2 .8.5 1.8 1.1 2.5 1.7.5.4 1.7 1.3 2.7 2.4 2.2 2.4 3 3.9 4.1 6 1 2 1.5 4.6 1.6 5.3.3 2.2.3 2.3.3 3.7 0 1.1-.1 2.5-.3 3.5-.3 1.2-1 3.6-1.8 5.2s-1 1.9-1.7 3.1a21.94 21.94 0 0 1-13.5 9.3A23.11 23.11 0 0 1-11 19.1z"/></defs><clipPath id="SVGID_88_"><use xlink:href="#SVGID_87_" overflow="visible"/></clipPath><path d="M17.4-13c8 10.5 2.2 24.1-10.1 23.5C-6.4 9.9-14.8-7.9-5.5-16.7c7.6-7.2 18.2-2.5 22.9 3.7" clip-path="url(#SVGID_88_)" fill="#a22d44"/></g><g><defs><path id="SVGID_89_" d="M-11 19.1c-.8-.5-1.6-.9-3.1-2.2a23.83 23.83 0 0 1-5.6-6.9c-.9-1.8-1-2-1.4-3.3-.6-1.6-.8-2.7-.9-3.5-.2-1-.2-2.3-.2-3.2 0-1.1.2-2.5.3-3.5.1-1.1.8-3.7 1.6-5.2 1-2.1 1-2.1 1.7-3.1.9-1.4 1.7-2.3 2.2-2.8a22.21 22.21 0 0 1 19.2-7c4.3.5 7.1 2.1 8.4 2.8-3.2-1.8-6.9-2.6-11-2 4.1-.5 7.9.2 11 2 .8.5 1.8 1.1 2.5 1.7.5.4 1.7 1.3 2.7 2.4 2.2 2.4 3 3.9 4.1 6 1 2 1.5 4.6 1.6 5.3.3 2.2.3 2.3.3 3.7 0 1.1-.1 2.5-.3 3.5-.3 1.2-1 3.6-1.8 5.2s-1 1.9-1.7 3.1a21.94 21.94 0 0 1-13.5 9.3A23.11 23.11 0 0 1-11 19.1z"/></defs><clipPath id="SVGID_90_"><use xlink:href="#SVGID_89_" overflow="visible"/></clipPath><path d="M17.4-12.8c7.5 10.1 1.8 23.1-9.9 22.4C-5 8.9-14.3-6.8-4.7-16.5c6.2-6.3 16.9-3.1 22.1 3.7" clip-path="url(#SVGID_90_)" fill="#a52f46"/></g><g><defs><path id="SVGID_91_" d="M-11 19.1c-.8-.5-1.6-.9-3.1-2.2a23.83 23.83 0 0 1-5.6-6.9c-.9-1.8-1-2-1.4-3.3-.6-1.6-.8-2.7-.9-3.5-.2-1-.2-2.3-.2-3.2 0-1.1.2-2.5.3-3.5.1-1.1.8-3.7 1.6-5.2 1-2.1 1-2.1 1.7-3.1.9-1.4 1.7-2.3 2.2-2.8a22.21 22.21 0 0 1 19.2-7c4.3.5 7.1 2.1 8.4 2.8-3.2-1.8-6.9-2.6-11-2 4.1-.5 7.9.2 11 2 .8.5 1.8 1.1 2.5 1.7.5.4 1.7 1.3 2.7 2.4 2.2 2.4 3 3.9 4.1 6 1 2 1.5 4.6 1.6 5.3.3 2.2.3 2.3.3 3.7 0 1.1-.1 2.5-.3 3.5-.3 1.2-1 3.6-1.8 5.2s-1 1.9-1.7 3.1a21.94 21.94 0 0 1-13.5 9.3A23.11 23.11 0 0 1-11 19.1z"/></defs><clipPath id="SVGID_92_"><use xlink:href="#SVGID_91_" overflow="visible"/></clipPath><path d="M17.3-12.5c7.1 9.7 1.4 22.1-9.8 21.3C-4.3 8-13.2-7.4-3.8-16.4c6.5-6.3 16.9-1.9 21.1 3.9" clip-path="url(#SVGID_92_)" fill="#a93047"/></g><g><defs><path id="SVGID_93_" d="M-11 19.1c-.8-.5-1.6-.9-3.1-2.2a23.83 23.83 0 0 1-5.6-6.9c-.9-1.8-1-2-1.4-3.3-.6-1.6-.8-2.7-.9-3.5-.2-1-.2-2.3-.2-3.2 0-1.1.2-2.5.3-3.5.1-1.1.8-3.7 1.6-5.2 1-2.1 1-2.1 1.7-3.1.9-1.4 1.7-2.3 2.2-2.8a22.21 22.21 0 0 1 19.2-7c4.3.5 7.1 2.1 8.4 2.8-3.2-1.8-6.9-2.6-11-2 4.1-.5 7.9.2 11 2 .8.5 1.8 1.1 2.5 1.7.5.4 1.7 1.3 2.7 2.4 2.2 2.4 3 3.9 4.1 6 1 2 1.5 4.6 1.6 5.3.3 2.2.3 2.3.3 3.7 0 1.1-.1 2.5-.3 3.5-.3 1.2-1 3.6-1.8 5.2s-1 1.9-1.7 3.1a21.94 21.94 0 0 1-13.5 9.3A23.11 23.11 0 0 1-11 19.1z"/></defs><clipPath id="SVGID_94_"><use xlink:href="#SVGID_93_" overflow="visible"/></clipPath><path d="M14.7-14.9C24.9-5.1 18.6 8.9 7.5 8-2.8 7.2-12.4-6.8-2.9-16.3c3.7-3.8 12-3.9 17.6 1.4" clip-path="url(#SVGID_94_)" fill="#ac3149"/></g><g><defs><path id="SVGID_95_" d="M-11 19.1c-.8-.5-1.6-.9-3.1-2.2a23.83 23.83 0 0 1-5.6-6.9c-.9-1.8-1-2-1.4-3.3-.6-1.6-.8-2.7-.9-3.5-.2-1-.2-2.3-.2-3.2 0-1.1.2-2.5.3-3.5.1-1.1.8-3.7 1.6-5.2 1-2.1 1-2.1 1.7-3.1.9-1.4 1.7-2.3 2.2-2.8a22.21 22.21 0 0 1 19.2-7c4.3.5 7.1 2.1 8.4 2.8-3.2-1.8-6.9-2.6-11-2 4.1-.5 7.9.2 11 2 .8.5 1.8 1.1 2.5 1.7.5.4 1.7 1.3 2.7 2.4 2.2 2.4 3 3.9 4.1 6 1 2 1.5 4.6 1.6 5.3.3 2.2.3 2.3.3 3.7 0 1.1-.1 2.5-.3 3.5-.3 1.2-1 3.6-1.8 5.2s-1 1.9-1.7 3.1a21.94 21.94 0 0 1-13.5 9.3A23.11 23.11 0 0 1-11 19.1z"/></defs><clipPath id="SVGID_96_"><use xlink:href="#SVGID_95_" overflow="visible"/></clipPath><path d="M19.1-7.5C22.2 4.2 10.7 9.9 3 5.8-8.5-.2-8.1-14.1 1-17.8c6.6-2.8 16 2.7 18.1 10.3" clip-path="url(#SVGID_96_)" fill="#b0324a"/></g><g><defs><path id="SVGID_97_" d="M-11 19.1c-.8-.5-1.6-.9-3.1-2.2a23.83 23.83 0 0 1-5.6-6.9c-.9-1.8-1-2-1.4-3.3-.6-1.6-.8-2.7-.9-3.5-.2-1-.2-2.3-.2-3.2 0-1.1.2-2.5.3-3.5.1-1.1.8-3.7 1.6-5.2 1-2.1 1-2.1 1.7-3.1.9-1.4 1.7-2.3 2.2-2.8a22.21 22.21 0 0 1 19.2-7c4.3.5 7.1 2.1 8.4 2.8-3.2-1.8-6.9-2.6-11-2 4.1-.5 7.9.2 11 2 .8.5 1.8 1.1 2.5 1.7.5.4 1.7 1.3 2.7 2.4 2.2 2.4 3 3.9 4.1 6 1 2 1.5 4.6 1.6 5.3.3 2.2.3 2.3.3 3.7 0 1.1-.1 2.5-.3 3.5-.3 1.2-1 3.6-1.8 5.2s-1 1.9-1.7 3.1a21.94 21.94 0 0 1-13.5 9.3A23.11 23.11 0 0 1-11 19.1z"/></defs><clipPath id="SVGID_98_"><use xlink:href="#SVGID_97_" overflow="visible"/></clipPath><path d="M18.7-7.2C21.4 2.4 12 9.5 3 4.7-3.5 1.2-4.9-4.4-4.9-8.5c0-1.5 1.8-7.6 7.6-9.2 6.4-1.7 14 3.3 16 10.5" clip-path="url(#SVGID_98_)" fill="#b3344c"/></g><g><defs><path id="SVGID_99_" d="M-11 19.1c-.8-.5-1.6-.9-3.1-2.2a23.83 23.83 0 0 1-5.6-6.9c-.9-1.8-1-2-1.4-3.3-.6-1.6-.8-2.7-.9-3.5-.2-1-.2-2.3-.2-3.2 0-1.1.2-2.5.3-3.5.1-1.1.8-3.7 1.6-5.2 1-2.1 1-2.1 1.7-3.1.9-1.4 1.7-2.3 2.2-2.8a22.21 22.21 0 0 1 19.2-7c4.3.5 7.1 2.1 8.4 2.8-3.2-1.8-6.9-2.6-11-2 4.1-.5 7.9.2 11 2 .8.5 1.8 1.1 2.5 1.7.5.4 1.7 1.3 2.7 2.4 2.2 2.4 3 3.9 4.1 6 1 2 1.5 4.6 1.6 5.3.3 2.2.3 2.3.3 3.7 0 1.1-.1 2.5-.3 3.5-.3 1.2-1 3.6-1.8 5.2s-1 1.9-1.7 3.1a21.94 21.94 0 0 1-13.5 9.3A23.11 23.11 0 0 1-11 19.1z"/></defs><clipPath id="SVGID_100_"><use xlink:href="#SVGID_99_" overflow="visible"/></clipPath><path d="M17.3-9.7C21.8.6 12.9 8.9 3 3.5c-9-4.9-9-18.1 0-20.6 6.1-1.7 12.4 3.2 14.3 7.4" clip-path="url(#SVGID_100_)" fill="#b6354e"/></g><g><defs><path id="SVGID_101_" d="M-11 19.1c-.8-.5-1.6-.9-3.1-2.2a23.83 23.83 0 0 1-5.6-6.9c-.9-1.8-1-2-1.4-3.3-.6-1.6-.8-2.7-.9-3.5-.2-1-.2-2.3-.2-3.2 0-1.1.2-2.5.3-3.5.1-1.1.8-3.7 1.6-5.2 1-2.1 1-2.1 1.7-3.1.9-1.4 1.7-2.3 2.2-2.8a22.21 22.21 0 0 1 19.2-7c4.3.5 7.1 2.1 8.4 2.8-3.2-1.8-6.9-2.6-11-2 4.1-.5 7.9.2 11 2 .8.5 1.8 1.1 2.5 1.7.5.4 1.7 1.3 2.7 2.4 2.2 2.4 3 3.9 4.1 6 1 2 1.5 4.6 1.6 5.3.3 2.2.3 2.3.3 3.7 0 1.1-.1 2.5-.3 3.5-.3 1.2-1 3.6-1.8 5.2s-1 1.9-1.7 3.1a21.94 21.94 0 0 1-13.5 9.3A23.11 23.11 0 0 1-11 19.1z"/></defs><clipPath id="SVGID_102_"><use xlink:href="#SVGID_101_" overflow="visible"/></clipPath><path d="M17.8-6.7C19.2 1 11.6 7.1 3 2.3 2.7 2.2-3-1-2.9-8.4l1.3-4.2c.1-.1 2.5-3.2 5-3.9 5.5-1.5 13 2.5 14.4 9.8" clip-path="url(#SVGID_102_)" fill="#ba364f"/></g><g><defs><path id="SVGID_103_" d="M-11 19.1c-.8-.5-1.6-.9-3.1-2.2a23.83 23.83 0 0 1-5.6-6.9c-.9-1.8-1-2-1.4-3.3-.6-1.6-.8-2.7-.9-3.5-.2-1-.2-2.3-.2-3.2 0-1.1.2-2.5.3-3.5.1-1.1.8-3.7 1.6-5.2 1-2.1 1-2.1 1.7-3.1.9-1.4 1.7-2.3 2.2-2.8a22.21 22.21 0 0 1 19.2-7c4.3.5 7.1 2.1 8.4 2.8-3.2-1.8-6.9-2.6-11-2 4.1-.5 7.9.2 11 2 .8.5 1.8 1.1 2.5 1.7.5.4 1.7 1.3 2.7 2.4 2.2 2.4 3 3.9 4.1 6 1 2 1.5 4.6 1.6 5.3.3 2.2.3 2.3.3 3.7 0 1.1-.1 2.5-.3 3.5-.3 1.2-1 3.6-1.8 5.2s-1 1.9-1.7 3.1a21.94 21.94 0 0 1-13.5 9.3A23.11 23.11 0 0 1-11 19.1z"/></defs><clipPath id="SVGID_104_"><use xlink:href="#SVGID_103_" overflow="visible"/></clipPath><path d="M17.2-6.4c.3 2.1-1 5.6-1 5.6-.7 1.2-1 1.6-4.4 3.4-1.3.7-6.6.2-8.9-1.4C2.6 1-.8-3.3-1-3.7c-.1-.3-.9-4.4-.8-4.7 1.1-6.5 5.6-7.5 7.6-7.7 4.6-.2 10.5 3.7 11.4 9.7" clip-path="url(#SVGID_104_)" fill="#bd3751"/></g><g><defs><path id="SVGID_105_" d="M-11 19.1c-.8-.5-1.6-.9-3.1-2.2a23.83 23.83 0 0 1-5.6-6.9c-.9-1.8-1-2-1.4-3.3-.6-1.6-.8-2.7-.9-3.5-.2-1-.2-2.3-.2-3.2 0-1.1.2-2.5.3-3.5.1-1.1.8-3.7 1.6-5.2 1-2.1 1-2.1 1.7-3.1.9-1.4 1.7-2.3 2.2-2.8a22.21 22.21 0 0 1 19.2-7c4.3.5 7.1 2.1 8.4 2.8-3.2-1.8-6.9-2.6-11-2 4.1-.5 7.9.2 11 2 .8.5 1.8 1.1 2.5 1.7.5.4 1.7 1.3 2.7 2.4 2.2 2.4 3 3.9 4.1 6 1 2 1.5 4.6 1.6 5.3.3 2.2.3 2.3.3 3.7 0 1.1-.1 2.5-.3 3.5-.3 1.2-1 3.6-1.8 5.2s-1 1.9-1.7 3.1a21.94 21.94 0 0 1-13.5 9.3A23.11 23.11 0 0 1-11 19.1z"/></defs><clipPath id="SVGID_106_"><use xlink:href="#SVGID_105_" overflow="visible"/></clipPath><path d="M16.3-7.1c.8 2.7-1.3 6.5-1.5 6.7C13.4.6 9.7 3.3 5.3 1-.1-1.8-.5-6.4-.6-8.4L1-12.6c.8-1.1 3.1-2.1 3.1-2.1 2.8-1.1 9.8-.7 12.2 7.6" clip-path="url(#SVGID_106_)" fill="#c13952"/></g><g><defs><path id="SVGID_107_" d="M-11 19.1c-.8-.5-1.6-.9-3.1-2.2a23.83 23.83 0 0 1-5.6-6.9c-.9-1.8-1-2-1.4-3.3-.6-1.6-.8-2.7-.9-3.5-.2-1-.2-2.3-.2-3.2 0-1.1.2-2.5.3-3.5.1-1.1.8-3.7 1.6-5.2 1-2.1 1-2.1 1.7-3.1.9-1.4 1.7-2.3 2.2-2.8a22.21 22.21 0 0 1 19.2-7c4.3.5 7.1 2.1 8.4 2.8-3.2-1.8-6.9-2.6-11-2 4.1-.5 7.9.2 11 2 .8.5 1.8 1.1 2.5 1.7.5.4 1.7 1.3 2.7 2.4 2.2 2.4 3 3.9 4.1 6 1 2 1.5 4.6 1.6 5.3.3 2.2.3 2.3.3 3.7 0 1.1-.1 2.5-.3 3.5-.3 1.2-1 3.6-1.8 5.2s-1 1.9-1.7 3.1a21.94 21.94 0 0 1-13.5 9.3A23.11 23.11 0 0 1-11 19.1z"/></defs><clipPath id="SVGID_108_"><use xlink:href="#SVGID_107_" overflow="visible"/></clipPath><path d="M15.6-5.7c0 3.3-3.3 6-4 6.2-.6.1-3.9.3-4.3.2-.1-.2-4.3-3-4.5-3.2-.3-.3-.8-.8-1-1.2C1.7-3.9.7-8.3.7-8.3c1.3-3.7 1.7-4 2-4.3 1.5-1.4 4.1-1.6 4.2-1.6 0 0 2.6.2 3.1.5.3.1 3.6 2.9 4.1 3.4.3.2 1.5 4 1.5 4.6" clip-path="url(#SVGID_108_)" fill="#c43a54"/></g><g><defs><path id="SVGID_109_" d="M-11 19.1c-.8-.5-1.6-.9-3.1-2.2a23.83 23.83 0 0 1-5.6-6.9c-.9-1.8-1-2-1.4-3.3-.6-1.6-.8-2.7-.9-3.5-.2-1-.2-2.3-.2-3.2 0-1.1.2-2.5.3-3.5.1-1.1.8-3.7 1.6-5.2 1-2.1 1-2.1 1.7-3.1.9-1.4 1.7-2.3 2.2-2.8a22.21 22.21 0 0 1 19.2-7c4.3.5 7.1 2.1 8.4 2.8-3.2-1.8-6.9-2.6-11-2 4.1-.5 7.9.2 11 2 .8.5 1.8 1.1 2.5 1.7.5.4 1.7 1.3 2.7 2.4 2.2 2.4 3 3.9 4.1 6 1 2 1.5 4.6 1.6 5.3.3 2.2.3 2.3.3 3.7 0 1.1-.1 2.5-.3 3.5-.3 1.2-1 3.6-1.8 5.2s-1 1.9-1.7 3.1a21.94 21.94 0 0 1-13.5 9.3A23.11 23.11 0 0 1-11 19.1z"/></defs><clipPath id="SVGID_110_"><use xlink:href="#SVGID_109_" overflow="visible"/></clipPath><path d="M14.6-5.4c0 1.6-3.1 4-3.1 4-.5.1-4 .1-4.2.1-.3 0-3.8-2.4-3.8-2.5-.3-.3-1.5-4.3-1.4-4.6 0-.2.1-.4.2-.6l2.5-3.6 2.6-.7c.7.1 3.5 1.4 3.6 1.4.7.5 1.8 1.1 2.2 1.9.3.7 1.4 4.1 1.4 4.6" clip-path="url(#SVGID_110_)" fill="#c73b55"/></g><g><defs><path id="SVGID_111_" d="M-11 19.1c-.8-.5-1.6-.9-3.1-2.2a23.83 23.83 0 0 1-5.6-6.9c-.9-1.8-1-2-1.4-3.3-.6-1.6-.8-2.7-.9-3.5-.2-1-.2-2.3-.2-3.2 0-1.1.2-2.5.3-3.5.1-1.1.8-3.7 1.6-5.2 1-2.1 1-2.1 1.7-3.1.9-1.4 1.7-2.3 2.2-2.8a22.21 22.21 0 0 1 19.2-7c4.3.5 7.1 2.1 8.4 2.8-3.2-1.8-6.9-2.6-11-2 4.1-.5 7.9.2 11 2 .8.5 1.8 1.1 2.5 1.7.5.4 1.7 1.3 2.7 2.4 2.2 2.4 3 3.9 4.1 6 1 2 1.5 4.6 1.6 5.3.3 2.2.3 2.3.3 3.7 0 1.1-.1 2.5-.3 3.5-.3 1.2-1 3.6-1.8 5.2s-1 1.9-1.7 3.1a21.94 21.94 0 0 1-13.5 9.3A23.11 23.11 0 0 1-11 19.1z"/></defs><clipPath id="SVGID_112_"><use xlink:href="#SVGID_111_" overflow="visible"/></clipPath><path d="M12.7-4.9c-.2.7-1 1.6-1.7 1.7-.3 0-3.8.1-4.1 0-.4 0-.9-.4-1.1-.7L4.2-8.5c.1-.7.7-1.5 1.3-1.9l2.9-.9L12-9.6c.2.2.8 4.3.7 4.7" clip-path="url(#SVGID_112_)" fill="#cb3c57"/></g><g><defs><path id="SVGID_113_" d="M-11 19.1c-.8-.5-1.6-.9-3.1-2.2a23.83 23.83 0 0 1-5.6-6.9c-.9-1.8-1-2-1.4-3.3-.6-1.6-.8-2.7-.9-3.5-.2-1-.2-2.3-.2-3.2 0-1.1.2-2.5.3-3.5.1-1.1.8-3.7 1.6-5.2 1-2.1 1-2.1 1.7-3.1.9-1.4 1.7-2.3 2.2-2.8a22.21 22.21 0 0 1 19.2-7c4.3.5 7.1 2.1 8.4 2.8-3.2-1.8-6.9-2.6-11-2 4.1-.5 7.9.2 11 2 .8.5 1.8 1.1 2.5 1.7.5.4 1.7 1.3 2.7 2.4 2.2 2.4 3 3.9 4.1 6 1 2 1.5 4.6 1.6 5.3.3 2.2.3 2.3.3 3.7 0 1.1-.1 2.5-.3 3.5-.3 1.2-1 3.6-1.8 5.2s-1 1.9-1.7 3.1a21.94 21.94 0 0 1-13.5 9.3A23.11 23.11 0 0 1-11 19.1z"/></defs><clipPath id="SVGID_114_"><use xlink:href="#SVGID_113_" overflow="visible"/></clipPath><path d="M9.5-8.7c-.2-.1-.3-.2-.5-.3l.3-.1h.1l.1.4" clip-path="url(#SVGID_114_)" fill="#ce3d58"/></g></g><g><defs><path id="SVGID_115_" d="M0-21.1h.1H0h.1L0-21v-.1h-.1z"/></defs><clipPath id="SVGID_116_"><use xlink:href="#SVGID_115_" overflow="visible"/></clipPath><path clip-path="url(#SVGID_116_)" fill="#94273d" d="M0-21.1h.1H0h.1-.2.1"/><defs><path id="SVGID_117_" d="M0-21.1h.1H0h.1L0-21v-.1h-.1z"/></defs><clipPath id="SVGID_118_"><use xlink:href="#SVGID_117_" overflow="visible"/></clipPath><path d="M.1-21.1L0-21l.1-.1h-.2.2" clip-path="url(#SVGID_118_)" fill="#94273d"/><defs><path id="SVGID_119_" d="M0-21.1h.1H0h.1L0-21v-.1h-.1z"/></defs><clipPath id="SVGID_120_"><use xlink:href="#SVGID_119_" overflow="visible"/></clipPath><path clip-path="url(#SVGID_120_)" fill="#91263b" d="M.1-21.1v.1H0v-.1h-.1.2-.2.2"/><defs><path id="SVGID_121_" d="M0-21.1h.1H0h.1L0-21v-.1h-.1z"/></defs><clipPath id="SVGID_122_"><use xlink:href="#SVGID_121_" overflow="visible"/></clipPath><path clip-path="url(#SVGID_122_)" fill="#8d2439" d="M.1-21.1v.1H0v-.1h-.1.2-.2.2"/><defs><path id="SVGID_123_" d="M0-21.1h.1H0h.1L0-21v-.1h-.1z"/></defs><clipPath id="SVGID_124_"><use xlink:href="#SVGID_123_" overflow="visible"/></clipPath><path clip-path="url(#SVGID_124_)" fill="#8a2338" d="M.1-21.1v.1H0v-.1h-.1.2-.2.2"/><defs><path id="SVGID_125_" d="M0-21.1h.1H0h.1L0-21v-.1h-.1z"/></defs><clipPath id="SVGID_126_"><use xlink:href="#SVGID_125_" overflow="visible"/></clipPath><path clip-path="url(#SVGID_126_)" fill="#872136" d="M.1-21.1v.1H0v-.1h-.1.2-.2.2"/><g><defs><path id="SVGID_127_" d="M0-21.1h.1H0h.1L0-21v-.1h-.1z"/></defs><clipPath id="SVGID_128_"><use xlink:href="#SVGID_127_" overflow="visible"/></clipPath><path clip-path="url(#SVGID_128_)" fill="#832034" d="M.1-21.1"/></g><g><defs><path id="SVGID_129_" d="M0-21.1h.1H0h.1L0-21v-.1h-.1z"/></defs><clipPath id="SVGID_130_"><use xlink:href="#SVGID_129_" overflow="visible"/></clipPath><path clip-path="url(#SVGID_130_)" fill="#832034" d="M.1-21.1"/></g><g><defs><path id="SVGID_131_" d="M0-21.1h.1H0h.1L0-21v-.1h-.1z"/></defs><clipPath id="SVGID_132_"><use xlink:href="#SVGID_131_" overflow="visible"/></clipPath><path clip-path="url(#SVGID_132_)" fill="#94273d" d="M.1-21.1H0h.1H0h.1"/></g><g><defs><path id="SVGID_133_" d="M0-21.1h.1H0h.1L0-21v-.1h-.1z"/></defs><clipPath id="SVGID_134_"><use xlink:href="#SVGID_133_" overflow="visible"/></clipPath><path clip-path="url(#SVGID_134_)" fill="#91263b" d="M.1-21.1H0h.1H0h.1"/></g><g><defs><path id="SVGID_135_" d="M0-21.1h.1H0h.1L0-21v-.1h-.1z"/></defs><clipPath id="SVGID_136_"><use xlink:href="#SVGID_135_" overflow="visible"/></clipPath><path clip-path="url(#SVGID_136_)" fill="#8d2439" d="M.1-21.1H0h.1H0h.1"/></g><g><defs><path id="SVGID_137_" d="M0-21.1h.1H0h.1L0-21v-.1h-.1z"/></defs><clipPath id="SVGID_138_"><use xlink:href="#SVGID_137_" overflow="visible"/></clipPath><path clip-path="url(#SVGID_138_)" fill="#8a2338" d="M.1-21.1H0h.1H0h.1"/></g><g><defs><path id="SVGID_139_" d="M0-21.1h.1H0h.1L0-21v-.1h-.1z"/></defs><clipPath id="SVGID_140_"><use xlink:href="#SVGID_139_" overflow="visible"/></clipPath><path clip-path="url(#SVGID_140_)" fill="#97293f" d="M-.1-21.1h.2-.2"/></g><g><defs><path id="SVGID_141_" d="M0-21.1h.1H0h.1L0-21v-.1h-.1z"/></defs><clipPath id="SVGID_142_"><use xlink:href="#SVGID_141_" overflow="visible"/></clipPath><path clip-path="url(#SVGID_142_)" fill="#872136" d="M0-21.1h.1H0h.1H0"/></g><g><defs><path id="SVGID_143_" d="M0-21.1h.1H0h.1L0-21v-.1h-.1z"/></defs><clipPath id="SVGID_144_"><use xlink:href="#SVGID_143_" overflow="visible"/></clipPath><path clip-path="url(#SVGID_144_)" fill="#832034" d="M0-21.1"/></g><g><defs><path id="SVGID_145_" d="M0-21.1h.1H0h.1L0-21v-.1h-.1z"/></defs><clipPath id="SVGID_146_"><use xlink:href="#SVGID_145_" overflow="visible"/></clipPath><path clip-path="url(#SVGID_146_)" fill="#801e32" d="M0-21.1"/></g></g><g><defs><path id="SVGID_147_" d="M.1-21.1H0h.1L0-21l-.1-.1H0z"/></defs><clipPath id="SVGID_148_"><use xlink:href="#SVGID_147_" overflow="visible"/></clipPath><path clip-path="url(#SVGID_148_)" fill="#94273d" d="M.1-21.1h-.2.2H0h.1"/><defs><path id="SVGID_149_" d="M.1-21.1H0h.1L0-21l-.1-.1H0z"/></defs><clipPath id="SVGID_150_"><use xlink:href="#SVGID_149_" overflow="visible"/></clipPath><path clip-path="url(#SVGID_150_)" fill="#94273d" d="M.1-21.1v.1l-.2-.1h.2-.2.1v.1h.1v-.1"/><g><defs><path id="SVGID_151_" d="M.1-21.1H0h.1L0-21l-.1-.1H0z"/></defs><clipPath id="SVGID_152_"><use xlink:href="#SVGID_151_" overflow="visible"/></clipPath><path clip-path="url(#SVGID_152_)" fill="#91263b" d="M.1-21.1v.1l-.2-.1h.2-.2.1v.1h.1v-.1"/></g><g><defs><path id="SVGID_153_" d="M.1-21.1H0h.1L0-21l-.1-.1H0z"/></defs><clipPath id="SVGID_154_"><use xlink:href="#SVGID_153_" overflow="visible"/></clipPath><path clip-path="url(#SVGID_154_)" fill="#8d2439" d="M-.1-21.1h.2-.2"/></g><g><defs><path id="SVGID_155_" d="M.1-21.1H0h.1L0-21l-.1-.1H0z"/></defs><clipPath id="SVGID_156_"><use xlink:href="#SVGID_155_" overflow="visible"/></clipPath><path clip-path="url(#SVGID_156_)" fill="#97293f" d="M.1-21.1L0-21l.1-.1"/></g></g></g><path id="path-to-follow" class="st141" d="M274 200l-80-62 80 62 84-55-84 55 84 66-84-66-82 58 82-58"/><animateMotion dur="10s" xlink:href="#ball-red" repeatCount="1" fill="freeze"><mpath xlink:href="#path-to-follow"/></animateMotion></svg>