<?xml version="1.0" encoding="utf-8"?>
<!-- Generator: Adobe Illustrator 19.1.0, SVG Export Plug-In . SVG Version: 6.00 Build 0)  -->
<svg version="1.1" id="Capa_1" xmlns="http://www.w3.org/2000/svg" xmlns:xlink="http://www.w3.org/1999/xlink" x="0px" y="0px"
	 viewBox="206 -206 512 512" style="enable-background:new 206 -206 512 512;" xml:space="preserve">
<style type="text/css">
	.st0{fill:#FFFFFF;}
	.st1{fill:#6158E0;}
</style>
<circle class="st0" cx="462" cy="50" r="255.2"/>
<g>
	<g>
		<path class="st1" d="M372.7,18.9c-34.9,0-64.6,25-70.6,59.4l-21,121.4c15-3.4,39.3-13.7,49.9-45.1l10.5-40.5l20.5,5.3l-10.7,41.2
			l-0.1,0.4c-2.7,8.2-6.2,15.2-10.1,21.3c2.8,0,5.9-0.2,9-0.7c19.2-3.2,34.1-16.4,44.5-39.3l0.1,0.1L409.4,19L372.7,18.9L372.7,18.9
			z"/>
	</g>
</g>
<g>
	<g>
		<polygon class="st1" points="494.7,39.3 471.6,39.3 471.6,75.9 450.4,75.9 450.4,39.3 428.3,39.3 411.1,183.5 511.9,183.5 		"/>
	</g>
</g>
<g>
	<g>
		<path class="st1" d="M620.3,78.3c-6-34.4-35.6-59.4-70.6-59.4h-36.2l14.9,124.6l0,0c10.5,22.5,25.5,35.3,44.7,38.2
			c2.9,0.4,5.6,0.6,8.2,0.6c-3.9-6.1-7.4-13.2-10.1-21.3l-0.2-0.7l-10.6-40.9l20.5-5.3l10.5,40.5c10.6,31.4,34.8,41.7,49.9,45.1
			L620.3,78.3z"/>
	</g>
</g>
<g>
	<g>
		<path class="st1" d="M461-63.7c-25.7,0-46.6,20.9-46.6,46.6c0,5.2,0.9,10.2,2.4,14.9c1.2,3.4,2.7,6.7,4.6,9.7
			c2.5,4,5.6,7.7,9.2,10.8h60.8c3.8-3.3,7-7.1,9.6-11.4c1.7-2.8,3.1-5.8,4.2-9c1.6-4.7,2.4-9.7,2.4-14.9
			C507.6-42.8,486.7-63.7,461-63.7z"/>
	</g>
</g>
<g>
	<g>
		<path class="st1" d="M461-128.5c-31.1,0-62.4,8.8-62.4,28.5s31.3,28.5,62.4,28.5s62.4-8.8,62.4-28.5S492-128.5,461-128.5z
			 M461-92.6c-20.3,0-34.1-4.2-39.4-7.4c5.4-3.2,19.1-7.4,39.4-7.4s34.1,4.2,39.4,7.4C495.1-96.8,481.3-92.6,461-92.6z"/>
	</g>
</g>
</svg>
