<?xml version="1.0" encoding="utf-8"?>
<!-- Generator: Adobe Illustrator 19.1.0, SVG Export Plug-In . SVG Version: 6.00 Build 0)  -->
<svg version="1.1" id="Capa_1" xmlns="http://www.w3.org/2000/svg" xmlns:xlink="http://www.w3.org/1999/xlink" x="0px" y="0px"
	 viewBox="-42 43.8 14.2 14.2" style="enable-background:new -42 43.8 14.2 14.2;" xml:space="preserve">
<style type="text/css">
	.st0{fill:#FDFDFD;}
	.st1{fill:none;}
</style>
<g>
	<path class="st0" d="M-34.9,43.8c-3.9,0-7.1,3.2-7.1,7.1c0,3.9,3.2,7.1,7.1,7.1c3.9,0,7.1-3.2,7.1-7.1C-27.8,47-31,43.8-34.9,43.8z
		 M-31.9,54.2c-1.7,1.7-4.4,1.7-6.1,0c-1.7-1.7-1.7-4.4,0-6.1c0,0,0,0,0,0l-0.7-0.7l2.3,0l0,2.3l-0.7-0.7h0c0,0,0,0,0,0
		c-1.2,1.2-1.2,3.2,0,4.4c1.2,1.2,3.2,1.2,4.4,0c1.2-1.2,1.2-3.2,0-4.4c-0.2-0.2-0.5-0.4-0.8-0.6v-1.3c0.6,0.2,1.2,0.5,1.7,1
		C-30.2,49.8-30.2,52.5-31.9,54.2z"/>
	<path class="st1" d="M-33.5,47.1v1.3c0.3,0.1,0.6,0.3,0.8,0.6c1.2,1.2,1.2,3.2,0,4.4c-1.2,1.2-3.2,1.2-4.4,0
		c-1.2-1.2-1.2-3.2,0-4.4c0,0,0,0,0,0h0l0.7,0.7l0-2.3l-2.3,0l0.7,0.7c0,0,0,0,0,0c-1.7,1.7-1.7,4.4,0,6.1c1.7,1.7,4.4,1.7,6.1,0
		c1.7-1.7,1.7-4.4,0-6.1C-32.4,47.6-32.9,47.3-33.5,47.1z"/>
</g>
</svg>
