<?xml version="1.0" encoding="utf-8"?>
<!-- Generator: Adobe Illustrator 19.1.0, SVG Export Plug-In . SVG Version: 6.00 Build 0)  -->
<svg version="1.1" id="Capa_1" xmlns="http://www.w3.org/2000/svg" xmlns:xlink="http://www.w3.org/1999/xlink" x="0px" y="0px"
	 viewBox="4 -3.9 107.9 107.9" style="enable-background:new 4 -3.9 107.9 107.9;" xml:space="preserve">
<style type="text/css">
	.st0{fill:#FFFFFF;}
	.st1{fill:#6158E0;}
</style>
<circle class="st0" cx="58" cy="50" r="54"/>
<path class="st1" d="M37.1,55.3H15.2c-0.8,0-1.5-0.7-1.5-1.5s0.7-1.5,1.5-1.5h19.2C35.4,53.4,36.2,54.4,37.1,55.3z M96.9,70.8
	c-0.1,0.4-0.2,0.7-0.4,1.1c-0.1,0.2-0.2,0.4-0.3,0.6l-0.1,0.1l-0.1,0.1l-0.1,0.1L95.7,73c-0.1,0.1-0.2,0.2-0.4,0.4
	c-0.2,0.1-0.3,0.2-0.4,0.3c-0.3,0.2-0.5,0.4-0.8,0.5c-0.5,0.3-1,0.6-1.6,0.9c-2.2,1.1-4.6,1.8-7.2,2.1c-1.3,0.2-2.6,0.3-3.9,0.3
	s-2.6,0-4-0.1c-2.7-0.1-5.5-0.5-8.3-1.1s-5.8-1.5-8.5-3.2c-0.7-0.4-1.4-0.9-2-1.4c-0.3-0.3-0.6-0.6-0.9-0.9l-0.4-0.5l-0.1-0.1V70
	l-0.1-0.1l-0.2-0.2c-0.2-0.3-0.5-0.6-0.7-0.9s-0.5-0.6-0.7-1c-0.5-0.6-0.9-1.3-1.3-2c-0.1-0.1-0.1-0.2-0.2-0.4H32
	c-0.8,0-1.5-0.7-1.5-1.5s0.7-1.5,1.5-1.5h29.8c0.8,0,1.5,0.7,1.5,1.5s-0.7,1.5-1.5,1.5h-4.1c0.1,0.2,0.2,0.3,0.4,0.5l0.6,0.9
	c0.2,0.3,0.5,0.6,0.7,0.9l0.2,0.2l0.1,0.1v0.1l0,0l0.3,0.4c0.2,0.2,0.5,0.5,0.7,0.7c0.5,0.4,1,0.8,1.6,1.2c2.3,1.4,4.9,2.2,7.6,2.8
	c2.6,0.6,5.3,0.9,7.8,1c1.3,0.1,2.5,0.1,3.8,0.1c1.2,0,2.4-0.1,3.6-0.2c2.3-0.3,4.4-0.9,6.2-1.8c0.5-0.2,0.9-0.5,1.3-0.7
	c0.2-0.1,0.4-0.3,0.6-0.4c0.1-0.1,0.2-0.1,0.2-0.2c0.1-0.1,0.1-0.1,0.2-0.2l0.1-0.1l0,0l0,0c0,0,0-0.1,0.1-0.1
	c0-0.1,0.1-0.2,0.1-0.4c0.1-0.3,0.1-0.7,0-1c-0.1-0.7-0.4-1.5-0.8-2.1c-0.2-0.3-0.4-0.6-0.6-0.8c0.1,0-0.2-0.2-0.6-0.3
	c-0.7-0.2-1.5-0.4-2.2-0.5s-1.5-0.2-2.2-0.3c-2.8-0.4-5-0.5-6.5-0.7c-0.8-0.1-1.4-0.1-1.8-0.2c-0.1,0-0.1,0-0.2,0
	c-0.6,0.5-1.1,0.8-1.4,1s-0.5,0.3-0.5,0.3l0,0c-0.6,0.3-1.4,0.1-1.7-0.6c-0.3-0.5-0.1-1.1,0.2-1.5c0,0,0.1-0.2,0.4-0.4
	c0.3-0.3,0.7-0.6,1.1-1.1c0.1-0.1,0.2-0.2,0.2-0.3v-0.1v-0.1c0-0.2-0.1-0.4-0.2-0.7c-0.3-1-0.7-2.2-1.3-3.5C75.3,56,74.7,54.5,74,53
	c-0.3-0.8-0.7-1.6-1.1-2.4c-0.3-0.6-0.4-1.2-0.5-1.7s-0.2-1-0.2-1.6C72,45.2,72,43.1,72,40.8c0-1.1,0.1-2.3,0.2-3.5
	c0-0.6,0.1-1.2,0.2-1.8l0.1-0.5v-0.3v-0.2l0,0c-0.1,0-0.2-0.1-0.3-0.1c-0.3-0.1-0.8-0.1-1.2,0c-0.1,0-0.2,0.1-0.3,0.1l-0.2,0.1
	l-0.2,0.1c-0.3,0.1-0.5,0.3-0.8,0.4c-0.6,0.3-1.2,0.6-1.8,0.9c-1.2,0.6-2.5,1.2-3.9,1.7c-0.7,0.2-1.5,0.4-2.4,0.5
	c-0.4,0-1,0-1.4-0.1S59.4,38,59,37.9c-1.5-0.3-3-0.7-4.4-1.4c-0.4-0.2-0.7-0.3-1-0.5s-0.7-0.4-1-0.5c-0.8-0.4-1.5-1-2.1-1.6
	c-1.2-1.3-2.1-2.7-2.6-4.4c-0.1-0.4-0.2-0.9-0.3-1.3v-0.4v-0.2v-0.1v-0.1v-0.1v-0.2v-0.3c0.1-0.8,0.1-1.6,0.2-2.3s0.1-1.5,0.1-2
	c0-0.1,0-0.3,0-0.4V22l0,0c-0.1-0.1-0.2-0.3-0.4-0.4c-0.4-0.3-0.8-0.5-1.3-0.5c-0.3,0-0.5,0-0.8,0.1c-0.1,0-0.3,0.1-0.4,0.1
	c-0.1,0.1-0.2,0.1-0.4,0.1l-0.3,0.1l-0.1,0.1l0,0l0,0l-0.4,0.2c-0.3,0.2-0.6,0.4-0.9,0.6c-0.6,0.4-1.2,0.9-1.9,1.4
	c-1.2,0.9-2.5,1.9-3.7,2.9c-1.3,1-2.5,2-3.8,3c-0.6,0.5-1.3,1-1.9,1.5l-1,0.7c-0.3,0.3-0.6,0.5-0.9,0.7c-0.5,0.5-1,1-1.3,1.5
	s-0.5,1-0.5,1.5s0.2,1,0.5,1.6c0.3,0.5,0.8,1.1,1.3,1.6c0.2,0.2,0.4,0.4,0.7,0.6h-4.1c-0.2-0.2-0.3-0.5-0.5-0.8
	c-0.5-0.9-0.9-1.9-0.9-3.1c0-1.1,0.4-2.2,0.9-3.1c0.6-0.9,1.2-1.6,1.9-2.2c0.4-0.3,0.7-0.6,1-0.8l1-0.7c0.6-0.5,1.3-1,1.9-1.5
	c1.3-1,2.5-2,3.8-3s2.5-2,3.8-3c0.7-0.5,1.3-1,2-1.4c0.3-0.2,0.7-0.5,1.1-0.7l0.6-0.3c0.1,0,0,0,0.1-0.1h0.1l0.1-0.1l0.3-0.1
	c0.2-0.1,0.5-0.2,0.7-0.3s0.5-0.1,0.7-0.2c0.5-0.1,1-0.1,1.6-0.1c1.1,0.1,2.1,0.4,3,1.1c0.4,0.3,0.8,0.7,1.2,1.3
	c0,0.1,0.1,0.2,0.2,0.3l0.1,0.2c0.1,0.2,0.1,0.3,0.1,0.4c0.1,0.3,0.1,0.5,0.1,0.8c0.1,1,0,1.8-0.1,2.6s-0.2,1.5-0.2,2.2V27v0.1v0.1
	v0.1v0.1v0.1c0,0.3,0.1,0.6,0.2,0.9c0.4,1.2,1.1,2.3,1.9,3.2c0.4,0.4,0.9,0.8,1.4,1.1c0.3,0.2,0.6,0.3,0.9,0.5s0.6,0.3,0.9,0.5
	c1.2,0.6,2.4,0.9,3.7,1.2c0.3,0.1,0.6,0.1,1,0.2c0.3,0,0.4,0,0.7,0c0.5,0,1.1-0.2,1.7-0.3c1.2-0.4,2.3-0.9,3.5-1.5
	c0.6-0.3,1.1-0.6,1.7-0.9c0.3-0.2,0.6-0.3,0.9-0.5l0.2-0.1c0.2-0.1,0.1-0.1,0.3-0.1c0.3-0.1,0.4-0.2,0.7-0.2
	c0.8-0.2,1.7-0.3,2.5-0.1c0.4,0.1,0.9,0.2,1.4,0.5s1,0.7,1.2,1.4c0.1,0.3,0.2,0.7,0.2,1c0,0.2,0,0.3,0,0.4L75.8,35v0.2v0.2l-0.1,0.4
	c-0.1,0.6-0.1,1.1-0.2,1.7c-0.1,1.1-0.1,2.3-0.2,3.4c0,2.2,0,4.3,0.2,6.1c0,0.5,0.1,0.9,0.2,1.3c0.1,0.4,0.2,0.8,0.3,1
	c0.4,0.9,0.7,1.7,1.1,2.5c0.7,1.6,1.3,3.1,1.8,4.4c0.5,1.3,1,2.6,1.3,3.7c0.1,0.3,0.2,0.6,0.2,0.9c0,0.1,0,0.3,0.1,0.4
	c0.3,0,0.6,0.1,0.9,0.1c1.5,0.1,3.8,0.3,6.7,0.7c0.7,0.1,1.5,0.2,2.3,0.3c0.8,0.1,1.7,0.3,2.6,0.6c0.2,0.1,0.5,0.2,0.8,0.3
	c0.1,0.1,0.3,0.1,0.5,0.3c0.1,0,0.2,0.1,0.3,0.2l0.1,0.1l0.1,0.1c0.4,0.4,0.8,0.9,1.1,1.4c0.6,1,1,2,1.2,3.3
	C97,69.5,97.1,70.2,96.9,70.8z M48.2,22L48.2,22C48.2,22,48.2,22.2,48.2,22z M72.9,34.7L72.9,34.7L72.9,34.7L72.9,34.7z M21.9,44.8
	h9.6c1,1,2,2.1,2.9,3.1c1.1,1.2,2.2,2.4,3.3,3.6c0.6,0.6,1.1,1.2,1.7,1.8l0.4,0.4l0.4,0.5c0.4,0.4,0.8,0.7,1.3,1
	c0.9,0.5,1.9,0.8,2.8,0.9s1.7,0.2,2.3,0.3c0.7,0.1,1.2,0.3,1.7,0.6c0.2,0.1,0.5,0.3,0.7,0.5l0.2,0.2l0.1,0.2
	c0.1,0.1,0.2,0.2,0.3,0.4c0.5,0.6,1,1.4,1.4,2.2h3.5c-0.7-1.3-1.4-2.8-2.6-4.2c-0.1-0.2-0.3-0.3-0.5-0.5l-0.1-0.1l-0.1-0.1L51,55.5
	l-0.2-0.2c-0.4-0.4-0.8-0.7-1.2-0.9c-0.9-0.5-1.9-0.8-2.8-0.9c-0.9-0.1-1.7-0.2-2.4-0.3c-0.7-0.1-1.3-0.3-1.7-0.5
	c-0.2-0.1-0.4-0.3-0.6-0.5l-0.4-0.4l-0.4-0.4c-0.5-0.6-1.1-1.2-1.6-1.7c-1.1-1.2-2.2-2.4-3.3-3.6c-0.3-0.4-0.7-0.7-1-1.1h7.4
	c0.8,0,1.5-0.7,1.5-1.5S43.6,42,42.8,42H21.6c-0.8,0-1.5,0.7-1.5,1.5S21.1,44.8,21.9,44.8z"/>
</svg>
