<?xml version="1.0" encoding="utf-8"?>
<!-- Generator: Adobe Illustrator 19.1.0, SVG Export Plug-In . SVG Version: 6.00 Build 0)  -->
<svg version="1.1" id="Layer_1" xmlns="http://www.w3.org/2000/svg" xmlns:xlink="http://www.w3.org/1999/xlink" x="0px" y="0px"
	 viewBox="0 0 560 450" style="enable-background:new 0 0 560 450;" xml:space="preserve">
<style type="text/css">
	.st0{fill:#191733;}
	.st1{fill:#0F0D1E;}
	.st2{fill:#141229;}
	.st3{fill:#3E2C8D;}
	.st4{fill:#6C202E;}
	.st5{fill:#962D40;}
	.st6{fill:#2D2066;}
	.st7{fill:#B9374F;}
	.st8{fill:#4D36AF;}
	.st9{fill:#44652E;}
	.st10{fill:#5F8C40;}
	.st11{fill:#75AD4F;}
	.st12{fill:#DDC26A;}
	.st13{fill:#B39D56;}
	.st14{fill:#81713E;}
	.st15{fill:#90BEBB;}
	.st16{fill:#546F6D;}
	.st17{fill:#759A97;}
</style>
<g>
	<polygon class="st0" points="550.1,43.2 549.5,356.2 21.4,430.4 22,117.4 	"/>
	<polygon class="st1" points="21.4,430.4 11.1,424.8 11.6,111.7 22,117.4 	"/>
	<polygon class="st2" points="22,117.4 11.6,111.7 539.7,37.5 550.1,43.2 	"/>
	<polygon class="st3" points="76.1,175 65.8,169.3 175.9,153.9 186.2,159.5 	"/>
	<polygon class="st4" points="76.1,175 65.8,169.3 65.8,161.2 76.2,166.8 	"/>
	<polygon class="st5" points="76.2,166.8 65.8,161.2 175.9,145.7 186.2,151.3 	"/>
	<polygon class="st6" points="76.1,175 65.8,169.3 65.9,124 76.2,129.6 	"/>
	<polygon class="st7" points="186.2,151.3 186.2,159.5 76.1,175 76.2,166.8 	"/>
	<polygon class="st8" points="186.3,114.1 186.2,151.3 76.2,166.8 76.1,175 186.2,159.5 76.1,175 76.2,129.6 	"/>
	<polygon class="st3" points="76.2,129.6 65.9,124 175.9,108.5 186.3,114.1 	"/>
	<polygon class="st3" points="230.7,153.3 220.3,147.7 330.4,132.2 340.7,137.9 	"/>
	<polygon class="st9" points="230.7,153.3 220.3,147.7 220.3,139.5 230.7,145.2 	"/>
	<polygon class="st10" points="230.7,145.2 220.3,139.5 330.4,124.1 340.8,129.7 	"/>
	<polygon class="st6" points="230.7,153.3 220.3,147.7 220.4,102.3 230.8,108 	"/>
	<polygon class="st11" points="340.8,129.7 340.7,137.9 230.7,153.3 230.7,145.2 	"/>
	<polygon class="st8" points="340.8,92.5 340.8,129.7 230.7,145.2 230.7,153.3 340.7,137.9 230.7,153.3 230.8,108 	"/>
	<polygon class="st3" points="230.8,108 220.4,102.3 330.5,86.9 340.8,92.5 	"/>
	<polygon class="st3" points="378.1,133.1 367.7,127.4 477.8,112 488.2,117.6 	"/>
	<polygon class="st12" points="488.2,109.4 488.2,117.6 378.1,133.1 378.1,124.9 	"/>
	<polygon class="st13" points="378.1,124.9 367.7,119.3 477.8,103.8 488.2,109.4 	"/>
	<polygon class="st6" points="378.1,133.1 367.7,127.4 367.8,82.1 378.2,87.7 	"/>
	<polygon class="st14" points="378.1,133.1 367.7,127.4 367.7,119.3 378.1,124.9 	"/>
	<polygon class="st8" points="488.3,72.2 488.2,109.4 378.1,124.9 378.1,133.1 488.2,117.6 378.1,133.1 378.2,87.7 	"/>
	<polygon class="st3" points="378.2,87.7 367.8,82.1 477.9,66.6 488.3,72.2 	"/>
	<polygon class="st8" points="495.8,147.4 495.4,343.3 75.7,402.3 76.1,206.4 	"/>
	<polygon class="st6" points="75.7,402.3 65.3,396.7 65.7,200.8 76.1,206.4 	"/>
	<polygon class="st3" points="76.1,206.4 65.7,200.8 485.5,141.8 495.8,147.4 	"/>
	<polygon class="st7" points="169.3,242 169,359.9 134,364.9 134.2,247 	"/>
	<polygon class="st4" points="134,364.9 123.6,359.2 123.8,241.3 134.2,247 	"/>
	<polygon class="st5" points="134.2,247 123.8,241.3 158.9,236.4 169.3,242 	"/>
	<polygon class="st11" points="217,284.1 216.8,353.2 181.8,358.2 181.9,289.1 	"/>
	<polygon class="st9" points="181.8,358.2 171.4,352.5 171.5,283.4 181.9,289.1 	"/>
	<polygon class="st10" points="181.9,289.1 171.5,283.4 206.6,278.5 217,284.1 	"/>
	<polygon class="st12" points="266.4,259.8 266.2,346.3 231.2,351.2 231.3,264.7 	"/>
	<polygon class="st14" points="231.2,351.2 220.8,345.6 221,259.1 231.3,264.7 	"/>
	<polygon class="st13" points="231.3,264.7 221,259.1 256,254.2 266.4,259.8 	"/>
	<polygon class="st15" points="315.6,238.7 315.4,339.4 280.3,344.3 280.5,243.6 	"/>
	<polygon class="st16" points="280.3,344.3 270,338.7 270.1,237.9 280.5,243.6 	"/>
	<polygon class="st17" points="280.5,243.6 270.1,237.9 305.2,233 315.6,238.7 	"/>
	<polygon class="st7" points="450.5,227.7 450.3,320.4 415.3,325.3 415.4,232.6 	"/>
	<polygon class="st4" points="415.3,325.3 404.9,319.7 405.1,227 415.4,232.6 	"/>
	<polygon class="st5" points="415.4,232.6 405.1,227 440.1,222.1 450.5,227.7 	"/>
	<polygon class="st11" points="405.4,288.9 405.3,326.7 370.3,331.7 370.3,293.8 	"/>
	<polygon class="st9" points="370.3,331.7 359.9,326 360,288.2 370.3,293.8 	"/>
	<polygon class="st10" points="370.3,293.8 360,288.2 395,283.3 405.4,288.9 	"/>
	<polygon class="st12" points="358.2,270.8 358.1,333.4 329.1,337.5 329.2,274.9 	"/>
	<polygon class="st14" points="329.1,337.5 318.7,331.8 318.8,269.3 329.2,274.9 	"/>
	<polygon class="st13" points="329.2,274.9 318.8,269.3 347.8,265.2 358.2,270.8 	"/>
</g>
</svg>
