<?xml version="1.0" encoding="utf-8"?>
<!-- Generator: Adobe Illustrator 19.1.0, SVG Export Plug-In . SVG Version: 6.00 Build 0)  -->
<svg version="1.1" id="Capa_1" xmlns="http://www.w3.org/2000/svg" xmlns:xlink="http://www.w3.org/1999/xlink" x="0px" y="0px"
	 viewBox="-21 23 56 56" style="enable-background:new -21 23 56 56;" xml:space="preserve">
<style type="text/css">
	.st0{fill:#FFFFFF;}
	.st1{fill:#6158E0;}
</style>
<circle class="st0" cx="7" cy="51" r="28"/>
<g>
	<path class="st1" d="M27.8,49.8l-3.7-2.1c-0.3-1.9-0.9-3.6-1.7-5.2l1.7-3.9c0.1-0.3,0.1-0.5-0.1-0.8c-0.2-0.2-0.4-0.3-0.7-0.3
		L19,37.9c-1.3-1.3-2.8-2.4-4.4-3.2l-0.9-4.2c-0.1-0.3-0.3-0.5-0.5-0.6c-0.3-0.1-0.5,0-0.8,0.2L9.2,33c-0.9-0.1-1.8-0.2-2.8-0.2
		S4.5,32.9,3.6,33l-3.2-2.9c-0.2-0.2-0.5-0.2-0.8-0.2c-0.3,0.1-0.5,0.3-0.5,0.6l-0.9,4.2c-1.6,0.8-3.1,1.9-4.4,3.2l-4.3-0.4
		c-0.3,0-0.5,0.1-0.7,0.3s-0.2,0.5-0.1,0.8l1.7,3.9c-0.8,1.6-1.4,3.4-1.7,5.2l-3.7,2.1c-0.2,0.1-0.4,0.4-0.4,0.7s0.1,0.5,0.4,0.7
		l3.7,2.1c0.3,1.9,0.9,3.6,1.7,5.2l-1.7,3.9c-0.1,0.3-0.1,0.5,0.1,0.8c0.2,0.2,0.4,0.3,0.7,0.3l4.3-0.4c1.3,1.3,2.8,2.4,4.4,3.2
		l0.9,4.2c0.1,0.3,0.3,0.5,0.5,0.6c0.3,0.1,0.6,0,0.8-0.2L3.6,68c0.9,0.1,1.8,0.2,2.8,0.2s1.9-0.1,2.8-0.2l3.2,2.9
		c0.1,0.1,0.3,0.2,0.5,0.2c0.1,0,0.2,0,0.2,0c0.3-0.1,0.5-0.3,0.5-0.6l0.9-4.2c1.6-0.8,3.1-1.9,4.4-3.2l4.3,0.4
		c0.3,0,0.5-0.1,0.7-0.3c0.2-0.2,0.2-0.5,0.1-0.8l-1.7-3.9c0.8-1.6,1.4-3.4,1.7-5.2l3.7-2.1c0.2-0.1,0.4-0.4,0.4-0.7
		C28.2,50.2,28,49.9,27.8,49.8z M22.3,46.6l-1.4-0.8l0.7-1.5C21.9,45,22.1,45.8,22.3,46.6z M22.8,50.5c0,0.6,0,1.2-0.1,1.8l-3.2,1.8
		c-0.3,0.2-0.5,0.6-0.3,1l1.5,3.3c-0.6,1.1-1.4,2.1-2.2,3L14.9,61c-0.4,0-0.8,0.2-0.8,0.6l-0.8,3.6c-1.1,0.5-2.3,0.9-3.5,1.2L7.1,64
		c-0.1-0.1-0.3-0.2-0.5-0.2S6.2,63.9,6.1,64l-2.7,2.4c-1.2-0.2-2.4-0.6-3.5-1.2l-0.8-3.6C-1,61.2-1.3,61-1.7,61l-3.6,0.4
		c-0.8-0.9-1.6-1.9-2.2-3l1.5-3.3c0.2-0.4,0-0.8-0.3-1l-3.2-1.8c-0.1-0.6-0.1-1.2-0.1-1.8s0-1.2,0.1-1.8l3.2-1.8
		c0.3-0.2,0.5-0.6,0.3-1l-1.5-3.3c0.6-1.1,1.4-2.1,2.2-3l3.6,0.4c0.4,0,0.8-0.2,0.8-0.6l0.8-3.6c1.1-0.5,2.3-0.9,3.5-1.2L6.1,37
		c0.3,0.3,0.7,0.3,1,0l2.7-2.4c1.2,0.2,2.4,0.6,3.5,1.2l0.8,3.6c0.1,0.4,0.4,0.6,0.8,0.6l3.6-0.4c0.8,0.9,1.6,1.9,2.2,3l-1.5,3.3
		c-0.2,0.4,0,0.8,0.3,1l3.2,1.8C22.7,49.2,22.8,49.8,22.8,50.5z M21.4,40.8c-0.3-0.5-0.7-1-1.1-1.5l1.8-0.2L21.4,40.8z M17,38.1
		l-1.6,0.2l-0.3-1.6C15.8,37.1,16.4,37.6,17,38.1z M12.5,32.1l0.4,1.8c-0.6-0.2-1.1-0.4-1.7-0.6L12.5,32.1z M6.6,34.2
		c0.4,0,0.8,0,1.2,0.1l-1.2,1.1l-1.2-1.1C5.8,34.3,6.2,34.2,6.6,34.2z M0.6,32.1l1.3,1.2c-0.6,0.2-1.2,0.3-1.7,0.6L0.6,32.1z
		 M-2,36.7l-0.3,1.6l-1.6-0.2C-3.3,37.6-2.6,37.1-2,36.7z M-9.1,39.1l1.8,0.2c-0.4,0.5-0.7,1-1.1,1.5L-9.1,39.1z M-8.4,44.3l0.7,1.5
		l-1.4,0.8C-9,45.8-8.7,45-8.4,44.3z M-12.7,50.5l1.6-0.9c0,0.3,0,0.6,0,0.9s0,0.6,0,0.9L-12.7,50.5z M-9.2,54.3l1.4,0.8l-0.7,1.5
		C-8.7,55.9-9,55.1-9.2,54.3z M-8.3,60.1c0.3,0.5,0.7,1,1.1,1.5L-9,61.8L-8.3,60.1z M-3.9,62.8l1.6-0.2l0.3,1.6
		C-2.6,63.8-3.3,63.3-3.9,62.8z M0.6,68.8L0.2,67c0.6,0.2,1.1,0.4,1.7,0.6L0.6,68.8z M6.6,66.7c-0.4,0-0.8,0-1.2-0.1l1.2-1.1
		l1.2,1.1C7.4,66.6,7,66.7,6.6,66.7z M12.5,68.8l-1.3-1.2c0.6-0.2,1.2-0.3,1.7-0.6L12.5,68.8z M15.1,64.2l0.3-1.6l1.6,0.2
		C16.4,63.3,15.8,63.8,15.1,64.2z M22.2,61.8l-1.8-0.2c0.4-0.5,0.7-1,1.1-1.5L22.2,61.8z M21.6,56.6l-0.7-1.5l1.4-0.8
		C22.1,55.1,21.9,55.9,21.6,56.6z M24.3,51.4c0-0.3,0-0.6,0-0.9s0-0.6,0-0.9l1.6,0.9L24.3,51.4z"/>
</g>
</svg>
