<?xml version="1.0" encoding="utf-8"?>
<!-- Generator: Adobe Illustrator 19.1.0, SVG Export Plug-In . SVG Version: 6.00 Build 0)  -->
<svg version="1.1" id="Layer_1" xmlns="http://www.w3.org/2000/svg" xmlns:xlink="http://www.w3.org/1999/xlink" x="0px" y="0px"
	 viewBox="202 -201.6 503.6 503.6" style="enable-background:new 202 -201.6 503.6 503.6;" xml:space="preserve">
<style type="text/css">
	.st0{fill:#FFFFFF;}
	.st1{fill:#6158E0;}
</style>
<circle class="st0" cx="453.8" cy="49.1" r="251.8"/>
<g>
	<g>
		<g>
			<rect x="330.7" y="29.6" class="st1" width="73.9" height="135.4"/>
			<polygon class="st1" points="392.3,-2.7 392.3,-32 343,-32 343,-2.7 333.1,17.3 402.2,17.3 			"/>
			<path class="st1" d="M381.4-112.2l-7.9-26.2c-0.8-2.6-3.2-4.4-5.9-4.4c-2.7,0-5.1,1.8-5.9,4.4l-7.8,26.2
				c-6.6,22.1-10.1,44.9-10.6,67.9H392C391.5-67.3,388-90.1,381.4-112.2z"/>
			<path class="st1" d="M399.1,193.2c0.2-0.5,0.4-1,0.5-1.5l3.6-14.4H332l3.6,14.4c0.1,0.5,0.3,1,0.5,1.5c-3.3,2.8-5.5,6.9-5.5,11.6
				v6.6c0,8.4,6.8,15.2,15.2,15.2h43.5c8.4,0,15.2-6.8,15.2-15.2v-6.6C404.6,200.1,402.4,196,399.1,193.2z"/>
			<polygon class="st1" points="564.6,46.6 564.6,17.3 515.4,17.3 515.4,46.6 505.4,66.5 574.6,66.5 			"/>
			<rect x="503" y="78.8" class="st1" width="73.9" height="86.2"/>
			<path class="st1" d="M553.7-63l-7.9-26.2c-0.8-2.6-3.2-4.4-5.9-4.4c-2.7,0-5.1,1.8-5.9,4.4L526.1-63
				c-6.6,22.1-10.1,44.9-10.6,67.9h48.8C563.8-18.1,560.4-40.9,553.7-63z"/>
			<path class="st1" d="M571.4,193.2c0.2-0.5,0.4-1,0.5-1.5l3.6-14.4h-71.2l3.6,14.4c0.1,0.5,0.3,1,0.5,1.5
				c-3.3,2.8-5.5,6.9-5.5,11.6v6.6c0,8.4,6.8,15.2,15.2,15.2h43.5c8.4,0,15.2-6.8,15.2-15.2v-6.6C576.9,200.1,574.8,196,571.4,193.2
				z"/>
			<rect x="416.9" y="54.2" class="st1" width="73.9" height="110.8"/>
			<polygon class="st1" points="478.4,22 478.4,-7.4 429.2,-7.4 429.2,22 419.2,41.9 488.4,41.9 			"/>
			<path class="st1" d="M467.6-87.6l-7.9-26.2c-0.8-2.6-3.2-4.4-5.9-4.4c-2.7,0-5.1,1.8-5.9,4.4L440-87.6
				c-6.6,22.1-10.1,44.9-10.6,67.9h48.8C477.7-42.7,474.2-65.5,467.6-87.6z"/>
			<path class="st1" d="M485.3,193.2c0.2-0.5,0.4-1,0.5-1.5l3.6-14.4h-71.2l3.6,14.4c0.1,0.5,0.3,1,0.5,1.5
				c-3.3,2.8-5.5,6.9-5.5,11.6v6.6c0,8.4,6.8,15.2,15.2,15.2h43.5c8.4,0,15.2-6.8,15.2-15.2v-6.6C490.7,200.1,488.6,196,485.3,193.2
				z"/>
		</g>
	</g>
</g>
</svg>
